<svg id="Слой_1" data-name="Слой 1" xmlns="http://www.w3.org/2000/svg" viewBox="0 0 3019.22 1845.26"><defs><style>.cls-1{fill:#e8f2fa;}.cls-2{fill:#fec4ad;}.cls-3{fill:#ff912b;}.cls-4{fill:#f9af95;}.cls-5{fill:#fc7600;}.cls-6{fill:#d8e9ff;}.cls-7{fill:#c5e0ff;}.cls-8{fill:#73b471;}.cls-9{fill:#9bd399;}.cls-10{fill:#ffd0b1;}.cls-11{fill:#ffbd8f;}.cls-12{fill:#f78840;}.cls-13{fill:#153d74;}.cls-14{fill:#154276;}.cls-15{fill:#ef7c00;}.cls-16{fill:#ffc459;}.cls-17{fill:#ff9f00;}.cls-18{fill:#25468f;}.cls-19{fill:#1e3865;}.cls-20{fill:#a9c2ff;}.cls-21{fill:#8aaff7;}.cls-22{fill:#194279;}.cls-23{fill:#2a3967;}.cls-24,.cls-25{opacity:0.5;}.cls-25{fill:#a8ccff;}.cls-26{fill:#fa0;}.cls-27{fill:#ffebd9;}.cls-28{fill:#eabf9b;}.cls-29{fill:#fddbba;}</style></defs><path class="cls-1" d="M2825.81,1835.12,278,1834.24S-152.6,1240.85,77,843.88s565-116.75,593-403.54c1-9.71.19-19.31.19-28.7,0-2.23,0-4.43.15-6.63C679,240.3,786.43,133.86,928.25,72.62q6.88-3,13.84-5.79c226.16-91.66,532-72.8,667.35,6C1839.77,206.92,1838.33,368.31,2314,315.07S2880.32,707,2756.51,933.79C2580.83,1255.61,3243.67,1202.75,2825.81,1835.12Z"/><path class="cls-2" d="M1835.43,848.48l-61.92-61-60.76-59.81c-3-3.51-3.57-7.07-2.56-10.61,3.12-11.16,22-22.23,33.06-31.53l1.11-1a34.69,34.69,0,0,1,48.74,4.14l74.28,88.06h0l22,26.11a34.69,34.69,0,0,1-4.14,48.74l-1.11.94A34.69,34.69,0,0,1,1835.43,848.48Z"/><path class="cls-2" d="M1853.45,456.21c-.72,7.76-9.48,20.27-25.24,22.14-79.62,9.48-129.21-15.64-131.51-15.61-60.54.29-103.39-21.76-116.37-10.35-.48.42-.35,1.32.33,2.6,11.88,23,195.56,176.18,198.23,193.17,2.83,18-341.67,102.36-341.67,102.36s-50.9-31.73-107.9-73.37c-28.9-21.1-59.35-44.74-85.54-68.09-26.41-23.5-48.49-46.76-60.28-66.79l-.07-.14a81.41,81.41,0,0,1-4.57-8.78c-.21-.46-.4-.86-.55-1.24-9.22-21.64-24.93-40.71-42.78-56.94-46.26-42-106.94-65.15-106.94-65.15l253-135s232.28,27.29,269.44,49.84c54.15,32.88,167.56,57,189.38,69.74,16.2,9.44,101.55,40.09,107.78,42.83C1850.83,438.65,1854.39,446.51,1853.45,456.21Z"/><path class="cls-3" d="M1201.53,236.32s-.06.52-.2,1.49h0a632.88,632.88,0,0,1-18,84.06v0c-.44,1.5-.88,3-1.34,4.54h0c-.2.68-.41,1.37-.61,2v0c-14.62,48.34-38.38,101.92-75,123.52h0c-2.1,1.23-4.25,2.37-6.44,3.39a67.6,67.6,0,0,1-15.94,5.19,65.23,65.23,0,0,1-12.68,1.22S1039.09,458,991,452.1l-8.05-1c-87-10.62-220-27.07-312.69-39.47,0-2.23,0-4.43.15-6.63C679,240.3,786.43,133.86,928.25,72.62c75.33,45,145.89,87.32,196.46,117.63a0,0,0,0,1,0,0,.63.63,0,0,1,.12.07l9.44,5.65.19.12Z"/><path class="cls-4" d="M1221.27,427.44a3,3,0,0,1,.29.67c23.77,150.29,111,125.5,111,125.5l-3.28,123.54c-28.9-21.1-59.35-44.74-85.54-68.09-26.41-23.5-48.49-46.76-60.28-66.79l-.07-.14c-2-3.72-3.6-6.7-4.57-8.78-.21-.46-.4-.86-.55-1.24-9.22-21.64-24.93-40.71-42.78-56.94,9.29-15.87,20.14-33.9,30.86-51.56C1179.45,402.14,1211.49,404.28,1221.27,427.44Z"/><path class="cls-5" d="M1124.87,190.11s-81.62,70.6-115.23,120.2L1034,352.56l-41.44-3.9s-21.1,76.58-9.64,102.45l113,10.64,130.25-208.44Z"/><path class="cls-6" d="M990.35,468.48C987,437.76,1016.8,375,1016.8,375L1117,395l-77.14-81.3c17.42-36,59.18-91,85-123.63,12.87-16.22,21.79-26.89,21.79-26.89,74.2,56.4,143.27,112.61,143.27,112.61-30.29,11.73-58.63,43.59-82.21,78.8-39.2,58.51-65.26,126.27-65.26,126.27C1082.33,475.22,990.35,468.48,990.35,468.48Z"/><path class="cls-7" d="M990.35,468.48C987,437.76,1016.8,375,1016.8,375L1117,395l-77.14-81.3c17.42-36,59.18-91,85-123.63,1.32,89.86,82.85,164.52,82.85,164.52-39.2,58.51-65.26,126.27-65.26,126.27C1082.33,475.22,990.35,468.48,990.35,468.48Z"/><path class="cls-3" d="M1101.73,270.34a12.27,12.27,0,1,1-13.47,10.94A12.27,12.27,0,0,1,1101.73,270.34Z"/><rect class="cls-8" x="1279.69" y="445.76" width="749.67" height="344.38" transform="translate(-106.05 477.56) rotate(-15.92)"/><rect class="cls-9" x="1311.01" y="463.75" width="749.67" height="344.38" transform="translate(-87.38 316.29) rotate(-10.45)"/><path class="cls-8" d="M2046.3,685.26,2014.85,514.7l0-.06-15.48-84-8,1.48L1853.24,457.6h0l-1.58.29L1748.24,477,1735,479.39h0l-110.88,20.46L1332.6,553.6h0l-.19,0-4.95.91h-.15l-.12,0-7.42,1.37,11.21,60.75,13.1,71,28.3,153.46,159.3-29.38,7.09-1.3,26.42-4.88,5.88-1.09,7.75-1.42,7.08-1.31,13.51-2.49,33-6.08,9.35-1.72,13-2.4,11.32-2.08,66.16-12.21h0l13.44-2.48,10.59-1.95,91.59-16.89,82.3-15.17,30.08-5.55L2052,715.9Zm-41,26.7-148.91,27.46h0l-17.79,3.28h0l-93.16,17.18-8.65,1.6-65.72,12.12-20.79,3.83-13.35,2.47-9.55,1.76-31.09,5.73-12.86,2.36-7.81,1.46-7.42,1.36-6,1.09-26.32,4.86-7.46,1.38-114,21a32.8,32.8,0,0,1-38.2-26.31L1358.45,698,1340,598.13a32.8,32.8,0,0,1,26.3-38.22l269.06-49.6,126-23.24,35.86-6.62h0l45.12-8.31,1.47-.28h0L1957.22,451a32.79,32.79,0,0,1,38.2,26.3l36.23,196.49A32.79,32.79,0,0,1,2005.34,712Z"/><path class="cls-8" d="M1699.71,719.85a86.33,86.33,0,1,1,71.07-99.27A86.33,86.33,0,0,1,1699.71,719.85Z"/><path class="cls-8" d="M1519.82,699.92a31.87,31.87,0,1,1,26.24-36.64A31.87,31.87,0,0,1,1519.82,699.92Z"/><path class="cls-8" d="M1862.61,636.71a31.87,31.87,0,1,1,26.24-36.65A31.87,31.87,0,0,1,1862.61,636.71Z"/><path class="cls-2" d="M1606.49,857.45l-2.72-7.33-18.27-49.24a29.84,29.84,0,0,1-1.08-3.49,33.53,33.53,0,0,1,20.79-39.49l1.89-.7a33.54,33.54,0,0,1,43,19.71l17,45.91,1.24,3.34,2.71,7.32a33.53,33.53,0,0,1-19.71,43l-1.89.7A33.54,33.54,0,0,1,1606.49,857.45Z"/><path class="cls-10" d="M1605.67,817.57c-3-8.22-8.43-23.1-9.51-31-.31-2.25.95-6.37,5.2-10.2a30.49,30.49,0,0,1,11.19-6.09,35.58,35.58,0,0,1,7.12-1.62,29.93,29.93,0,0,1,8.45.34,8.44,8.44,0,0,1,6,4.73,0,0,0,0,0,0,0c4,8.47,8.79,19.88,11.45,29.87,1.85,6.91-1.25,13.86-7.3,16l-2.82,1L1621,825.75C1615,827.88,1608.14,824.28,1605.67,817.57Z"/><path class="cls-11" d="M1605.67,817.57c-3-8.22-8.43-23.1-9.51-31-.31-2.25.95-6.37,5.2-10.2,1-.4,2-.77,3.07-1.12a35.08,35.08,0,0,1,7.12-1.63,30,30,0,0,1,8.46.34,8.45,8.45,0,0,1,6,4.73s0,0,0,0c4,8.46,8.78,19.87,11.44,29.86a14.1,14.1,0,0,1-2,12L1621,825.75C1615,827.88,1608.14,824.28,1605.67,817.57Z"/><path class="cls-2" d="M1537.64,834.63l-10-37.94a21.74,21.74,0,0,1,15.43-26.49l4.3-1.14a21.74,21.74,0,0,1,26.49,15.43l10,37.94a21.76,21.76,0,0,1-15.43,26.5l-4.3,1.13A21.74,21.74,0,0,1,1537.64,834.63Z"/><path class="cls-10" d="M1539.65,814.17c-1.8-7-5-19.56-5.28-26.15-.12-2.4,1.94-7.19,8.27-10.27a28.51,28.51,0,0,1,10.92-2.7,21.59,21.59,0,0,1,6.48.9,6.72,6.72,0,0,1,4.29,4.31l0,0a168.47,168.47,0,0,1,6.85,25.34c1,5.8-1.85,11.27-6.64,12.59l-3.41.95L1550.88,822C1546.13,823.32,1541.12,819.87,1539.65,814.17Z"/><path class="cls-11" d="M1539.65,814.17c-1.8-7-5-19.56-5.28-26.15-.12-2.4,1.94-7.19,8.27-10.27a23.87,23.87,0,0,1,5.23-.72,21.83,21.83,0,0,1,6.47.89,6.71,6.71,0,0,1,4.29,4.32l0,0a168.61,168.61,0,0,1,6.85,25.35c.81,4.8-1,9.38-4.35,11.56L1550.88,822C1546.13,823.32,1541.12,819.87,1539.65,814.17Z"/><path class="cls-2" d="M1679.06,856.82c-.1-.27-.18-.54-.27-.82l-12.36-49.74c-5.44-21.87,6.55-44.34,26.63-50l10.29-2.87c19.29-5.39,39.31,6.67,45.68,27l4.08,16.42,8.28,33.32c5.44,21.86-6.55,44.34-26.63,50L1724.47,883C1705.44,888.31,1685.71,876.65,1679.06,856.82Z"/><path class="cls-10" d="M1693.09,834.18,1682.41,810a.56.56,0,0,0,0-.15,27.4,27.4,0,0,1-.58-2.92c-.06-.41-.1-.82-.14-1.23a2.9,2.9,0,0,1,0-.51,3.84,3.84,0,0,1,5.45-3.28,24,24,0,0,0,16.34,1.49l2.1-.56.07,0,6.86-1.81a25.62,25.62,0,0,0,13.39-8.64c.41-.49.79-1,1.16-1.52a6.92,6.92,0,0,1,12.31,2.13.83.83,0,0,1,0,.15l3.8,26.5c1.73,6.55-3.36,12.81-9.91,14.55l-7.82,2.07-16.66,4.39C1702.21,842.35,1694.82,840.74,1693.09,834.18Z"/><path class="cls-11" d="M1693.09,834.18,1682.41,810a.56.56,0,0,0,0-.15c-.1-.57-.39-2.34-.73-4.66a3.84,3.84,0,0,1,5.45-3.28,24,24,0,0,0,16.34,1.49l2.1-.56.07,0,6.86-1.81a25.62,25.62,0,0,0,13.39-8.64,6.78,6.78,0,0,1,2.68,3.82,1.13,1.13,0,0,0,0,.15l3.8,26.5c1.45,5.52-1.93,10.82-6.94,13.41l-16.66,4.39C1702.21,842.35,1694.82,840.74,1693.09,834.18Z"/><path class="cls-2" d="M1526,397.47s-12.19-95.15,25-72.58c54.15,32.88,167.55,57,189.38,69.72,16.2,9.44,101.55,40.09,107.78,42.85,2.68,1.19,7.85,11.67,2.86,21.9-3.42,7-11.94,19.93-26.72,25.68-53,20.63-125.28-22.32-127.59-22.31-60.54.29-119.37-6.47-136.47-4C1554.28,459.56,1526,397.47,1526,397.47Z"/><path class="cls-11" d="M1854.49,439l-59.92-21.79s-5.84,11.91-3,19.4S1850,457.32,1854.49,439Z"/><path class="cls-12" d="M766.17,1179.52l11.93,9.69s32.62-11.7,40,27.07c0,0,2,16.52-8.51,16.55s-6.15-1.81-21-1.37-27.1-7.38-29.27-19.41l-7.09-10.19Z"/><path class="cls-13" d="M764.82,1200.31c9.52-9.94,8.75-17.28,8.75-17.28s-110.17-90.2-121.35-97.55c-7.61-5-88.75-76.94-126.68-120.79-18.81-21.75-42.11-13.32-68.78-5.67l-21.95,6.3C408.3,972.93,401.4,1010,423.15,1028c61.27,50.75,163.19,107.83,182.26,119.82,47.34,29.78,140,65.17,140,65.17S756.65,1208.84,764.82,1200.31Z"/><path class="cls-14" d="M890.55,1754.5s26.74,20,67.71,9.44c0,0,33-7.52,40.28,9,0,0-50.66,25.74-63.48,32.78-9.66,5.3-19.75,13.68-26.87,20.15a13.29,13.29,0,0,1-19.24-1.49c-2.23-2.74-4.78-6-7.57-9.79-7.81-10.58-26-44.78-26-44.78Z"/><circle class="cls-15" cx="772.45" cy="1022.63" r="186.94" transform="translate(-496.87 845.72) rotate(-45)"/><circle class="cls-16" cx="756.14" cy="1022.63" r="186.94" transform="translate(-501.64 834.19) rotate(-45)"/><path class="cls-17" d="M756.14,1195.17a170.32,170.32,0,1,1,120.44-49.89A169.21,169.21,0,0,1,756.14,1195.17Zm0-330.49c-88.32,0-160.16,71.85-160.16,160.16S667.82,1185,756.14,1185s160.16-71.84,160.16-160.16S844.45,864.68,756.14,864.68Z"/><path class="cls-17" d="M779.59,1074.27a28.07,28.07,0,0,0-.41-9.89,20.37,20.37,0,0,0-4.18-8.21,38.86,38.86,0,0,0-8.36-7.38,102.43,102.43,0,0,0-13-7.25,269.63,269.63,0,0,1-23.93-13.15,84.86,84.86,0,0,1-17.89-14.57,49.8,49.8,0,0,1-10.57-17.74q-3.35-9.86-1.82-22.7a51.25,51.25,0,0,1,6.37-19.87A47.23,47.23,0,0,1,719,938.85a58.91,58.91,0,0,1,18.89-9,78.88,78.88,0,0,1,23.6-2.72l3.33-28.08,22.6,2.68-3.38,28.47a70.82,70.82,0,0,1,21.27,9,53.44,53.44,0,0,1,23.8,34.16,71,71,0,0,1,.93,24.12l-40.81-4.84q1.86-15.75-4.2-24.38t-17.78-10a30.63,30.63,0,0,0-11.16.48,20.6,20.6,0,0,0-8.13,4,19.36,19.36,0,0,0-5.24,6.77,28.37,28.37,0,0,0-2.49,8.88,26.19,26.19,0,0,0,.37,9,19.37,19.37,0,0,0,4,7.86,38.93,38.93,0,0,0,8.43,7.38,131.88,131.88,0,0,0,13.47,7.79q13.1,6.74,23.68,13.45A85.66,85.66,0,0,1,808,1038.47a50.68,50.68,0,0,1,10.56,17.82q3.35,9.84,1.83,22.57A51.4,51.4,0,0,1,814,1099.1a46.79,46.79,0,0,1-13.25,14.53,57.13,57.13,0,0,1-19,8.66,85.36,85.36,0,0,1-23.71,2.5l-3.09,26.11-22.46-2.67,3.08-26a95.36,95.36,0,0,1-22.06-7.81,60.37,60.37,0,0,1-18.07-13.65A54.21,54.21,0,0,1,684,1080.5q-3.75-11.88-1.88-27.63l40.82,4.85q-1.11,9.3.77,15.85a26.21,26.21,0,0,0,5.8,10.8,25.6,25.6,0,0,0,9.34,6.43,43.53,43.53,0,0,0,11.19,2.86,36.56,36.56,0,0,0,11.85-.33,24.35,24.35,0,0,0,9-3.72,19.49,19.49,0,0,0,5.94-6.55A23.85,23.85,0,0,0,779.59,1074.27Z"/><path class="cls-18" d="M906.25,1744.32S890,1781.86,852.39,1775c0,0-76.69-63.33-129.29-129.12-17.09-21.37-31.64-43-40.18-62.79-34.89-80.77-129-201.22-188.9-262.27l149.77-54.18s48,96.5,111.8,215C801.59,1567,855.81,1663.88,906.25,1744.32Z"/><path class="cls-19" d="M755.59,1481.63,723.1,1645.84c-17.09-21.37-31.64-43-40.18-62.79-34.89-80.77-129-201.22-188.9-262.27l149.77-54.18S691.76,1363.1,755.59,1481.63Z"/><path class="cls-14" d="M633.17,1776.28s-1.63,30,34.68,34c0,0,22.48.57,22.53,19.64l-109.36,0s-1-7.79-1.71-24.26c-.57-12.65,12.26-45.72,12.26-45.72Z"/><path class="cls-18" d="M594.67,1266.6s66.72,73.31,109.07,205.39c23,71.87-42.24,252.55-55,315.32,0,0-43.79,3.72-73.74-7.86,0,0-2.27-129.66,15.24-229.59,9.8-55.93-87.85-119.62-130.52-220.68-29-68.75,6.29-67.58,49.69-69.23Z"/><path class="cls-2" d="M517.65,939.51c-37.13,21-113.12,1.63-113.12,1.63s30.86-35.28,16.84-92.1l29.14,14.8,31.31,15.9a257.35,257.35,0,0,1,3.43,28.06c.36,4.64.68,9.82.9,15.49A97.55,97.55,0,0,1,517.65,939.51Z"/><path class="cls-20" d="M653.76,1262.81c0,6.52-7.51,9.65-9.11,10-15,2.74-56.78,19-94.44,22.73-31.71,3.32-61.15.17-93.49-6.33-4.29-.86-14.34-3.57-15.05-7.67-.9-4.48-124.76-252.52-28.47-359.06,2.26-2.5,21.27,2,38.65,6.13A71.46,71.46,0,0,0,495.78,925l16.3,8.57c20,11.16,57.9,50.79,62.33,81.89,2.25,15.81,11.29,27.53,13.91,41.44q1.45,7.71,3,15.07,3,14.41,6.09,27.45c5.67,23.52,11.64,43.77,17.51,61.26,6.25,18.57,12.38,34,17.85,46.94,7.1,16.76,13.1,29.28,16.85,38.87C652.25,1253.22,653.76,1258.52,653.76,1262.81Z"/><path class="cls-21" d="M649.6,1246.47c-174.86-82.38-235.41-240.57-235.41-240.57S556.25,1058.31,591.3,1072q3,14.41,6.09,27.45c5.67,23.52,11.64,43.77,17.51,61.26,6.25,18.57,12.38,34,17.85,46.94C639.85,1224.36,645.85,1236.88,649.6,1246.47Z"/><path class="cls-2" d="M751.9,1198.73l15.11,5.54s30.26-21.4,49.1,13.4c0,0,6.81,15.2-4,18.5s-6.87.19-22,5.24-30.09,1.41-35.82-9.41L744,1224.46Z"/><path class="cls-20" d="M764.34,1220.09c5.58-14.57,8.13-21.17,8.13-21.17s-114.17-93.07-125.8-101.05c-7.93-5.44-86.85-64.43-125.32-110.4a80.53,80.53,0,0,0-78.29-27.13l-24,5c-28.94,6.07-38.34,42.7-15.89,61.94,63.23,54.21,169.87,117.07,189.75,130.15,49.36,32.46,158.54,78,158.54,78S760,1231.54,764.34,1220.09Z"/><path class="cls-4" d="M485.25,907.8c-36.5,2.05-60.24-28.09-60.24-28.09s16.5-9.15,25.5-15.87l31.31,15.9A257.35,257.35,0,0,1,485.25,907.8Z"/><path class="cls-2" d="M500.8,870.32s-55.31,39.69-79.49,4.87S373.69,822,408,795.22s50.46-18.35,61.36-8.69S514.57,859.1,500.8,870.32Z"/><path class="cls-19" d="M475.18,755.08a89,89,0,0,0-6.44-22.81s-3.47,14.38-29.75,12.4-67.92,2.58-81.81,32.53q-1.32,2.85-2.37,5.87c-2.51-6.64-3.12-16.59-3.12-16.59-5,12.89,0,29,0,29h0c-.08.47-.14.94-.21,1.41-5.8,4.9-10.67,20.14-10.67,20.14,1.75-4.24,6-7,9.82-8.73-.11,23.3,9.34,46.08,25.92,52.86,24.25,9.92,24.06,2.35,48.45,18.53,0,0,6.54-8.12,2.08-13.57s-21.32-13.39-11.9-21.32,12.89,1,16.36-4.46S417.67,819,440,804.16,477.16,768.47,475.18,755.08Z"/><path class="cls-2" d="M2524.29,1147.74a15,15,0,0,1,5.28,8.38c1.1,4.4,0,11.19-.38,16.59-.74,11.5,15.17,28.39,25.45,34.27s0-24.48,0-31.82,2.94-12.73-5.38-29.37S2524.29,1147.74,2524.29,1147.74Z"/><path class="cls-5" d="M2292.32,866.7c-3-38.63,38.94-65.11,72.07-45,.68.41,1.35.83,2,1.26,49.6,31.93,144.86,161.77,159,187.61,14.7,26.93,34.13,141.88,34.13,141.88s-26.86,9.83-39.43-.36c0,0-42-99.7-57.47-116.8-16.27-18-166.83-101.24-168.26-136.55C2294,889.39,2293.22,878.16,2292.32,866.7Z"/><path class="cls-22" d="M2591.84,1738.72s20,18.25,16.09,31.22-21.95,21.62-24.39,37.47-12.19,24.49-21,24.49h-41.86s-6.47-11.15,9.14-14.51,21.5-22,20.52-39.28,1.47-40.35,1.47-40.35l33.17-7.68Z"/><path class="cls-22" d="M2346.47,1785.93s3.59,41.54-5.19,45.86l-112.36-.23s0-13,18-15.85,49.76-13.45,55.12-37S2346.47,1785.93,2346.47,1785.93Z"/><path class="cls-20" d="M2251.6,1199.17s5.93,72.82,12.9,160.34c9.47,118.89,20.85,264.93,22,292.6,1.94,48,9.76,124.88,9.76,124.88s18.52,18.26,55.61,10.56c0,0,33-109.7,42.48-225.76.15-1.9.29-3.82.44-5.74,8.78-118.15,22.43-367,22.43-367Z"/><path class="cls-21" d="M2251.6,1199.17s5.93,72.82,12.9,160.34l129.83,202.28c.15-1.9.29-3.82.44-5.74,8.78-118.15,22.43-367,22.43-367Z"/><path class="cls-20" d="M2278.67,1207.82s106.83,263.69,177.07,387.61,92.19,158.51,92.19,158.51,40.25-15.85,43.91-26.66c0,0-26.86-239.23-73.91-297.55-26.57-33-57.8-131.85-59.26-166.43s-9.51-103-9.51-103Z"/><path class="cls-2" d="M2370.78,812.27s-71.57,36.3-113.49,24.19a92.68,92.68,0,0,1,16.26-15.56,23,23,0,0,0,8.92-21.9c-.42-2.61-.78-5.07-1.06-7.37a155.12,155.12,0,0,1-1.74-24.33l27-20.37,26-21.51C2331.76,784.47,2370.78,812.27,2370.78,812.27Z"/><path class="cls-3" d="M2441.88,1181.14c-28.9,17.49-56.26,30.64-88.28,38-37.76,9-84.18,6.32-99.71,8.68a6.46,6.46,0,0,1-4.53-1.14c-1.22-.63-8.07-46.7-14.93-104.84-.31-2.34-.62-4.7-.76-7.07l-.1-.78c-2.67-22.73-5-46.61-7-70.54-1.65-18.62-3-37-4-54.34-1.19-21.64-1.68-41.52-1.19-57.88.22-7.48.65-14.2,1.32-20,4.09-34,18.3-58.34,33.56-76.41l17.62-14.15c14.68.93,26.67-2,40.81-11.31,15.46-10.18,32.14-21.12,35.29-19.29,23.68,13,43,46.54,56.74,90.9,7.9,25.53,14,54.5,17.84,85.18,1.25,9.52,2.31,19.29,3.12,29,.16,1.8.29,3.6.44,5.37,1.86,26.59,4.89,51.51,8.26,73.77,4.53,30,9.68,55.15,13.32,72.85,1.83,9,3.22,16,4.05,21C2454.49,1172.47,2445.77,1178.71,2441.88,1181.14Z"/><path class="cls-4" d="M2333.6,748s-17.61,33.65-52.19,43.65c-3.13-17.86-2.21-45.92-2.21-45.92l27.45,1.22Z"/><path class="cls-2" d="M2258.93,753.88s64.67,26.45,80.48-13.41,34.8-63.29-5.82-81.86-54.73-6.53-63.29,5.49S2242.51,746,2258.93,753.88Z"/><path class="cls-23" d="M2382.56,664.66c.77-.55,2.31-.8,5.48-.25a13,13,0,0,0-5.47-3c.35-4.5-.2-12.74-7.26-16.34a9.63,9.63,0,0,1,3,7.82c-6.63-10.91-23.73-21.67-76.17-29.46C2233,613.19,2245.4,661.79,2253,669s33-1.91,49.05,3.15,13.74,29.44,18.55,34,3.94-1.71,12.24-3.38,6.14,10.95,2.11,18.54,3.84,20.65,3.84,20.65l13-8.83c13-8.84,33.8-54.17,31.39-65.41C2383,666.68,2382.78,665.67,2382.56,664.66Z"/><path class="cls-5" d="M2342.7,935s-58.31,44.37-120.13,54.09c-1.19-21.64-1.68-41.52-1.19-57.88Z"/><path class="cls-2" d="M1997.59,781.85c-.59-1.22-.18-42.71-20.67-46-13.38-2.17-48-11.42-47.71,7.19.13,7.32,43.51,52.46,43.51,52.46Z"/><path class="cls-3" d="M2355,862.8c25.87,28.84,8.63,75.37-29.9,79.54-.79.08-1.58.16-2.37.22-58.8,4.77-226.08-43.13-249.23-55.94-38.43-21.26-104.32-88.49-104.32-88.49s15.38-24.12,31.55-23.66c0,0,88.2,56.18,119.77,62.9,21.31,4.54,190.85-26,213.44,1.23C2339.9,845.78,2347.31,854.24,2355,862.8Z"/><path class="cls-2" d="M2554.15,1158.33s3.14,6.91,5.36,12.3,3.45,15.42,1.74,14.44-7.83-8.13-9.79-11.77S2554.15,1158.33,2554.15,1158.33Z"/><g class="cls-24"><path class="cls-25" d="M1254.77,1312s-20.34-170.35-107.62-272c-11.6-13.51-33.8-4.91-33.43,12.89l0,.91C1114.88,1084.21,1212.61,1212.39,1254.77,1312Z"/><path class="cls-25" d="M1265.38,1360.79s-87-212.91-235.54-307.07c-9.06-5.74-21.33-3.66-27.4,5.18-4,5.76-5.74,14.75-1.3,28.79C1013,1125.14,1178.67,1251.19,1265.38,1360.79Z"/></g><path class="cls-25" d="M804.08,1426.46c8.55-88.74,156.22-86.58,156.22-86.58s122.46,131.94,151.34,130.67S1029,1337.3,1029,1337.3c53.89-14.62,204.94,28.8,204.94,28.8s20.61,174.71,48.29,166.37-26.15-153.77-26.15-153.77c55.73,6.89,115.74,60.34,115.74,60.34,79,90.22-40.94,187-40.94,187s8.45,60.39,57.29,123h0s10.54,11.3,22.73,31.49l-14.45,2.46c-1.84-3.68-3.78-7.21-5.83-10.56a.13.13,0,0,0,0-.06l-.09-.14c-1.37-2.07-3.34-5-5.77-8.58h0v0c-5.89-7.89-10-13.77-12.63-18.06l0,0c-17.85-24.89-42.92-57-56.9-62.26a28.29,28.29,0,0,0,2-7.16l-2,7.16c-15.73,57.23-137.95,87.11-209.28,84.69s-44.6-27-12.85-64.84,110.94-42.77,131.81-59-14.81-22.94-60.16-11.59-60.52,61.21-133.55,80.9-153.33-110.31-153.33-110.31c54,7.19,141.06-36.72,141.59-55S884.08,1554.71,862,1553,795.53,1515.21,804.08,1426.46Z"/><path class="cls-25" d="M2233.3,1408.36c1.42-65.58-106.67-76.76-106.67-76.76s-100.88,85.82-121.87,82.39,71.92-90.22,71.92-90.22c-38.11-15.34-152.24,3.34-152.24,3.34s-30.17,125.88-49.67,117.39,32.4-110.1,32.4-110.1c-41.32.22-89.79,34.08-89.79,34.08-65.52,59.11,13.76,140.19,13.76,140.19s-11.4,43.4-52.5,84.93h0s-8.68,7.35-19.33,21l10.35,3q2.49-3.8,5.17-7.21l0,0a.86.86,0,0,0,.07-.1c1.18-1.39,2.87-3.36,5-5.76h0c5-5.26,8.46-9.21,10.79-12.11v0c15.2-16.64,36.3-37.94,47-40.58a20.67,20.67,0,0,1-.81-5.39c.26,1.72.53,3.51.81,5.39,6.55,43.18,93.28,75.58,145.61,80s34.92-15.86,15-46.27-77.36-40.84-91.21-54.54,12.81-15.48,45-3.27,38.93,50,90.6,70.66S2164.2,1531,2164.2,1531c-40,.59-99.9-39-98.7-52.42s98.26,16.54,114.56,17.21S2231.88,1474,2233.3,1408.36Z"/><path class="cls-5" d="M1168.23,1398.06v83c0,15.89-13.6,28.89-30.2,28.89h-62.18c-16.61,0-30.21-13-30.21-28.89v-83c0-15.89,13.6-28.89,30.21-28.89H1138C1154.63,1369.17,1168.23,1382.17,1168.23,1398.06Z"/><path class="cls-3" d="M1168.23,1398.06v46.24c0,15.88-13.6,28.89-30.2,28.89h-62.18c-16.61,0-30.21-13-30.21-28.89v-46.24c0-15.89,13.6-28.89,30.21-28.89H1138C1154.63,1369.17,1168.23,1382.17,1168.23,1398.06Z"/><path class="cls-5" d="M1857.16,1439.55a294.39,294.39,0,0,1-25.48,119.93c-49.2,110.76-164.23,189-297.44,189h-92.31c-5.54,0-11-.13-16.51-.4a329.91,329.91,0,0,1-180.49-64.18,317.07,317.07,0,0,1-80.88-87.45,295.42,295.42,0,0,1-19.54-276.78c49.18-110.74,164.21-188.93,297.42-188.93h92.31c121.14,0,227.24,64.66,282.48,159.67A295.93,295.93,0,0,1,1857.16,1439.55Z"/><path class="cls-5" d="M1588.89,1617.3l-30.12,187.07c-4,14.49,7.43,28.68,23.1,28.68H1661c17,0,32.52-9.07,40.29-23.5l123-234.71Z"/><path class="cls-5" d="M1409.72,1833.05h-79.16c-17,0-32.51-9.06-40.28-23.5l-76.09-128.49-50.14-84.66,244.61,24.11,8.84,67.25,7.92,60.27,7.4,56.34C1436.82,1818.86,1425.39,1833.05,1409.72,1833.05Z"/><path class="cls-3" d="M1808.55,1403.85c-65.18,179.29-126.86,275.14-376.68,283.49q-7.27.24-14.37.42c-71.31,1.87-129.26-.51-172.57-3.91-11.24-.88-21.49-1.83-30.74-2.79l-50.14-84.66a295.42,295.42,0,0,1-19.54-276.78c49.18-110.74,164.21-188.93,297.42-188.93h92.31c121.14,0,227.24,64.66,282.48,159.67C1824.37,1326,1818.35,1376.9,1808.55,1403.85Z"/><path class="cls-3" d="M1403.86,1208.07h-127c-12.8,0-23.19-7.44-23.19-16.61V1025.59a13,13,0,0,1,2.54-7.64c6.21-8.62,22.53-12.18,34.68-5.59,48.23,26.14,127.23,83,136.12,178C1427.9,1199.93,1417.28,1208.07,1403.86,1208.07Z"/><path class="cls-5" d="M1282,1208.07h-5.17c-12.8,0-23.19-7.44-23.19-16.61V1025.59a13,13,0,0,1,2.54-7.64,16.65,16.65,0,0,1,1.57,1.46c27.59,29.38,67.35,87.1,56.15,167.94C1312.29,1199.11,1298.51,1208.07,1282,1208.07Z"/><path class="cls-18" d="M1215.08,1319c0-10,8.47-18.11,18.92-18.11s18.92,8.11,18.92,18.11-8.47,18.09-18.92,18.09S1215.08,1329,1215.08,1319Z"/><path class="cls-16" d="M1596.43,1803.44v19.34a6.59,6.59,0,0,0,1.52,4.16,8.76,8.76,0,0,0,4.16,2.79,9.69,9.69,0,0,0,1.63.39,11.48,11.48,0,0,0,1.57.12h366.91c4.73,0,8.63-3.15,8.87-7.08,0-.12,0-.25,0-.38v-19.34c0-.13,0-.26,0-.39-.24-3.92-4.14-7.07-8.87-7.07H1605.31a10.09,10.09,0,0,0-1.57.12,9.67,9.67,0,0,0-1.63.38,8.91,8.91,0,0,0-4.16,2.79A6.64,6.64,0,0,0,1596.43,1803.44Z"/><path class="cls-26" d="M1776.6,1830.24h196.57a7.77,7.77,0,0,0,7.92-7.08c0-.12,0-.25,0-.38v-19.34c0-.13,0-.26,0-.39a7.77,7.77,0,0,0-7.92-7.07H1800.74A60,60,0,0,1,1776.6,1830.24Z"/><rect class="cls-17" x="1641.07" y="1795.98" width="4.17" height="34.25" transform="translate(3286.32 3626.22) rotate(180)"/><rect class="cls-17" x="1655.19" y="1795.98" width="4.17" height="34.25" transform="translate(3314.55 3626.22) rotate(180)"/><rect class="cls-17" x="1672.12" y="1795.98" width="4.17" height="34.25" transform="translate(3348.41 3626.22) rotate(180)"/><rect class="cls-17" x="1698.07" y="1795.98" width="4.17" height="34.25" transform="translate(3400.3 3626.22) rotate(180)"/><rect class="cls-17" x="1725.5" y="1795.98" width="4.17" height="34.25" transform="translate(3455.18 3626.22) rotate(180)"/><rect class="cls-17" x="1767.57" y="1795.98" width="4.17" height="34.25" transform="translate(3539.3 3626.22) rotate(180)"/><rect class="cls-17" x="1806.95" y="1795.98" width="4.17" height="34.25" transform="translate(3618.07 3626.22) rotate(180)"/><rect class="cls-17" x="1842.12" y="1795.98" width="4.17" height="34.25" transform="translate(3688.41 3626.22) rotate(180)"/><rect class="cls-17" x="1627.64" y="1795.98" width="4.17" height="34.25" transform="translate(3259.45 3626.22) rotate(180)"/><rect class="cls-17" x="1618.76" y="1795.98" width="4.17" height="34.25" transform="translate(3241.69 3626.22) rotate(180)"/><rect class="cls-17" x="1610.19" y="1795.98" width="4.17" height="34.25" transform="translate(3224.55 3626.22) rotate(180)"/><path class="cls-17" d="M1603.74,1796.1v34a11.48,11.48,0,0,0,1.57.12h2.6V1796h-2.6A10.09,10.09,0,0,0,1603.74,1796.1Z"/><path class="cls-17" d="M1598,1799.27v27.67a8.76,8.76,0,0,0,4.16,2.79v-33.25A8.91,8.91,0,0,0,1598,1799.27Z"/><path class="cls-16" d="M1635.66,1769.18v19.35a6.59,6.59,0,0,0,1.52,4.16,8.84,8.84,0,0,0,4.16,2.79,9.67,9.67,0,0,0,1.63.38,10.05,10.05,0,0,0,1.56.12h366.92c4.73,0,8.63-3.15,8.87-7.07,0-.13,0-.26,0-.38v-19.35c0-.13,0-.25,0-.38-.24-3.92-4.14-7.07-8.87-7.07H1644.53l-.7,0-.3,0-.33,0-.23,0a9.67,9.67,0,0,0-1.63.38l-.23.08-.22.08-.45.18-.25.12-.23.11-.42.23-.45.28-.35.23,0,0-.22.17a5.7,5.7,0,0,0-.64.56,1,1,0,0,0-.18.17l-.17.18c-.12.13-.23.25-.33.38A6.59,6.59,0,0,0,1635.66,1769.18Z"/><path class="cls-26" d="M1815.83,1796H2012.4a7.76,7.76,0,0,0,7.92-7.07c0-.13,0-.26,0-.38v-19.35c0-.13,0-.25,0-.38a7.76,7.76,0,0,0-7.92-7.07H1840l-.24.84A59.93,59.93,0,0,1,1815.83,1796Z"/><rect class="cls-17" x="1680.31" y="1761.73" width="4.17" height="34.25" transform="translate(3364.78 3557.71) rotate(180)"/><rect class="cls-17" x="1694.42" y="1761.73" width="4.17" height="34.25" transform="translate(3393.01 3557.71) rotate(180)"/><rect class="cls-17" x="1711.35" y="1761.73" width="4.17" height="34.25" transform="translate(3426.87 3557.71) rotate(180)"/><rect class="cls-17" x="1737.3" y="1761.73" width="4.17" height="34.25" transform="translate(3478.76 3557.71) rotate(180)"/><rect class="cls-17" x="1764.73" y="1761.73" width="4.17" height="34.25" transform="translate(3533.64 3557.71) rotate(180)"/><rect class="cls-17" x="1806.8" y="1761.73" width="4.17" height="34.25" transform="translate(3617.76 3557.71) rotate(180)"/><rect class="cls-17" x="1846.18" y="1761.73" width="4.17" height="34.25" transform="translate(3696.53 3557.71) rotate(180)"/><rect class="cls-17" x="1881.35" y="1761.73" width="4.17" height="34.25" transform="translate(3766.87 3557.71) rotate(180)"/><rect class="cls-17" x="1666.87" y="1761.73" width="4.17" height="34.25" transform="translate(3337.91 3557.71) rotate(180)"/><rect class="cls-17" x="1657.99" y="1761.73" width="4.17" height="34.25" transform="translate(3320.15 3557.71) rotate(180)"/><rect class="cls-17" x="1649.42" y="1761.73" width="4.17" height="34.25" transform="translate(3303.01 3557.71) rotate(180)"/><path class="cls-17" d="M1643,1761.85v34a10.05,10.05,0,0,0,1.56.12h2.61v-34.25h-2.61A10.05,10.05,0,0,0,1643,1761.85Z"/><path class="cls-17" d="M1637.18,1765v27.67a8.82,8.82,0,0,0,4.17,2.79v-33.25A8.82,8.82,0,0,0,1637.18,1765Z"/><path class="cls-16" d="M1616.7,1735.77v19.35a6.59,6.59,0,0,0,1.52,4.16,8.82,8.82,0,0,0,4.17,2.79,9.56,9.56,0,0,0,1.62.38,10.09,10.09,0,0,0,1.57.12h366.91a10.18,10.18,0,0,0,4.1-.84,7.61,7.61,0,0,0,4.74-5.9,1.84,1.84,0,0,0,0-.33c0-.13,0-.25,0-.38v-19.35c0-.12,0-.25,0-.38-.24-3.92-4.13-7.07-8.87-7.07H1625.58a10.09,10.09,0,0,0-1.57.12,9.56,9.56,0,0,0-1.62.38,8.82,8.82,0,0,0-4.17,2.79A6.59,6.59,0,0,0,1616.7,1735.77Z"/><path class="cls-26" d="M1796.88,1762.57h196.57a8.26,8.26,0,0,0,3.65-.84,7.49,7.49,0,0,0,4.23-5.9,1.84,1.84,0,0,0,0-.33c0-.13,0-.25,0-.38v-19.35c0-.12,0-.25,0-.38a7.75,7.75,0,0,0-7.91-7.07H1821a60.14,60.14,0,0,1-22.94,33.41Z"/><rect class="cls-17" x="1661.35" y="1728.32" width="4.17" height="34.25" transform="translate(3326.86 3490.89) rotate(180)"/><rect class="cls-17" x="1675.46" y="1728.32" width="4.17" height="34.25" transform="translate(3355.1 3490.89) rotate(180)"/><rect class="cls-17" x="1692.39" y="1728.32" width="4.17" height="34.25" transform="translate(3388.95 3490.89) rotate(180)"/><rect class="cls-17" x="1718.34" y="1728.32" width="4.17" height="34.25" transform="translate(3440.85 3490.89) rotate(180)"/><rect class="cls-17" x="1745.77" y="1728.32" width="4.17" height="34.25" transform="translate(3495.72 3490.89) rotate(180)"/><rect class="cls-17" x="1787.84" y="1728.32" width="4.17" height="34.25" transform="translate(3579.85 3490.89) rotate(180)"/><rect class="cls-17" x="1827.22" y="1728.32" width="4.17" height="34.25" transform="translate(3658.62 3490.89) rotate(180)"/><rect class="cls-17" x="1862.39" y="1728.32" width="4.17" height="34.25" transform="translate(3728.95 3490.89) rotate(180)"/><rect class="cls-17" x="1647.91" y="1728.32" width="4.17" height="34.25" transform="translate(3299.99 3490.89) rotate(180)"/><rect class="cls-17" x="1639.03" y="1728.32" width="4.17" height="34.25" transform="translate(3282.24 3490.89) rotate(180)"/><rect class="cls-17" x="1630.46" y="1728.32" width="4.17" height="34.25" transform="translate(3265.09 3490.89) rotate(180)"/><path class="cls-17" d="M1624,1728.44v34a10.09,10.09,0,0,0,1.57.12h2.6v-34.25h-2.6A10.09,10.09,0,0,0,1624,1728.44Z"/><path class="cls-17" d="M1618.22,1731.61v27.67a8.82,8.82,0,0,0,4.17,2.79v-33.25A8.82,8.82,0,0,0,1618.22,1731.61Z"/><path class="cls-16" d="M1607.91,1701.52v19.34a6.64,6.64,0,0,0,1.52,4.17,8.94,8.94,0,0,0,4.17,2.79,9.56,9.56,0,0,0,1.62.38,10.09,10.09,0,0,0,1.57.12h366.92c4.73,0,8.62-3.15,8.86-7.07,0-.13,0-.26,0-.39v-19.34c0-.13,0-.26,0-.38-.22-3.63-3.57-6.6-7.81-7a9.24,9.24,0,0,0-1-.06H1616.79a11.48,11.48,0,0,0-1.57.12,9.57,9.57,0,0,0-1.62.39,8.79,8.79,0,0,0-4.17,2.79A6.59,6.59,0,0,0,1607.91,1701.52Z"/><path class="cls-26" d="M1788.09,1728.32h196.57a7.75,7.75,0,0,0,7.91-7.07c0-.13,0-.26,0-.39v-19.34c0-.13,0-.26,0-.38a7.68,7.68,0,0,0-7-7,7,7,0,0,0-.93-.06H1812.23l0,.06A60.08,60.08,0,0,1,1788.09,1728.32Z"/><rect class="cls-17" x="1652.56" y="1694.06" width="4.17" height="34.25" transform="translate(3309.29 3422.38) rotate(180)"/><rect class="cls-17" x="1666.67" y="1694.06" width="4.17" height="34.25" transform="translate(3337.52 3422.38) rotate(180)"/><rect class="cls-17" x="1683.6" y="1694.06" width="4.17" height="34.25" transform="translate(3371.37 3422.38) rotate(180)"/><rect class="cls-17" x="1709.55" y="1694.06" width="4.17" height="34.25" transform="translate(3423.27 3422.38) rotate(180)"/><rect class="cls-17" x="1736.99" y="1694.06" width="4.17" height="34.25" transform="translate(3478.14 3422.38) rotate(180)"/><rect class="cls-17" x="1779.05" y="1694.06" width="4.17" height="34.25" transform="translate(3562.27 3422.38) rotate(180)"/><rect class="cls-17" x="1818.43" y="1694.06" width="4.17" height="34.25" transform="translate(3641.04 3422.38) rotate(180)"/><rect class="cls-17" x="1853.6" y="1694.06" width="4.17" height="34.25" transform="translate(3711.37 3422.38) rotate(180)"/><rect class="cls-17" x="1639.12" y="1694.06" width="4.17" height="34.25" transform="translate(3282.41 3422.38) rotate(180)"/><rect class="cls-17" x="1630.24" y="1694.06" width="4.17" height="34.25" transform="translate(3264.66 3422.38) rotate(180)"/><rect class="cls-17" x="1621.67" y="1694.06" width="4.17" height="34.25" transform="translate(3247.51 3422.38) rotate(180)"/><path class="cls-17" d="M1615.22,1694.18v34a10.09,10.09,0,0,0,1.57.12h2.6v-34.26h-2.6A10.09,10.09,0,0,0,1615.22,1694.18Z"/><path class="cls-17" d="M1609.43,1697.36V1725a8.79,8.79,0,0,0,4.17,2.79v-33.24A8.79,8.79,0,0,0,1609.43,1697.36Z"/><path class="cls-16" d="M1634.89,1667.32v19.34a6.64,6.64,0,0,0,1.52,4.17,8.91,8.91,0,0,0,4.16,2.79,9.67,9.67,0,0,0,1.63.38l.51.06.29,0,.29,0h367.39c4.73,0,8.63-3.15,8.87-7.07,0-.13,0-.26,0-.39v-19.34c0-.13,0-.26,0-.38l0-.32c-.35-3.15-3.08-5.76-6.65-6.53l-.27,0a11,11,0,0,0-1.92-.18H1643.76c-.27,0-.53,0-.79,0l-.35,0h0l-.41,0a9.69,9.69,0,0,0-1.63.39,8.76,8.76,0,0,0-4.16,2.79A6.59,6.59,0,0,0,1634.89,1667.32Z"/><path class="cls-26" d="M1815.06,1694.12h196.57a7.77,7.77,0,0,0,7.92-7.07c0-.13,0-.26,0-.39v-19.34c0-.13,0-.26,0-.38l0-.32a7.64,7.64,0,0,0-6.14-6.57l-.34-.07a9.36,9.36,0,0,0-1.41-.12H1839.2a2.33,2.33,0,0,1-.07.25,60,60,0,0,1-24,34Z"/><rect class="cls-17" x="1679.53" y="1659.86" width="4.17" height="34.25" transform="translate(3363.24 3353.98) rotate(180)"/><rect class="cls-17" x="1693.65" y="1659.86" width="4.17" height="34.25" transform="translate(3391.47 3353.98) rotate(180)"/><rect class="cls-17" x="1710.58" y="1659.86" width="4.17" height="34.25" transform="translate(3425.33 3353.98) rotate(180)"/><rect class="cls-17" x="1736.53" y="1659.86" width="4.17" height="34.25" transform="translate(3477.22 3353.98) rotate(180)"/><rect class="cls-17" x="1763.96" y="1659.86" width="4.17" height="34.25" transform="translate(3532.09 3353.98) rotate(180)"/><rect class="cls-17" x="1806.03" y="1659.86" width="4.17" height="34.25" transform="translate(3616.22 3353.98) rotate(180)"/><rect class="cls-17" x="1845.41" y="1659.86" width="4.17" height="34.25" transform="translate(3694.99 3353.98) rotate(180)"/><rect class="cls-17" x="1880.58" y="1659.86" width="4.17" height="34.25" transform="translate(3765.32 3353.98) rotate(180)"/><rect class="cls-17" x="1666.1" y="1659.86" width="4.17" height="34.25" transform="translate(3336.36 3353.98) rotate(180)"/><rect class="cls-17" x="1657.22" y="1659.86" width="4.17" height="34.25" transform="translate(3318.61 3353.98) rotate(180)"/><rect class="cls-17" x="1648.65" y="1659.86" width="4.17" height="34.25" transform="translate(3301.47 3353.98) rotate(180)"/><path class="cls-17" d="M1642.2,1660v34a11.45,11.45,0,0,0,1.56.12h2.61v-34.26h-2.61A10.05,10.05,0,0,0,1642.2,1660Z"/><path class="cls-17" d="M1636.41,1663.16v27.66a8.76,8.76,0,0,0,4.16,2.79v-33.24A8.76,8.76,0,0,0,1636.41,1663.16Z"/><path class="cls-16" d="M1635.66,1633.31v19.34a6.59,6.59,0,0,0,1.52,4.16,8.76,8.76,0,0,0,4.16,2.79,9.11,9.11,0,0,0,1.27.33h0l.35.06a10.05,10.05,0,0,0,1.56.12h366.92a8.66,8.66,0,0,0,1.15-.07,3.32,3.32,0,0,0,.44-.06c4-.6,7.07-3.47,7.28-7,0-.12,0-.25,0-.38v-19.34c0-.13,0-.26,0-.39-.24-3.92-4.14-7.07-8.87-7.07H1644.53c-.23,0-.47,0-.7,0l-.3,0-.33,0-.23,0a8.81,8.81,0,0,0-1.63.39l-.23.07-.22.09-.45.18-.48.23-.42.22-.45.29-.35.23,0,0-.22.17a6.84,6.84,0,0,0-.64.55l-.18.18-.17.18a3.9,3.9,0,0,0-.33.38A6.59,6.59,0,0,0,1635.66,1633.31Z"/><path class="cls-26" d="M1815.83,1660.11H2012.4l.47,0a4.38,4.38,0,0,0,.51,0,7.7,7.7,0,0,0,6.94-7c0-.12,0-.25,0-.38v-19.34c0-.13,0-.26,0-.39a7.76,7.76,0,0,0-7.92-7.07H1840l-.24.85a60,60,0,0,1-23.55,33.16Z"/><rect class="cls-17" x="1680.31" y="1625.86" width="4.17" height="34.25" transform="translate(3364.78 3285.96) rotate(180)"/><rect class="cls-17" x="1694.42" y="1625.86" width="4.17" height="34.25" transform="translate(3393.01 3285.96) rotate(180)"/><rect class="cls-17" x="1711.35" y="1625.86" width="4.17" height="34.25" transform="translate(3426.87 3285.96) rotate(180)"/><rect class="cls-17" x="1737.3" y="1625.86" width="4.17" height="34.25" transform="translate(3478.76 3285.96) rotate(180)"/><rect class="cls-17" x="1764.73" y="1625.86" width="4.17" height="34.25" transform="translate(3533.64 3285.96) rotate(180)"/><rect class="cls-17" x="1806.8" y="1625.86" width="4.17" height="34.25" transform="translate(3617.76 3285.96) rotate(180)"/><rect class="cls-17" x="1846.18" y="1625.86" width="4.17" height="34.25" transform="translate(3696.53 3285.96) rotate(180)"/><rect class="cls-17" x="1881.35" y="1625.86" width="4.17" height="34.25" transform="translate(3766.87 3285.96) rotate(180)"/><rect class="cls-17" x="1666.87" y="1625.86" width="4.17" height="34.25" transform="translate(3337.91 3285.96) rotate(180)"/><rect class="cls-17" x="1657.99" y="1625.86" width="4.17" height="34.25" transform="translate(3320.15 3285.96) rotate(180)"/><rect class="cls-17" x="1649.42" y="1625.86" width="4.17" height="34.25" transform="translate(3303.01 3285.96) rotate(180)"/><path class="cls-17" d="M1643,1626v34a10.05,10.05,0,0,0,1.56.12h2.61v-34.26h-2.61A10.05,10.05,0,0,0,1643,1626Z"/><path class="cls-17" d="M1637.18,1629.15v27.66a8.75,8.75,0,0,0,4.17,2.79v-33.24A8.75,8.75,0,0,0,1637.18,1629.15Z"/><path class="cls-16" d="M1616.7,1599.9v19.34a6.64,6.64,0,0,0,1.52,4.17,8.89,8.89,0,0,0,4.17,2.79,9.56,9.56,0,0,0,1.62.38,10.09,10.09,0,0,0,1.57.12h366.91a10.19,10.19,0,0,0,4.1-.85,7.6,7.6,0,0,0,4.74-5.89,1.84,1.84,0,0,0,0-.33c0-.13,0-.26,0-.39V1599.9c0-.13,0-.26,0-.38-.24-3.93-4.13-7.08-8.87-7.08H1625.58a11.48,11.48,0,0,0-1.57.12,9.57,9.57,0,0,0-1.62.39,8.75,8.75,0,0,0-4.17,2.79A6.59,6.59,0,0,0,1616.7,1599.9Z"/><path class="cls-26" d="M1796.88,1626.7h196.57a8.27,8.27,0,0,0,3.65-.85,7.48,7.48,0,0,0,4.23-5.89,1.84,1.84,0,0,0,0-.33c0-.13,0-.26,0-.39V1599.9c0-.13,0-.26,0-.38a7.75,7.75,0,0,0-7.91-7.08H1821a60.11,60.11,0,0,1-22.94,33.41Z"/><rect class="cls-17" x="1661.35" y="1592.45" width="4.17" height="34.25" transform="translate(3326.86 3219.15) rotate(180)"/><rect class="cls-17" x="1675.46" y="1592.45" width="4.17" height="34.25" transform="translate(3355.1 3219.15) rotate(180)"/><rect class="cls-17" x="1692.39" y="1592.45" width="4.17" height="34.25" transform="translate(3388.95 3219.15) rotate(180)"/><rect class="cls-17" x="1718.34" y="1592.45" width="4.17" height="34.25" transform="translate(3440.85 3219.15) rotate(180)"/><rect class="cls-17" x="1745.77" y="1592.45" width="4.17" height="34.25" transform="translate(3495.72 3219.15) rotate(180)"/><rect class="cls-17" x="1787.84" y="1592.45" width="4.17" height="34.25" transform="translate(3579.85 3219.15) rotate(180)"/><rect class="cls-17" x="1827.22" y="1592.45" width="4.17" height="34.25" transform="translate(3658.62 3219.15) rotate(180)"/><rect class="cls-17" x="1862.39" y="1592.45" width="4.17" height="34.25" transform="translate(3728.95 3219.15) rotate(180)"/><rect class="cls-17" x="1647.91" y="1592.45" width="4.17" height="34.25" transform="translate(3299.99 3219.15) rotate(180)"/><rect class="cls-17" x="1639.03" y="1592.45" width="4.17" height="34.25" transform="translate(3282.24 3219.15) rotate(180)"/><rect class="cls-17" x="1630.46" y="1592.45" width="4.17" height="34.25" transform="translate(3265.09 3219.15) rotate(180)"/><path class="cls-17" d="M1624,1592.56v34a10.09,10.09,0,0,0,1.57.12h2.6v-34.26h-2.6A11.48,11.48,0,0,0,1624,1592.56Z"/><path class="cls-17" d="M1618.22,1595.74v27.67a8.89,8.89,0,0,0,4.17,2.79V1593A8.75,8.75,0,0,0,1618.22,1595.74Z"/><path class="cls-16" d="M1586.72,1565.64V1585a6.59,6.59,0,0,0,1.52,4.16,8.84,8.84,0,0,0,4.16,2.79,9.67,9.67,0,0,0,1.63.38,10.05,10.05,0,0,0,1.56.12h366.92c4.73,0,8.63-3.14,8.87-7.07,0-.13,0-.25,0-.38v-19.35c0-.12,0-.25,0-.38-.22-3.62-3.57-6.59-7.82-7-.34,0-.7,0-1,0H1595.59a10.05,10.05,0,0,0-1.56.12,9.67,9.67,0,0,0-1.63.38,8.84,8.84,0,0,0-4.16,2.79A6.59,6.59,0,0,0,1586.72,1565.64Z"/><path class="cls-26" d="M1766.89,1592.44h196.57a7.76,7.76,0,0,0,7.92-7.07c0-.13,0-.25,0-.38v-19.35c0-.12,0-.25,0-.38a7.71,7.71,0,0,0-7-7c-.3,0-.62,0-.94,0H1791a.43.43,0,0,1,0,0A60.09,60.09,0,0,1,1766.89,1592.44Z"/><rect class="cls-17" x="1631.36" y="1558.19" width="4.17" height="34.25" transform="translate(3266.89 3150.64) rotate(180)"/><rect class="cls-17" x="1645.48" y="1558.19" width="4.17" height="34.25" transform="translate(3295.12 3150.64) rotate(180)"/><rect class="cls-17" x="1662.4" y="1558.19" width="4.17" height="34.25" transform="translate(3328.98 3150.64) rotate(180)"/><rect class="cls-17" x="1688.35" y="1558.19" width="4.17" height="34.25" transform="translate(3380.87 3150.64) rotate(180)"/><rect class="cls-17" x="1715.79" y="1558.19" width="4.17" height="34.25" transform="translate(3435.75 3150.64) rotate(180)"/><rect class="cls-17" x="1757.85" y="1558.19" width="4.17" height="34.25" transform="translate(3519.88 3150.64) rotate(180)"/><rect class="cls-17" x="1797.24" y="1558.19" width="4.17" height="34.25" transform="translate(3598.64 3150.64) rotate(180)"/><rect class="cls-17" x="1832.41" y="1558.19" width="4.17" height="34.25" transform="translate(3668.98 3150.64) rotate(180)"/><rect class="cls-17" x="1617.92" y="1558.19" width="4.17" height="34.25" transform="translate(3240.02 3150.64) rotate(180)"/><rect class="cls-17" x="1609.05" y="1558.19" width="4.17" height="34.25" transform="translate(3222.27 3150.64) rotate(180)"/><rect class="cls-17" x="1600.48" y="1558.19" width="4.17" height="34.25" transform="translate(3205.12 3150.64) rotate(180)"/><path class="cls-17" d="M1594,1558.31v34a10.05,10.05,0,0,0,1.56.12h2.61v-34.25h-2.61A10.05,10.05,0,0,0,1594,1558.31Z"/><path class="cls-17" d="M1588.24,1561.48v27.67a8.84,8.84,0,0,0,4.16,2.79v-33.25A8.84,8.84,0,0,0,1588.24,1561.48Z"/><path class="cls-16" d="M1634.89,1531.44v19.35a6.59,6.59,0,0,0,1.52,4.16,8.84,8.84,0,0,0,4.16,2.79,9.67,9.67,0,0,0,1.63.38l.51.07.42,0,.2,0h367.35c4.73,0,8.63-3.14,8.87-7.07,0-.13,0-.25,0-.38v-19.35c0-.12,0-.25,0-.38-.24-3.92-4.14-7.07-8.87-7.07H1643.29c-.37,0-.73.06-1.09.11a9.67,9.67,0,0,0-1.63.38c-.26.09-.52.18-.77.29s-.31.13-.45.21l0,0-.45.24-.07,0a3.26,3.26,0,0,0-.4.24,7.14,7.14,0,0,0-.88.65l-.25.22,0,0-.15.14,0,0a2.23,2.23,0,0,0-.26.27c-.12.13-.24.26-.35.4A6.59,6.59,0,0,0,1634.89,1531.44Z"/><path class="cls-26" d="M1815.06,1558.24h196.57a7.76,7.76,0,0,0,7.92-7.07c0-.13,0-.25,0-.38v-19.35c0-.12,0-.25,0-.38a7.77,7.77,0,0,0-7.92-7.07H1839.2c-.07.26-.14.52-.22.79a59.94,59.94,0,0,1-23.84,33.41Z"/><rect class="cls-17" x="1679.53" y="1523.99" width="4.17" height="34.25" transform="translate(3363.24 3082.24) rotate(180)"/><rect class="cls-17" x="1693.65" y="1523.99" width="4.17" height="34.25" transform="translate(3391.47 3082.24) rotate(180)"/><rect class="cls-17" x="1710.58" y="1523.99" width="4.17" height="34.25" transform="translate(3425.33 3082.24) rotate(180)"/><rect class="cls-17" x="1736.53" y="1523.99" width="4.17" height="34.25" transform="translate(3477.22 3082.24) rotate(180)"/><rect class="cls-17" x="1763.96" y="1523.99" width="4.17" height="34.25" transform="translate(3532.09 3082.24) rotate(180)"/><rect class="cls-17" x="1806.03" y="1523.99" width="4.17" height="34.25" transform="translate(3616.22 3082.24) rotate(180)"/><rect class="cls-17" x="1845.41" y="1523.99" width="4.17" height="34.25" transform="translate(3694.99 3082.24) rotate(180)"/><rect class="cls-17" x="1880.58" y="1523.99" width="4.17" height="34.25" transform="translate(3765.32 3082.24) rotate(180)"/><rect class="cls-17" x="1666.1" y="1523.99" width="4.17" height="34.25" transform="translate(3336.36 3082.24) rotate(180)"/><rect class="cls-17" x="1657.22" y="1523.99" width="4.17" height="34.25" transform="translate(3318.61 3082.24) rotate(180)"/><rect class="cls-17" x="1648.65" y="1523.99" width="4.17" height="34.25" transform="translate(3301.47 3082.24) rotate(180)"/><path class="cls-17" d="M1642.2,1524.11v34a10.05,10.05,0,0,0,1.56.12h2.61V1524h-2.61A10.05,10.05,0,0,0,1642.2,1524.11Z"/><path class="cls-17" d="M1636.41,1527.28V1555a8.84,8.84,0,0,0,4.16,2.79v-33.25A8.84,8.84,0,0,0,1636.41,1527.28Z"/><path class="cls-16" d="M1607.91,1498v19.35a6.59,6.59,0,0,0,1.52,4.16,8.87,8.87,0,0,0,4.17,2.79,9.56,9.56,0,0,0,1.62.38,10.09,10.09,0,0,0,1.57.12h366.92a10.07,10.07,0,0,0,4-.79,7.61,7.61,0,0,0,4.88-6,2.83,2.83,0,0,0,0-.3c0-.13,0-.26,0-.38V1498c0-.13,0-.25,0-.38-.22-3.63-3.57-6.59-7.81-7a9.23,9.23,0,0,0-1,0H1616.79a10.09,10.09,0,0,0-1.57.12,9.56,9.56,0,0,0-1.62.38,8.87,8.87,0,0,0-4.17,2.79A6.59,6.59,0,0,0,1607.91,1498Z"/><path class="cls-26" d="M1788.09,1524.78h196.57a8.2,8.2,0,0,0,3.54-.79,7.49,7.49,0,0,0,4.35-6,2.83,2.83,0,0,0,0-.3c0-.13,0-.26,0-.38V1498c0-.13,0-.25,0-.38a7.69,7.69,0,0,0-7-7,7.06,7.06,0,0,0-.93,0H1812.23s0,0,0,0a60.12,60.12,0,0,1-23,33.41C1788.85,1524.26,1788.47,1524.52,1788.09,1524.78Z"/><rect class="cls-17" x="1652.56" y="1490.53" width="4.17" height="34.25" transform="translate(3309.29 3015.31) rotate(180)"/><rect class="cls-17" x="1666.67" y="1490.53" width="4.17" height="34.25" transform="translate(3337.52 3015.31) rotate(180)"/><rect class="cls-17" x="1683.6" y="1490.53" width="4.17" height="34.25" transform="translate(3371.37 3015.31) rotate(180)"/><rect class="cls-17" x="1709.55" y="1490.53" width="4.17" height="34.25" transform="translate(3423.27 3015.31) rotate(180)"/><rect class="cls-17" x="1736.99" y="1490.53" width="4.17" height="34.25" transform="translate(3478.14 3015.31) rotate(180)"/><rect class="cls-17" x="1779.05" y="1490.53" width="4.17" height="34.25" transform="translate(3562.27 3015.31) rotate(180)"/><rect class="cls-17" x="1818.43" y="1490.53" width="4.17" height="34.25" transform="translate(3641.04 3015.31) rotate(180)"/><rect class="cls-17" x="1853.6" y="1490.53" width="4.17" height="34.25" transform="translate(3711.37 3015.31) rotate(180)"/><rect class="cls-17" x="1639.12" y="1490.53" width="4.17" height="34.25" transform="translate(3282.41 3015.31) rotate(180)"/><rect class="cls-17" x="1630.24" y="1490.53" width="4.17" height="34.25" transform="translate(3264.66 3015.31) rotate(180)"/><rect class="cls-17" x="1621.67" y="1490.53" width="4.17" height="34.25" transform="translate(3247.51 3015.31) rotate(180)"/><path class="cls-17" d="M1615.22,1490.65v34a10.09,10.09,0,0,0,1.57.12h2.6v-34.25h-2.6A10.09,10.09,0,0,0,1615.22,1490.65Z"/><path class="cls-17" d="M1609.43,1493.82v27.67a8.94,8.94,0,0,0,4.17,2.79V1491A8.87,8.87,0,0,0,1609.43,1493.82Z"/><path class="cls-16" d="M1596.43,1463.78v19.35a6.59,6.59,0,0,0,1.52,4.16,8.84,8.84,0,0,0,4.16,2.79,9.67,9.67,0,0,0,1.63.38l.51.07.29,0,.29,0h367.39c4.73,0,8.63-3.15,8.87-7.07,0-.13,0-.26,0-.38v-19.35c0-.13,0-.25,0-.38-.24-3.92-4.14-7.07-8.87-7.07H1605.31a10.09,10.09,0,0,0-1.57.12,9.67,9.67,0,0,0-1.63.38,8.84,8.84,0,0,0-4.16,2.79A6.59,6.59,0,0,0,1596.43,1463.78Z"/><path class="cls-26" d="M1776.6,1490.58h196.57a7.77,7.77,0,0,0,7.92-7.07c0-.13,0-.26,0-.38v-19.35c0-.13,0-.25,0-.38a7.77,7.77,0,0,0-7.92-7.07H1800.74a60.09,60.09,0,0,1-24.06,34.2Z"/><rect class="cls-17" x="1641.07" y="1456.33" width="4.17" height="34.25" transform="translate(3286.32 2946.91) rotate(180)"/><rect class="cls-17" x="1655.19" y="1456.33" width="4.17" height="34.25" transform="translate(3314.55 2946.91) rotate(180)"/><rect class="cls-17" x="1672.12" y="1456.33" width="4.17" height="34.25" transform="translate(3348.41 2946.91) rotate(180)"/><rect class="cls-17" x="1698.06" y="1456.33" width="4.17" height="34.25" transform="translate(3400.3 2946.91) rotate(180)"/><rect class="cls-17" x="1725.5" y="1456.33" width="4.17" height="34.25" transform="translate(3455.18 2946.91) rotate(180)"/><rect class="cls-17" x="1767.57" y="1456.33" width="4.17" height="34.25" transform="translate(3539.3 2946.91) rotate(180)"/><rect class="cls-17" x="1806.95" y="1456.33" width="4.17" height="34.25" transform="translate(3618.07 2946.91) rotate(180)"/><rect class="cls-17" x="1842.12" y="1456.33" width="4.17" height="34.25"/><rect class="cls-17" x="1627.64" y="1456.33" width="4.17" height="34.25" transform="translate(3259.45 2946.91) rotate(180)"/><rect class="cls-17" x="1618.76" y="1456.33" width="4.17" height="34.25" transform="translate(3241.69 2946.91) rotate(180)"/><rect class="cls-17" x="1610.19" y="1456.33" width="4.17" height="34.25" transform="translate(3224.55 2946.91) rotate(180)"/><path class="cls-17" d="M1603.74,1456.45v34a10.05,10.05,0,0,0,1.56.12h2.61v-34.25h-2.61A10.05,10.05,0,0,0,1603.74,1456.45Z"/><path class="cls-17" d="M1598,1459.62v27.67a8.91,8.91,0,0,0,4.16,2.79v-33.25A8.84,8.84,0,0,0,1598,1459.62Z"/><circle class="cls-15" cx="2038.11" cy="1654.47" r="174.38" transform="translate(-572.94 1925.74) rotate(-45)"/><circle class="cls-16" cx="2053.32" cy="1654.47" r="174.38" transform="translate(-568.49 1936.5) rotate(-45)"/><path class="cls-17" d="M1941,1768.88a158.89,158.89,0,1,1,112.35,46.53A157.84,157.84,0,0,1,1941,1768.88Zm-37-112.35c0,82.38,67,149.4,149.4,149.4s149.4-67,149.4-149.4-67-149.4-149.4-149.4S1903.92,1574.15,1903.92,1656.53Z"/><path class="cls-17" d="M2075.24,1702.64a26.24,26.24,0,0,0-.37-9.22,19.19,19.19,0,0,0-3.9-7.66,36.29,36.29,0,0,0-7.8-6.88,94.56,94.56,0,0,0-12.09-6.77,250.51,250.51,0,0,1-22.33-12.27,79.39,79.39,0,0,1-16.68-13.58,46.48,46.48,0,0,1-9.86-16.56q-3.12-9.18-1.7-21.17a47.73,47.73,0,0,1,5.94-18.54,44.23,44.23,0,0,1,12.31-13.67,55.25,55.25,0,0,1,17.63-8.4,73.82,73.82,0,0,1,22-2.54l3.11-26.18,21.07,2.5-3.15,26.55a65.87,65.87,0,0,1,19.84,8.44,49.81,49.81,0,0,1,22.2,31.85,66.47,66.47,0,0,1,.88,22.51l-38.08-4.52q1.76-14.68-3.91-22.74t-16.59-9.35a28.61,28.61,0,0,0-10.41.44,19.26,19.26,0,0,0-7.58,3.69,17.82,17.82,0,0,0-4.89,6.31,26.46,26.46,0,0,0-2.32,8.29,24.2,24.2,0,0,0,.34,8.35,18.09,18.09,0,0,0,3.74,7.33,36.39,36.39,0,0,0,7.87,6.89,121.52,121.52,0,0,0,12.56,7.26q12.21,6.29,22.09,12.55a79.67,79.67,0,0,1,16.61,13.7,47.19,47.19,0,0,1,9.85,16.62q3.12,9.18,1.71,21.05a47.83,47.83,0,0,1-6.05,18.89,43.69,43.69,0,0,1-12.36,13.55,53.41,53.41,0,0,1-17.72,8.07,79.64,79.64,0,0,1-22.12,2.34l-2.89,24.35-20.95-2.49,2.88-24.23a88.36,88.36,0,0,1-20.58-7.28,56.28,56.28,0,0,1-16.86-12.73,50.51,50.51,0,0,1-10.57-18.94q-3.49-11.09-1.76-25.77l38.08,4.52a38,38,0,0,0,.71,14.79,24.51,24.51,0,0,0,5.42,10.07,23.8,23.8,0,0,0,8.71,6,40.29,40.29,0,0,0,10.43,2.66,34,34,0,0,0,11.06-.3,22.8,22.8,0,0,0,8.36-3.47,18.19,18.19,0,0,0,5.54-6.11A22,22,0,0,0,2075.24,1702.64Z"/><path class="cls-27" d="M1294,1606.29s-22,31-42.18,31.41-50.87-14.36-50.87-14.36-18.53-41.28-6-57.44c0,0,12.6-5.53,25.77,4.24a39.57,39.57,0,0,1,6.82,6.53,21.7,21.7,0,0,0,10.59,7.18c14.4,4.38,31.49-5.92,37.88,4a67.37,67.37,0,0,0,11.13,13.18A50.64,50.64,0,0,0,1294,1606.29Z"/><path class="cls-27" d="M1007.14,1829.77s77.78-188.48,217.79-192.07c0,0,129.24,14.36,136.42,192.07Z"/><path class="cls-18" d="M1186.57,1643.46s56.12,12.48,73.44,5.15c0,0,2.62-23.47-21-20.18-16.17,2.25-26.71-5.52-32.91-8.68C1197.31,1615.29,1184.24,1633.64,1186.57,1643.46Z"/><path class="cls-28" d="M1235.41,1608.09c-3.59,2.69-14.61-37.95-14.61-37.95a39.57,39.57,0,0,1,6.82,6.53,21.7,21.7,0,0,0,10.59,7.18C1238.25,1585,1238.9,1605.47,1235.41,1608.09Z"/><path class="cls-28" d="M1287.22,1601.05c-.79.47-26.75,16-30.27,16s19.14-29.19,19.14-29.19A67.37,67.37,0,0,0,1287.22,1601.05Z"/><path class="cls-29" d="M1083.12,1777.12c-1.43-1.23,55.05-83.17,70.61-83.77s50.51,18,75.81,20.34,49.84-4.78,54.63,10.17,17.95,68,9.87,76.48S1114.18,1803.65,1083.12,1777.12Z"/><path class="cls-9" d="M1620.56,651.42l-5.31-29.9,11.51-2,5.26,29.61c1.52,8.52,6.56,12.17,13.59,10.92s10.53-6.26,9.06-14.56l-5.33-30,11.51-2L1666.1,643c2.81,15.84-4.7,25.2-18.76,27.7S1623.3,666.82,1620.56,651.42Z"/><path class="cls-9" d="M1672.59,611.33l24.3-4.31c6-1.06,11-.26,14.5,2.2a12.27,12.27,0,0,1,5.19,8.41c1.05,5.91-1.5,9.75-4.87,12.51,6.47,1.24,10.83,4.09,12.1,11.27,1.7,9.57-5.22,15.73-17,17.83l-24.9,4.42Zm25.59,17.28c5.08-.9,8-3.12,7.29-7.15-.62-3.44-3.65-4.91-8.51-4l-11.36,2,2,11.07Zm6.81,20.54c5.08-.9,7.83-3.24,7.11-7.28-.63-3.51-3.63-5.22-9.53-4.17l-13.31,2.37,2,11.51Z"/><path class="cls-9" d="M1727.09,601.65l11.51-2,9.29,52.33-11.51,2Z"/><path class="cls-2" d="M1763.33,1674.9c2.69,3.09,3,6.55,1.7,10.24l0,0c-2.47,6.82-10.63,14.44-20.1,22-1.21,1-2.29,1.86-3.23,2.69-.25.21-.49.43-.72.65l-.56.5c-8.84,8.14-5.51,10-21.38,26.54-18.1,18.83-30.56,19.16-34.11,17.45-3-1.46,3.1-11.45,9.85-22.68l1-1.63c.9-1.49,1.79-3,2.69-4.51,7.91-13.51,5.88-19.85,4-40C1700.91,1670,1677,1595,1677,1595l34.69-6s10.44,59.67,22,68.86c6.15,4.9,13,5,19,8.59l1.23.78A45.37,45.37,0,0,1,1763.33,1674.9Z"/><path class="cls-19" d="M1763.33,1674.9c2.69,3.09,3,6.55,1.7,10.24l0,0c-3,6.81-11,14.39-20.14,22-1.19,1-2.25,1.9-3.19,2.76-.25.21-.49.43-.72.65l-.56.5c-8.84,8.14-5.51,10-21.38,26.54-18.1,18.83-30.56,19.16-34.11,17.45-3-1.46,3.1-11.45,9.85-22.68a77,77,0,0,0,32.26-23.77c10.9-13.9,18.16-31.77,25.59-42.12l1.23.78A45.37,45.37,0,0,1,1763.33,1674.9Z"/><path class="cls-2" d="M1483.66,1653.24c-2.14,10.71-17.4,8.92-34.45,4.76s-13,.78-37.26-1.9-31.61-11.74-32.35-15.35c-.67-3.2,11.32-4.33,24.18-5.81,1.62-.18,3.24-.38,4.87-.58,14.52-1.82,25.15-11.19,38.34-18.89,12.49-7.28,31.14-37,31.14-37l33.27,2.64s-17.46,26.52-24.21,38c-4,6.78-3.77,15.75-3.27,22.68A42.56,42.56,0,0,1,1483.66,1653.24Z"/><path class="cls-19" d="M1449.21,1658c-17-4.17-13,.78-37.26-1.9s-31.61-11.74-32.35-15.35c-.67-3.2,11.32-4.33,24.18-5.81l.12.25a68.36,68.36,0,0,0,34.75,10.8c16.46.4,33.9-4.32,45.27-4.13a42.56,42.56,0,0,1-.26,11.38C1481.52,1664,1466.26,1662.16,1449.21,1658Z"/><path class="cls-19" d="M1611.19,1440.46l31.11,83.71,40.61,109.3a65.82,65.82,0,0,0,21.58-2c9.71-2.8,20.86-10.15,20.86-10.15S1714.08,1504,1693,1436.62c-5.39-17.29-11.43-31.28-18.1-39.16C1642.33,1358.92,1611.19,1440.46,1611.19,1440.46Z"/><path class="cls-18" d="M1642.82,1307.52c20.38-6.57,78.5,1.87,136.89,13.3l12.23-20.17,126.12-9.84s41.62,92.29,18.83,151.09c-3.35,8.65-10,14.19-21.34,14.37h-1.84l-99.44,0c-62.72,0-132.74-43.12-141.8-44.93-14.83-3-20.76,26.69-35.58,57.82S1497.53,1607,1497.53,1607s-19.14.19-27-2.77c-8.5-3.19-11.62-7.33-11.62-7.33S1596.86,1322.35,1642.82,1307.52Z"/><path class="cls-19" d="M1756.8,1125.31c39.78,32.35,135.61,88.4,136.13,88.16,0,0,30.7,18.39,51.65,9.37,34.91-15,61.72-67.7,13.43-126-24.08-29.05-44-38.62-39.36-77.25,5.08-41.85-13.82-94.47-62-96.68-4-.18-28.42-3.44-45.83,2C1766.46,938.9,1692.26,1103.88,1756.8,1125.31Z"/><path class="cls-20" d="M1926.67,1304.49c-2.59,7.17-70.78,13.56-109.58,11-12.32-.8-21.7-2.53-25-5.41-13.84-12-12.46,14.42-14.35-112.08-.92-61.7,52.35-116.65,52.35-116.65s4.25,26.36,57.09-5c1.87-1.1,22.68,29.71,42.71,67.65C1951.91,1185.88,1929.33,1297.12,1926.67,1304.49Z"/><path class="cls-18" d="M1642.3,1524.17l40.61,109.3a65.82,65.82,0,0,0,21.58-2c9.71-2.8,20.86-10.15,20.86-10.15S1714.08,1504,1693,1436.62Z"/><path class="cls-20" d="M1830.05,1081.32s-48.24,11.84-60.75,32.63c-15.23,25.31-91.21,139.47-91.21,139.47s74.9,26.49,87.67,13.73,44.42-118.45,44.42-118.45Z"/><path class="cls-2" d="M1887.26,1076.4c.2,0-19.47,18.14-33.87,23.37-5.65,2.06-15,4.32-15,4.32l-7.63-7.72c-6.69-6.24,0-8-1-19.85-.06-.56-.1-1.13-.17-1.7a210.76,210.76,0,0,0-5.41-28.61.18.18,0,0,1,0,0l46.68-13.34-1.51,2.58C1872.22,1059.62,1880.92,1075.69,1887.26,1076.4Z"/><path class="cls-4" d="M1870.85,1032.82c-4.53,13.56-16.88,31.76-42.06,35.69a220.67,220.67,0,0,0-4.61-22.3.18.18,0,0,1,0,0Z"/><path class="cls-2" d="M1816.4,1060.22s62.92-4.18,59.71-43.32,2.75-66-37.55-65-46.88,16.59-49,29.92S1800,1060.3,1816.4,1060.22Z"/><path class="cls-19" d="M1805.1,951.17s15.63,45.87,52.74,51.2c27.08,3.89,37.83-3.43,37.83-3.43a106.24,106.24,0,0,1-23.3-36.45,19.13,19.13,0,0,0-15-12.31C1838.11,947.21,1813.23,934.45,1805.1,951.17Z"/><path class="cls-19" d="M1818.43,959.29s-11.23,4.54-19.07,21.31c-4.28,9.17-7.38,31-4.73,40,0,0-18.09-41.85-5-60.72C1803.52,939.87,1818.43,959.29,1818.43,959.29Z"/><path class="cls-21" d="M1829.76,1076.52s3.84,23.23,8.61,27.57c0,0-12.06-4.46-17.79-20.06C1820.58,1084,1824.8,1077.05,1829.76,1076.52Z"/><path class="cls-21" d="M1784.87,1155.52s-35.13,42.15-30.8,57.41,28.65,15.27,28.65,15.27-4.54-32.52,0-49.45S1790.12,1154.52,1784.87,1155.52Z"/><path class="cls-21" d="M1863.75,1277s50.61-30.85,50-48.77,0-50.8,4.77-46.2,19.75,41.55,18.31,52-52.55,83.49-58.88,83.32C1832.79,1316.05,1863.75,1277,1863.75,1277Z"/><path class="cls-21" d="M1877.44,1065.64s-27.64,34.75-39.07,38.45c0,0,32.48,0,55.41-27.11C1893.78,1077,1886.11,1065.75,1877.44,1065.64Z"/><circle class="cls-15" cx="1749.64" cy="1239.38" r="128.26" transform="translate(183.77 2704.09) rotate(-78.4)"/><circle class="cls-16" cx="1738.45" cy="1239.38" r="128.26" transform="translate(161.84 2679.03) rotate(-77.89)"/><path class="cls-17" d="M1738.45,1357.76a116.87,116.87,0,1,1,82.63-34.23A116.09,116.09,0,0,1,1738.45,1357.76Zm0-226.75a109.89,109.89,0,1,0,109.89,109.89A110,110,0,0,0,1738.45,1131Z"/><path class="cls-17" d="M1754.54,1274.81a19.26,19.26,0,0,0-.28-6.78,14.08,14.08,0,0,0-2.87-5.64,26.71,26.71,0,0,0-5.74-5.06,70,70,0,0,0-8.89-5,184,184,0,0,1-16.41-9,57.65,57.65,0,0,1-12.28-10,34.2,34.2,0,0,1-7.25-12.18,38.59,38.59,0,0,1,3.12-29.2,32.27,32.27,0,0,1,9-10.06,40.68,40.68,0,0,1,13-6.18,54.19,54.19,0,0,1,16.19-1.86l2.28-19.26,15.51,1.83-2.32,19.54a48.34,48.34,0,0,1,14.59,6.2,36.62,36.62,0,0,1,16.33,23.43,48.77,48.77,0,0,1,.64,16.55l-28-3.32q1.27-10.8-2.88-16.73t-12.2-6.87a21,21,0,0,0-7.66.32,14.28,14.28,0,0,0-5.58,2.72,13.18,13.18,0,0,0-3.59,4.64,19.45,19.45,0,0,0-1.71,6.09,17.8,17.8,0,0,0,.26,6.15,13.13,13.13,0,0,0,2.75,5.39,26.2,26.2,0,0,0,5.78,5.06,89.44,89.44,0,0,0,9.24,5.35q9,4.62,16.25,9.23a58.75,58.75,0,0,1,12.22,10.07,33.06,33.06,0,0,1,8.5,27.71,35.35,35.35,0,0,1-4.45,13.89,32.25,32.25,0,0,1-9.09,10,39.06,39.06,0,0,1-13,5.93,58.57,58.57,0,0,1-16.27,1.73l-2.12,17.91-15.41-1.83,2.12-17.82a65.37,65.37,0,0,1-15.14-5.36,41.39,41.39,0,0,1-12.4-9.37,37.18,37.18,0,0,1-7.78-13.93q-2.57-8.14-1.29-18.95l28,3.32a28,28,0,0,0,.52,10.88,18.09,18.09,0,0,0,4,7.41,17.42,17.42,0,0,0,6.4,4.41,29.5,29.5,0,0,0,7.68,2,24.92,24.92,0,0,0,8.13-.22,16.61,16.61,0,0,0,6.15-2.56,13.16,13.16,0,0,0,4.07-4.49A16.29,16.29,0,0,0,1754.54,1274.81Z"/><path class="cls-2" d="M1601.27,1261.26s-1.44-21.08,6.53-20.25c9.77,1,20.15,24.2,15.38,28.68S1601.37,1266.45,1601.27,1261.26Z"/><path class="cls-2" d="M1874,1310l-11.89-7.12s-7.36-2.94-11.71-2.32-14.65-1.2-15,.48,9.91,9.21,9.91,9.21c-6.16,9.44-28.45,11.18-30.15,14.73-2,4.31,8,8.36,13.48,10.7s19.44,4.49,27.5-1.64c5.9-4.48,15.59-10.38,15.59-10.38Z"/><path class="cls-20" d="M1887.14,1076.33s49.92,3.27,62.4,22.73,52.56,130.37,46.07,164.31-125.2,74.69-125.2,74.69-5.25-4.56-5.25-16.72c0-7.3,3.8-14.35,3.8-14.35s72.83-60.87,67.82-73C1918.26,1189.24,1887.14,1076.33,1887.14,1076.33Z"/></svg>