<svg id="Слой_1" data-name="Слой 1" xmlns="http://www.w3.org/2000/svg" viewBox="0 0 3000 2000"><defs><style>.cls-1{fill:#ebf3fa;}.cls-2{fill:#c0d8fb;}.cls-3{fill:#8596cc;}.cls-4{fill:#dceaff;}.cls-5{fill:#ffa412;}.cls-6{fill:#ffb93e;}.cls-7,.cls-8{fill:#e2810e;}.cls-8{opacity:0.5;}.cls-9{fill:#ffeddc;}.cls-10{fill:#db6a1d;}.cls-11{fill:#e5c1a1;}.cls-12{fill:#f9ddbf;}.cls-13{fill:#233862;}.cls-14{fill:#ed7d2b;}.cls-15{fill:#fec4ad;}.cls-16{fill:#f99746;}.cls-17{fill:#f9af95;}.cls-18{fill:#2b478b;}.cls-19{fill:#fff;}</style></defs><path class="cls-1" d="M409,1869.06s-220.56-424.14,12.09-790.72c1005.3-1584,2482.69-553.09,2040.47,126.7-182.34,280.3,391.54,341,219.43,664.7Z"/><polygon class="cls-2" points="2447.02 986.82 2194.73 1070.26 2245.38 1112.47 2245.38 1112.47 2027.08 1340.99 1835.73 1176.69 1071.91 1802.55 1078.63 1802.65 1268.91 1802.65 1833.85 1339.76 2035.59 1512.97 2341.57 1192.64 2341.58 1192.64 2396.24 1238.2 2447.02 986.82"/><rect class="cls-3" x="189.59" y="1864.97" width="2611.41" height="6.93" rx="2.96"/><polygon class="cls-4" points="1223.8 1474.6 1164.46 1868.97 638.7 1789.86 638.69 1789.85 417.17 1756.52 476.5 1362.16 890.14 1424.39 1223.8 1474.6"/><path class="cls-2" d="M1174.44,1512.26l-46.07,306.17L456.69,1717.36l46.06-306.17Zm-49.74,267.2,34.74-230.89a28.7,28.7,0,0,0-24.11-32.65l-595.76-89.65a29.22,29.22,0,0,0-33.24,24.55l-34.6,230a29,29,0,0,0,24.34,33l596.14,89.7A28.55,28.55,0,0,0,1124.7,1779.46Z"/><path class="cls-2" d="M803.17,1697.19a83.3,83.3,0,1,1,94.77-70A83.29,83.29,0,0,1,803.17,1697.19Z"/><polygon class="cls-4" points="1272.19 1476.43 959.41 1723.86 629.56 1306.86 629.55 1306.85 490.57 1131.15 803.35 883.74 1062.86 1211.8 1272.19 1476.43"/><path class="cls-2" d="M1210.41,1470.21,967.58,1662.3l-421.4-532.73L789,937.48ZM991.52,1631.33l183.13-144.86a28.7,28.7,0,0,0,4.71-40.31L805.59,973.65a29.21,29.21,0,0,0-41-4.79L582.16,1113.14a29,29,0,0,0-4.75,40.69l374,472.82A28.54,28.54,0,0,0,991.52,1631.33Z"/><circle class="cls-2" cx="878.29" cy="1299.89" r="83.3" transform="translate(-517.48 583.69) rotate(-28.79)"/><path class="cls-5" d="M1948.36,1037.09a8.93,8.93,0,0,1,1.19-1.88h0a9.77,9.77,0,0,1,1.15-1.17l1.74-1.76.46.34c8.89-4.36,27.26.26,45.83,12.39,22.45,14.65,36.87,34.84,32.71,45.56l.63.47-2.49,2.49c-.12.13-.25.25-.37.37l-.07.07h0a10.83,10.83,0,0,1-2.16,1.51h0c-8.78,4.6-27.34,0-46.12-12.24C1958,1068.32,1943.42,1047.65,1948.36,1037.09Z"/><path class="cls-6" d="M2001.4,1042.33c-22.87-14.93-45.42-18.47-50.37-7.91s9.59,31.23,32.46,46.16,45.42,18.48,50.37,7.92S2024.28,1057.27,2001.4,1042.33Z"/><path class="cls-5" d="M1984.76,1077.59c-9.57-6.27-17.82-13.82-23.23-21.28-5.53-7.62-7.44-14.3-5.38-18.8a8.73,8.73,0,0,1,5.89-4.69c8.44-2.43,23.39,2.22,38.09,11.85h0c9.58,6.27,17.83,13.83,23.23,21.28,5.53,7.62,7.44,14.3,5.38,18.8a8.71,8.71,0,0,1-5.88,4.69,18.21,18.21,0,0,1-5,.64C2009.15,1090.08,1996.87,1085.52,1984.76,1077.59Zm-22.26-43.16a7.14,7.14,0,0,0-4.82,3.78c-1.77,3.87.13,10.11,5.21,17.12,5.29,7.29,13.38,14.7,22.79,20.86,11.72,7.68,23.91,12.2,32.2,12.2a16.42,16.42,0,0,0,4.51-.56,7.11,7.11,0,0,0,4.83-3.78c1.77-3.87-.13-10.11-5.22-17.12-5.28-7.29-13.38-14.7-22.78-20.86-11.73-7.67-23.91-12.2-32.2-12.2A16.45,16.45,0,0,0,1962.5,1034.43Z"/><path class="cls-5" d="M2086.51,500.46a6.5,6.5,0,0,1,.84-1.33h0a6.43,6.43,0,0,1,.82-.83l1.23-1.25.33.24c6.31-3.09,19.35.18,32.54,8.79,15.94,10.41,26.17,24.74,23.22,32.35l.45.34-1.78,1.76-.26.26-.05.05h0a7,7,0,0,1-1.54,1.07h0c-6.23,3.26-19.41,0-32.74-8.69C2093.31,522.64,2083,508,2086.51,500.46Z"/><path class="cls-6" d="M2124.16,504.19c-16.23-10.6-32.24-13.12-35.76-5.62s6.81,22.17,23,32.77,32.25,13.12,35.76,5.62S2140.4,514.79,2124.16,504.19Z"/><path class="cls-5" d="M2112.35,529.22a63.81,63.81,0,0,1-16.49-15.11c-3.93-5.41-5.29-10.15-3.82-13.35a6.23,6.23,0,0,1,4.17-3.33c6-1.72,16.61,1.58,27.05,8.41h0A63.81,63.81,0,0,1,2139.75,521c3.93,5.41,5.29,10.15,3.82,13.35a6.21,6.21,0,0,1-4.17,3.33,13.18,13.18,0,0,1-3.58.45C2129.67,538.08,2121,534.85,2112.35,529.22Zm-15.81-30.64a5.05,5.05,0,0,0-3.42,2.68c-1.26,2.74.09,7.17,3.7,12.15A62.72,62.72,0,0,0,2113,528.22c8.32,5.45,17,8.67,22.86,8.67a11.68,11.68,0,0,0,3.21-.41,5.05,5.05,0,0,0,3.42-2.68c1.26-2.74-.09-7.17-3.7-12.15a62.72,62.72,0,0,0-16.18-14.81c-8.32-5.45-17-8.66-22.86-8.66A11.7,11.7,0,0,0,2096.54,498.58Z"/><path class="cls-5" d="M2144.8,925.85a6.12,6.12,0,0,0-.87-1.37h0a6.81,6.81,0,0,0-.84-.86l-1.27-1.28-.33.24c-6.5-3.18-19.92.19-33.5,9.06-16.4,10.71-26.93,25.46-23.9,33.3l-.46.34,1.83,1.82.26.26.06.06h0a7.15,7.15,0,0,0,1.58,1.09h0c6.42,3.36,20,0,33.7-8.94C2137.8,948.67,2148.41,933.57,2144.8,925.85Z"/><path class="cls-6" d="M2106,929.69c16.72-10.92,33.19-13.51,36.81-5.79s-7,22.82-23.72,33.73-33.19,13.5-36.8,5.79S2089.33,940.6,2106,929.69Z"/><path class="cls-5" d="M2094,964.57a13.53,13.53,0,0,1-3.68-.46,6.36,6.36,0,0,1-4.29-3.43c-1.51-3.29-.11-8.17,3.93-13.74a65.68,65.68,0,0,1,17-15.55h0c10.74-7,21.67-10.43,27.84-8.66a6.4,6.4,0,0,1,4.3,3.43c1.5,3.29.11,8.17-3.93,13.74a65.73,65.73,0,0,1-17,15.55C2109.35,961.24,2100.38,964.57,2094,964.57Zm37.13-41.07c-6.06,0-15,3.31-23.53,8.92A64.52,64.52,0,0,0,2091,947.66c-3.72,5.12-5.11,9.68-3.81,12.51a5.22,5.22,0,0,0,3.52,2.76,12,12,0,0,0,3.3.41c6.06,0,15-3.31,23.53-8.92a64.36,64.36,0,0,0,16.65-15.24c3.72-5.12,5.11-9.68,3.81-12.51a5.2,5.2,0,0,0-3.52-2.76A12,12,0,0,0,2131.17,923.5Z"/><path class="cls-5" d="M1955.46,626.21a4.15,4.15,0,0,1,.52-.83h0a4.26,4.26,0,0,1,.52-.52l.77-.79.2.15c4-1.93,12.12.12,20.37,5.51,10,6.52,16.39,15.49,14.54,20.26l.29.2-1.11,1.11-.17.16,0,0h0a4.45,4.45,0,0,1-1,.67h0c-3.9,2.05-12.15,0-20.5-5.44C1959.72,640.1,1953.26,630.91,1955.46,626.21Z"/><path class="cls-6" d="M1979,628.54c-10.16-6.63-20.19-8.21-22.39-3.51s4.26,13.88,14.43,20.52,20.19,8.21,22.39,3.51S1989.2,635.18,1979,628.54Z"/><path class="cls-5" d="M1971.63,644.22a40.19,40.19,0,0,1-10.32-9.46c-2.46-3.39-3.31-6.36-2.39-8.36a3.86,3.86,0,0,1,2.61-2.08c3.76-1.08,10.4,1,16.94,5.26h0a40.19,40.19,0,0,1,10.32,9.46c2.46,3.39,3.31,6.36,2.39,8.36a3.82,3.82,0,0,1-2.61,2.08,8.11,8.11,0,0,1-2.24.29C1982.48,649.77,1977,647.74,1971.63,644.22ZM1961.74,625a3.15,3.15,0,0,0-2.14,1.68c-.79,1.72.05,4.49,2.31,7.61a39.36,39.36,0,0,0,10.13,9.27c5.21,3.42,10.63,5.43,14.32,5.43a7.2,7.2,0,0,0,2-.25,3.22,3.22,0,0,0,2.15-1.68c.78-1.72-.06-4.5-2.32-7.61a39.18,39.18,0,0,0-10.13-9.27c-5.21-3.42-10.63-5.43-14.31-5.43A7.27,7.27,0,0,0,1961.74,625Z"/><path class="cls-5" d="M1195.3,946.72a7.78,7.78,0,0,0-1-1.58h0a7.49,7.49,0,0,0-1-1l-1.46-1.48-.39.28c-7.47-3.66-22.9.22-38.51,10.41-18.87,12.32-31,29.28-27.49,38.3l-.53.39,2.09,2.09.31.31.06.06h0a8.18,8.18,0,0,0,1.82,1.26h0c7.38,3.87,23,0,38.76-10.29C1187.25,973,1199.46,955.6,1195.3,946.72Z"/><path class="cls-6" d="M1150.73,951.13c19.22-12.55,38.17-15.53,42.33-6.65s-8.06,26.24-27.28,38.79-38.17,15.53-42.33,6.65S1131.51,963.68,1150.73,951.13Z"/><path class="cls-5" d="M1136.93,991.25a15.34,15.34,0,0,1-4.23-.54,7.29,7.29,0,0,1-4.94-3.94c-1.74-3.78-.13-9.39,4.52-15.8s11.47-12.61,19.52-17.88h0c12.35-8.09,24.92-12,32-10a7.34,7.34,0,0,1,5,4c1.73,3.77.13,9.39-4.52,15.8s-11.48,12.61-19.52,17.88C1154.54,987.42,1144.22,991.25,1136.93,991.25Zm42.7-47.24c-7,0-17.21,3.81-27.06,10.26-7.91,5.18-14.71,11.4-19.15,17.53-4.27,5.89-5.87,11.13-4.38,14.38a6,6,0,0,0,4,3.18,13.82,13.82,0,0,0,3.8.47c7,0,17.2-3.8,27.06-10.25,7.9-5.18,14.7-11.41,19.15-17.53,4.27-5.9,5.87-11.14,4.38-14.39a6,6,0,0,0-4.06-3.17A13.73,13.73,0,0,0,1179.63,944Z"/><path class="cls-5" d="M991.59,705.8a4.1,4.1,0,0,0-.58-.92h0a5.11,5.11,0,0,0-.57-.57l-.85-.86-.22.17c-4.35-2.14-13.34.12-22.43,6.06-11,7.17-18,17.05-16,22.3l-.31.23,1.22,1.21a1.07,1.07,0,0,0,.19.18l0,0h0a5.1,5.1,0,0,0,1.06.73h0c4.3,2.26,13.38,0,22.57-6C986.9,721.08,994,711,991.59,705.8Z"/><path class="cls-6" d="M965.63,708.36c11.19-7.31,22.23-9,24.65-3.87s-4.69,15.28-15.88,22.59-22.23,9-24.65,3.87S954.44,715.67,965.63,708.36Z"/><path class="cls-5" d="M957.6,731.72a9,9,0,0,1-2.47-.31,4.28,4.28,0,0,1-2.88-2.29c-1-2.2-.07-5.47,2.64-9.2a44.06,44.06,0,0,1,11.36-10.42h0c7.2-4.71,14.52-7,18.65-5.79a4.24,4.24,0,0,1,2.87,2.29c1,2.2.08,5.47-2.63,9.2a43.86,43.86,0,0,1-11.36,10.41C967.85,729.5,961.84,731.72,957.6,731.72Zm24.86-27.5c-4.06,0-10,2.21-15.76,6a43.24,43.24,0,0,0-11.15,10.21c-2.49,3.43-3.42,6.48-2.55,8.37a3.45,3.45,0,0,0,2.36,1.85,7.9,7.9,0,0,0,2.21.28c4.06,0,10-2.22,15.76-6a43.42,43.42,0,0,0,11.15-10.21c2.49-3.43,3.42-6.48,2.55-8.38a3.53,3.53,0,0,0-2.36-1.85A8.31,8.31,0,0,0,982.46,704.22Z"/><path class="cls-5" d="M1175.47,775.68a5.4,5.4,0,0,1,.74-1.17h0a7.08,7.08,0,0,1,.72-.73l1.09-1.1.28.21c5.56-2.72,17,.17,28.65,7.75,14,9.16,23,21.78,20.45,28.48l.39.29-1.56,1.56-.23.23,0,0h0a6,6,0,0,1-1.35.94h0c-5.49,2.87-17.09,0-28.83-7.66C1181.46,795.2,1172.38,782.28,1175.47,775.68Z"/><path class="cls-6" d="M1208.62,779c-14.29-9.33-28.39-11.55-31.48-5s6,19.52,20.29,28.86,28.39,11.54,31.48,4.94S1222.92,788.29,1208.62,779Z"/><path class="cls-5" d="M1198.22,801a56.59,56.59,0,0,1-14.52-13.3c-3.46-4.77-4.65-8.94-3.36-11.75A5.45,5.45,0,0,1,1184,773c5.27-1.52,14.62,1.39,23.81,7.41h0a56.42,56.42,0,0,1,14.52,13.3c3.45,4.76,4.65,8.94,3.36,11.75a5.44,5.44,0,0,1-3.68,2.93,11.28,11.28,0,0,1-3.14.4C1213.47,808.8,1205.79,806,1198.22,801Zm-13.91-27a4.48,4.48,0,0,0-3,2.36c-1.11,2.42.08,6.32,3.26,10.7a55.27,55.27,0,0,0,14.24,13c7.33,4.8,15,7.63,20.13,7.63a10.11,10.11,0,0,0,2.82-.36,4.45,4.45,0,0,0,3-2.36c1.1-2.41-.08-6.31-3.26-10.7a55.31,55.31,0,0,0-14.25-13c-7.32-4.8-14.94-7.63-20.12-7.63A10.12,10.12,0,0,0,1184.31,774Z"/><path class="cls-6" d="M1723.94,1842.77v17.3a5.87,5.87,0,0,1-1.36,3.72,8,8,0,0,1-3.73,2.5,8.51,8.51,0,0,1-1.45.34,9.23,9.23,0,0,1-1.4.11H1387.83c-4.23,0-7.71-2.82-7.93-6.33,0-.11,0-.23,0-.34v-17.3c0-.12,0-.23,0-.34.22-3.51,3.7-6.33,7.93-6.33H1716a9.23,9.23,0,0,1,1.4.11,8.51,8.51,0,0,1,1.45.34,7.87,7.87,0,0,1,3.73,2.5A5.87,5.87,0,0,1,1723.94,1842.77Z"/><path class="cls-5" d="M1562.79,1866.74H1387a7,7,0,0,1-7.08-6.33c0-.11,0-.23,0-.34v-17.3c0-.12,0-.23,0-.34a7,7,0,0,1,7.08-6.33H1541.2A53.75,53.75,0,0,0,1562.79,1866.74Z"/><rect class="cls-5" x="1680.28" y="1836.1" width="3.73" height="30.64"/><rect class="cls-5" x="1667.65" y="1836.1" width="3.73" height="30.64"/><rect class="cls-5" x="1652.51" y="1836.1" width="3.73" height="30.64"/><rect class="cls-5" x="1629.3" y="1836.1" width="3.73" height="30.64"/><rect class="cls-5" x="1604.77" y="1836.1" width="3.73" height="30.64"/><rect class="cls-5" x="1567.14" y="1836.1" width="3.73" height="30.64"/><rect class="cls-5" x="1531.92" y="1836.1" width="3.73" height="30.64"/><rect class="cls-5" x="1500.47" y="1836.1" width="3.73" height="30.64"/><rect class="cls-5" x="1692.29" y="1836.1" width="3.73" height="30.64"/><rect class="cls-5" x="1700.23" y="1836.1" width="3.73" height="30.64"/><rect class="cls-5" x="1707.9" y="1836.1" width="3.73" height="30.64"/><path class="cls-5" d="M1717.4,1836.21v30.42a9.23,9.23,0,0,1-1.4.11h-2.33V1836.1H1716A9.23,9.23,0,0,1,1717.4,1836.21Z"/><path class="cls-5" d="M1722.58,1839.05v24.74a8,8,0,0,1-3.73,2.5v-29.74A7.87,7.87,0,0,1,1722.58,1839.05Z"/><path class="cls-6" d="M1688.85,1812.13v17.3a5.92,5.92,0,0,1-1.36,3.73,7.83,7.83,0,0,1-3.73,2.49,7.66,7.66,0,0,1-1.45.34,9.13,9.13,0,0,1-1.4.11H1352.75c-4.23,0-7.72-2.81-7.93-6.32,0-.12,0-.23,0-.35v-17.3c0-.11,0-.23,0-.34.21-3.51,3.7-6.33,7.93-6.33h328.16l.63,0,.27,0,.29,0,.21,0a9.58,9.58,0,0,1,1.45.34l.21.07.2.08.4.16.23.11.2.1.38.2.4.25.31.21h0l.2.16a5.43,5.43,0,0,1,.57.49,1.21,1.21,0,0,1,.16.16l.16.16c.1.11.2.22.29.34A5.87,5.87,0,0,1,1688.85,1812.13Z"/><path class="cls-5" d="M1527.71,1836.1H1351.9a6.93,6.93,0,0,1-7.08-6.32c0-.12,0-.23,0-.35v-17.3c0-.11,0-.23,0-.34a6.94,6.94,0,0,1,7.08-6.33h154.21c.07.25.14.51.22.76A53.53,53.53,0,0,0,1527.71,1836.1Z"/><rect class="cls-5" x="1645.19" y="1805.46" width="3.73" height="30.64"/><rect class="cls-5" x="1632.56" y="1805.46" width="3.73" height="30.64"/><rect class="cls-5" x="1617.42" y="1805.46" width="3.73" height="30.64"/><rect class="cls-5" x="1594.22" y="1805.46" width="3.73" height="30.64"/><rect class="cls-5" x="1569.68" y="1805.46" width="3.73" height="30.64"/><rect class="cls-5" x="1532.06" y="1805.46" width="3.73" height="30.64"/><rect class="cls-5" x="1496.83" y="1805.46" width="3.73" height="30.64"/><rect class="cls-5" x="1465.38" y="1805.46" width="3.73" height="30.64"/><rect class="cls-5" x="1657.21" y="1805.46" width="3.73" height="30.64"/><rect class="cls-5" x="1665.15" y="1805.46" width="3.73" height="30.64"/><rect class="cls-5" x="1672.81" y="1805.46" width="3.73" height="30.64"/><path class="cls-5" d="M1682.31,1805.57V1836a9.23,9.23,0,0,1-1.4.11h-2.33v-30.64h2.33A9.23,9.23,0,0,1,1682.31,1805.57Z"/><path class="cls-5" d="M1687.49,1808.41v24.75a7.83,7.83,0,0,1-3.73,2.49v-29.74A7.92,7.92,0,0,1,1687.49,1808.41Z"/><path class="cls-6" d="M1705.81,1782.25v17.3a5.92,5.92,0,0,1-1.36,3.73,7.93,7.93,0,0,1-3.73,2.49,8.74,8.74,0,0,1-1.45.34,9.23,9.23,0,0,1-1.4.11H1369.7a9,9,0,0,1-3.66-.76,6.8,6.8,0,0,1-4.24-5.27l0-.29c0-.12,0-.23,0-.35v-17.3c0-.11,0-.23,0-.34.22-3.51,3.7-6.33,7.93-6.33h328.17a9.23,9.23,0,0,1,1.4.11,8.74,8.74,0,0,1,1.45.34,8,8,0,0,1,3.73,2.5A5.87,5.87,0,0,1,1705.81,1782.25Z"/><path class="cls-5" d="M1544.66,1806.22H1368.85a7.21,7.21,0,0,1-3.26-.76,6.68,6.68,0,0,1-3.79-5.27l0-.29c0-.12,0-.23,0-.35v-17.3c0-.11,0-.23,0-.34a6.94,6.94,0,0,1,7.08-6.33h154.22a53.73,53.73,0,0,0,20.51,29.88Z"/><rect class="cls-5" x="1662.15" y="1775.58" width="3.73" height="30.64"/><rect class="cls-5" x="1649.52" y="1775.58" width="3.73" height="30.64"/><rect class="cls-5" x="1634.38" y="1775.58" width="3.73" height="30.64"/><rect class="cls-5" x="1611.17" y="1775.58" width="3.73" height="30.64"/><rect class="cls-5" x="1586.63" y="1775.58" width="3.73" height="30.64"/><rect class="cls-5" x="1549.01" y="1775.58" width="3.73" height="30.64"/><rect class="cls-5" x="1513.79" y="1775.58" width="3.73" height="30.64"/><rect class="cls-5" x="1482.34" y="1775.58" width="3.73" height="30.64"/><rect class="cls-5" x="1674.16" y="1775.58" width="3.73" height="30.64"/><rect class="cls-5" x="1682.1" y="1775.58" width="3.73" height="30.64"/><rect class="cls-5" x="1689.77" y="1775.58" width="3.73" height="30.64"/><path class="cls-5" d="M1699.27,1775.69v30.42a9.23,9.23,0,0,1-1.4.11h-2.33v-30.64h2.33A9.23,9.23,0,0,1,1699.27,1775.69Z"/><path class="cls-5" d="M1704.45,1778.53v24.74a7.87,7.87,0,0,1-3.73,2.5V1776A8,8,0,0,1,1704.45,1778.53Z"/><path class="cls-6" d="M1713.67,1751.62v17.3a5.91,5.91,0,0,1-1.36,3.72,7.93,7.93,0,0,1-3.73,2.49,8.53,8.53,0,0,1-1.45.35,9.23,9.23,0,0,1-1.4.1H1377.56c-4.23,0-7.71-2.81-7.93-6.32,0-.11,0-.23,0-.34v-17.3c0-.12,0-.23,0-.35.2-3.24,3.2-5.89,7-6.27a7.3,7.3,0,0,1,.94,0h328.17a10.73,10.73,0,0,1,1.4.1,8.53,8.53,0,0,1,1.45.35,7.93,7.93,0,0,1,3.73,2.49A5.92,5.92,0,0,1,1713.67,1751.62Z"/><path class="cls-5" d="M1552.52,1775.58H1376.71a6.94,6.94,0,0,1-7.08-6.32c0-.11,0-.23,0-.34v-17.3c0-.12,0-.23,0-.35a6.89,6.89,0,0,1,6.24-6.27,5.92,5.92,0,0,1,.84,0h154.22s0,0,0,0A53.71,53.71,0,0,0,1552.52,1775.58Z"/><rect class="cls-5" x="1670.01" y="1744.95" width="3.73" height="30.64"/><rect class="cls-5" x="1657.38" y="1744.95" width="3.73" height="30.64"/><rect class="cls-5" x="1642.24" y="1744.95" width="3.73" height="30.64"/><rect class="cls-5" x="1619.04" y="1744.95" width="3.73" height="30.64"/><rect class="cls-5" x="1594.5" y="1744.95" width="3.73" height="30.64"/><rect class="cls-5" x="1556.87" y="1744.95" width="3.73" height="30.64"/><rect class="cls-5" x="1521.65" y="1744.95" width="3.73" height="30.64"/><rect class="cls-5" x="1490.2" y="1744.95" width="3.73" height="30.64"/><rect class="cls-5" x="1682.02" y="1744.95" width="3.73" height="30.64"/><rect class="cls-5" x="1689.96" y="1744.95" width="3.73" height="30.64"/><rect class="cls-5" x="1697.63" y="1744.95" width="3.73" height="30.64"/><path class="cls-5" d="M1707.13,1745.05v30.43a9.23,9.23,0,0,1-1.4.1h-2.33V1745h2.33A9.23,9.23,0,0,1,1707.13,1745.05Z"/><path class="cls-5" d="M1712.31,1747.89v24.75a7.93,7.93,0,0,1-3.73,2.49V1745.4A7.93,7.93,0,0,1,1712.31,1747.89Z"/><path class="cls-6" d="M1689.54,1721v17.3a5.87,5.87,0,0,1-1.36,3.72,7.92,7.92,0,0,1-3.73,2.5,8.51,8.51,0,0,1-1.45.34l-.46.06-.26,0-.26,0H1353.44c-4.23,0-7.72-2.82-7.93-6.33,0-.11,0-.23,0-.34V1721c0-.12,0-.23,0-.35s0-.18,0-.28c.31-2.82,2.75-5.15,6-5.83l.24,0a9.65,9.65,0,0,1,1.72-.16H1681.6c.24,0,.48,0,.71,0l.32,0h0l.37,0a8.51,8.51,0,0,1,1.45.34,7.83,7.83,0,0,1,3.73,2.49A5.92,5.92,0,0,1,1689.54,1721Z"/><path class="cls-5" d="M1528.39,1745h-175.8a6.94,6.94,0,0,1-7.08-6.33c0-.11,0-.23,0-.34V1721c0-.12,0-.23,0-.35s0-.18,0-.28a6.83,6.83,0,0,1,5.5-5.87l.3-.06a7.47,7.47,0,0,1,1.26-.11H1506.8c0,.07,0,.14.07.22a53.73,53.73,0,0,0,21.45,30.37A.18.18,0,0,1,1528.39,1745Z"/><rect class="cls-5" x="1645.88" y="1714.36" width="3.73" height="30.64"/><rect class="cls-5" x="1633.25" y="1714.36" width="3.73" height="30.64"/><rect class="cls-5" x="1618.11" y="1714.36" width="3.73" height="30.64"/><rect class="cls-5" x="1594.91" y="1714.36" width="3.73" height="30.64"/><rect class="cls-5" x="1570.37" y="1714.36" width="3.73" height="30.64"/><rect class="cls-5" x="1532.75" y="1714.36" width="3.73" height="30.64"/><rect class="cls-5" x="1497.52" y="1714.36" width="3.73" height="30.64"/><rect class="cls-5" x="1466.07" y="1714.36" width="3.73" height="30.64"/><rect class="cls-5" x="1657.9" y="1714.36" width="3.73" height="30.64"/><rect class="cls-5" x="1665.84" y="1714.36" width="3.73" height="30.64"/><rect class="cls-5" x="1673.5" y="1714.36" width="3.73" height="30.64"/><path class="cls-5" d="M1683,1714.47v30.42a9.23,9.23,0,0,1-1.4.11h-2.33v-30.64h2.33A9.23,9.23,0,0,1,1683,1714.47Z"/><path class="cls-5" d="M1688.18,1717.3v24.75a7.83,7.83,0,0,1-3.73,2.49v-29.73A7.83,7.83,0,0,1,1688.18,1717.3Z"/><path class="cls-6" d="M1688.85,1690.61v17.3a5.87,5.87,0,0,1-1.36,3.72,7.92,7.92,0,0,1-3.73,2.5,9.83,9.83,0,0,1-1.13.29h0l-.31,0a9.13,9.13,0,0,1-1.4.11H1352.75a8.64,8.64,0,0,1-1-.06l-.39,0c-3.57-.55-6.32-3.11-6.51-6.22,0-.11,0-.23,0-.34v-17.3c0-.12,0-.23,0-.34.21-3.51,3.7-6.33,7.93-6.33h328.16l.63,0,.27,0,.29,0,.21,0a8.51,8.51,0,0,1,1.45.34l.21.07.2.07.4.17.43.2.38.2c.14.08.27.17.4.26a2.11,2.11,0,0,1,.31.21h0l.2.15a7,7,0,0,1,.57.5,1.17,1.17,0,0,1,.16.15l.16.17c.1.11.2.22.29.34A5.87,5.87,0,0,1,1688.85,1690.61Z"/><path class="cls-5" d="M1527.71,1714.58H1351.48l-.45,0a6.88,6.88,0,0,1-6.21-6.28c0-.11,0-.23,0-.34v-17.3c0-.12,0-.23,0-.34a6.94,6.94,0,0,1,7.08-6.33h154.21c.07.25.14.5.22.76a53.6,53.6,0,0,0,21.06,29.66Z"/><rect class="cls-5" x="1645.19" y="1683.94" width="3.73" height="30.64"/><rect class="cls-5" x="1632.56" y="1683.94" width="3.73" height="30.64"/><rect class="cls-5" x="1617.42" y="1683.94" width="3.73" height="30.64"/><rect class="cls-5" x="1594.22" y="1683.94" width="3.73" height="30.64"/><rect class="cls-5" x="1569.68" y="1683.94" width="3.73" height="30.64"/><rect class="cls-5" x="1532.06" y="1683.94" width="3.73" height="30.64"/><rect class="cls-5" x="1496.83" y="1683.94" width="3.73" height="30.64"/><rect class="cls-5" x="1465.38" y="1683.94" width="3.73" height="30.64"/><rect class="cls-5" x="1657.21" y="1683.94" width="3.73" height="30.64"/><rect class="cls-5" x="1665.15" y="1683.94" width="3.73" height="30.64"/><rect class="cls-5" x="1672.81" y="1683.94" width="3.73" height="30.64"/><path class="cls-5" d="M1682.31,1684.05v30.42a9.23,9.23,0,0,1-1.4.11h-2.33v-30.64h2.33A9.23,9.23,0,0,1,1682.31,1684.05Z"/><path class="cls-5" d="M1687.49,1686.89v24.74a7.92,7.92,0,0,1-3.73,2.5v-29.74A7.85,7.85,0,0,1,1687.49,1686.89Z"/><path class="cls-6" d="M1705.81,1660.73V1678a5.87,5.87,0,0,1-1.36,3.72,8,8,0,0,1-3.73,2.5,8.74,8.74,0,0,1-1.45.34,9.23,9.23,0,0,1-1.4.11H1369.7a9.18,9.18,0,0,1-3.66-.76,6.8,6.8,0,0,1-4.24-5.27l0-.3c0-.11,0-.23,0-.34v-17.3c0-.12,0-.23,0-.34.22-3.51,3.7-6.33,7.93-6.33h328.17a9.23,9.23,0,0,1,1.4.11,8.74,8.74,0,0,1,1.45.34,7.87,7.87,0,0,1,3.73,2.5A5.87,5.87,0,0,1,1705.81,1660.73Z"/><path class="cls-5" d="M1544.66,1684.7H1368.85a7.34,7.34,0,0,1-3.26-.76,6.68,6.68,0,0,1-3.79-5.27l0-.3c0-.11,0-.23,0-.34v-17.3c0-.12,0-.23,0-.34a6.94,6.94,0,0,1,7.08-6.33h154.22a53.8,53.8,0,0,0,20.51,29.88Z"/><rect class="cls-5" x="1662.15" y="1654.06" width="3.73" height="30.64"/><rect class="cls-5" x="1649.52" y="1654.06" width="3.73" height="30.64"/><rect class="cls-5" x="1634.38" y="1654.06" width="3.73" height="30.64"/><rect class="cls-5" x="1611.17" y="1654.06" width="3.73" height="30.64"/><rect class="cls-5" x="1586.63" y="1654.06" width="3.73" height="30.64"/><rect class="cls-5" x="1549.01" y="1654.06" width="3.73" height="30.64"/><rect class="cls-5" x="1513.79" y="1654.06" width="3.73" height="30.64"/><rect class="cls-5" x="1482.34" y="1654.06" width="3.73" height="30.64"/><rect class="cls-5" x="1674.16" y="1654.06" width="3.73" height="30.64"/><rect class="cls-5" x="1682.1" y="1654.06" width="3.73" height="30.64"/><rect class="cls-5" x="1689.77" y="1654.06" width="3.73" height="30.64"/><path class="cls-5" d="M1699.27,1654.17v30.42a9.23,9.23,0,0,1-1.4.11h-2.33v-30.64h2.33A9.23,9.23,0,0,1,1699.27,1654.17Z"/><path class="cls-5" d="M1704.45,1657v24.74a8,8,0,0,1-3.73,2.5v-29.74A8,8,0,0,1,1704.45,1657Z"/><path class="cls-6" d="M1732.62,1630.09v17.3a5.92,5.92,0,0,1-1.36,3.73,7.85,7.85,0,0,1-3.72,2.49,8,8,0,0,1-1.46.34,9.13,9.13,0,0,1-1.4.11H1396.52c-4.23,0-7.72-2.81-7.93-6.32,0-.12,0-.23,0-.35v-17.3c0-.11,0-.23,0-.34.2-3.24,3.19-5.9,7-6.28.31,0,.62,0,.94,0h328.16a9.13,9.13,0,0,1,1.4.11,10,10,0,0,1,1.46.34,7.94,7.94,0,0,1,3.72,2.5A5.87,5.87,0,0,1,1732.62,1630.09Z"/><path class="cls-5" d="M1571.48,1654.06H1395.67a6.93,6.93,0,0,1-7.08-6.32c0-.12,0-.23,0-.35v-17.3c0-.11,0-.23,0-.34a6.88,6.88,0,0,1,6.24-6.28,7.58,7.58,0,0,1,.84,0h154.22v0A53.68,53.68,0,0,0,1571.48,1654.06Z"/><rect class="cls-5" x="1688.96" y="1623.42" width="3.73" height="30.64"/><rect class="cls-5" x="1676.34" y="1623.42" width="3.73" height="30.64"/><rect class="cls-5" x="1661.2" y="1623.42" width="3.73" height="30.64"/><rect class="cls-5" x="1637.99" y="1623.42" width="3.73" height="30.64"/><rect class="cls-5" x="1613.45" y="1623.42" width="3.73" height="30.64"/><rect class="cls-5" x="1575.83" y="1623.42" width="3.73" height="30.64"/><rect class="cls-5" x="1540.61" y="1623.42" width="3.73" height="30.64"/><rect class="cls-5" x="1509.16" y="1623.42" width="3.73" height="30.64"/><rect class="cls-5" x="1700.98" y="1623.42" width="3.73" height="30.64"/><rect class="cls-5" x="1708.92" y="1623.42" width="3.73" height="30.64"/><rect class="cls-5" x="1716.59" y="1623.42" width="3.73" height="30.64"/><path class="cls-5" d="M1726.09,1623.53V1654a9.33,9.33,0,0,1-1.4.11h-2.33v-30.64h2.33A9.33,9.33,0,0,1,1726.09,1623.53Z"/><path class="cls-5" d="M1731.27,1626.37v24.75a7.93,7.93,0,0,1-3.73,2.49v-29.74A8,8,0,0,1,1731.27,1626.37Z"/><path class="cls-6" d="M1689.54,1599.5v17.3a5.92,5.92,0,0,1-1.36,3.73,7.83,7.83,0,0,1-3.73,2.49,8.53,8.53,0,0,1-1.45.35l-.46.05a2.31,2.31,0,0,1-.37,0H1353.44c-4.23,0-7.72-2.81-7.93-6.32,0-.12,0-.23,0-.35v-17.3c0-.11,0-.22,0-.34.21-3.51,3.7-6.32,7.93-6.32H1682c.34,0,.66.05,1,.09a8.53,8.53,0,0,1,1.45.35,7,7,0,0,1,.69.25l.41.19,0,0,.4.21.07,0c.12.06.24.14.36.21a7.64,7.64,0,0,1,.79.58l.22.2,0,0,.14.12,0,0a1.75,1.75,0,0,1,.23.24l.32.36A5.91,5.91,0,0,1,1689.54,1599.5Z"/><path class="cls-5" d="M1528.39,1623.47h-175.8a6.93,6.93,0,0,1-7.08-6.32c0-.12,0-.23,0-.35v-17.3c0-.11,0-.22,0-.34a6.93,6.93,0,0,1,7.08-6.32H1506.8c.07.23.13.46.21.7a53.57,53.57,0,0,0,21.31,29.88Z"/><rect class="cls-5" x="1645.88" y="1592.84" width="3.73" height="30.64"/><rect class="cls-5" x="1633.25" y="1592.84" width="3.73" height="30.64"/><rect class="cls-5" x="1618.11" y="1592.84" width="3.73" height="30.64"/><rect class="cls-5" x="1594.91" y="1592.84" width="3.73" height="30.64"/><rect class="cls-5" x="1570.37" y="1592.84" width="3.73" height="30.64"/><rect class="cls-5" x="1532.75" y="1592.84" width="3.73" height="30.64"/><rect class="cls-5" x="1497.52" y="1592.84" width="3.73" height="30.64"/><rect class="cls-5" x="1466.07" y="1592.84" width="3.73" height="30.64"/><rect class="cls-5" x="1657.9" y="1592.84" width="3.73" height="30.64"/><rect class="cls-5" x="1665.84" y="1592.84" width="3.73" height="30.64"/><rect class="cls-5" x="1673.5" y="1592.84" width="3.73" height="30.64"/><path class="cls-5" d="M1683,1592.94v30.43a9.23,9.23,0,0,1-1.4.1h-2.33v-30.63h2.33A9.23,9.23,0,0,1,1683,1592.94Z"/><path class="cls-5" d="M1688.18,1595.78v24.75a7.83,7.83,0,0,1-3.73,2.49v-29.73A7.83,7.83,0,0,1,1688.18,1595.78Z"/><path class="cls-6" d="M1713.67,1569.58v17.3a5.91,5.91,0,0,1-1.36,3.72,7.93,7.93,0,0,1-3.73,2.49,8.53,8.53,0,0,1-1.45.35,9.23,9.23,0,0,1-1.4.1H1377.56a9.09,9.09,0,0,1-3.54-.7,6.83,6.83,0,0,1-4.37-5.35,2.45,2.45,0,0,0,0-.27c0-.12,0-.23,0-.34v-17.3c0-.12,0-.23,0-.35.2-3.24,3.2-5.89,7-6.27a7.3,7.3,0,0,1,.94,0h328.17a9.23,9.23,0,0,1,1.4.1,8.53,8.53,0,0,1,1.45.35,7.93,7.93,0,0,1,3.73,2.49A5.92,5.92,0,0,1,1713.67,1569.58Z"/><path class="cls-5" d="M1552.52,1593.54H1376.71a7.39,7.39,0,0,1-3.16-.7,6.74,6.74,0,0,1-3.9-5.35,2.45,2.45,0,0,0,0-.27c0-.12,0-.23,0-.34v-17.3c0-.12,0-.23,0-.35a6.89,6.89,0,0,1,6.24-6.27,5.92,5.92,0,0,1,.84,0h154.22s0,0,0,0a53.75,53.75,0,0,0,20.56,29.88C1551.84,1593.08,1552.18,1593.31,1552.52,1593.54Z"/><rect class="cls-5" x="1670.01" y="1562.91" width="3.73" height="30.64"/><rect class="cls-5" x="1657.38" y="1562.91" width="3.73" height="30.64"/><rect class="cls-5" x="1642.24" y="1562.91" width="3.73" height="30.64"/><rect class="cls-5" x="1619.04" y="1562.91" width="3.73" height="30.64"/><rect class="cls-5" x="1594.5" y="1562.91" width="3.73" height="30.64"/><rect class="cls-5" x="1556.87" y="1562.91" width="3.73" height="30.64"/><rect class="cls-5" x="1521.65" y="1562.91" width="3.73" height="30.64"/><rect class="cls-5" x="1490.2" y="1562.91" width="3.73" height="30.64"/><rect class="cls-5" x="1682.02" y="1562.91" width="3.73" height="30.64"/><rect class="cls-5" x="1689.96" y="1562.91" width="3.73" height="30.64"/><rect class="cls-5" x="1697.63" y="1562.91" width="3.73" height="30.64"/><path class="cls-5" d="M1707.13,1563v30.43a9.23,9.23,0,0,1-1.4.1h-2.33v-30.63h2.33A9.23,9.23,0,0,1,1707.13,1563Z"/><path class="cls-5" d="M1712.31,1565.85v24.75a7.93,7.93,0,0,1-3.73,2.49v-29.73A7.93,7.93,0,0,1,1712.31,1565.85Z"/><path class="cls-6" d="M1723.94,1539v17.3a5.87,5.87,0,0,1-1.36,3.72,8,8,0,0,1-3.73,2.5,8.51,8.51,0,0,1-1.45.34l-.46.06-.26,0h-.26l-.42,0H1387.83c-4.23,0-7.71-2.82-7.93-6.33,0-.11,0-.23,0-.34V1539c0-.12,0-.23,0-.35.22-3.5,3.7-6.32,7.93-6.32H1716a9.23,9.23,0,0,1,1.4.11,7.66,7.66,0,0,1,1.45.34,7.93,7.93,0,0,1,3.73,2.49A5.92,5.92,0,0,1,1723.94,1539Z"/><path class="cls-5" d="M1562.79,1563H1387a7,7,0,0,1-7.08-6.33c0-.11,0-.23,0-.34V1539c0-.12,0-.23,0-.35a7,7,0,0,1,7.08-6.32H1541.2a53.72,53.72,0,0,0,21.52,30.59Z"/><rect class="cls-5" x="1680.28" y="1532.32" width="3.73" height="30.64"/><rect class="cls-5" x="1667.65" y="1532.32" width="3.73" height="30.64"/><rect class="cls-5" x="1652.51" y="1532.32" width="3.73" height="30.64"/><rect class="cls-5" x="1629.31" y="1532.32" width="3.73" height="30.64"/><rect class="cls-5" x="1604.77" y="1532.32" width="3.73" height="30.64"/><rect class="cls-5" x="1567.14" y="1532.32" width="3.73" height="30.64"/><rect class="cls-5" x="1531.92" y="1532.32" width="3.73" height="30.64"/><rect class="cls-5" x="1500.47" y="1532.32" width="3.73" height="30.64"/><rect class="cls-5" x="1692.29" y="1532.32" width="3.73" height="30.64"/><rect class="cls-5" x="1700.23" y="1532.32" width="3.73" height="30.64"/><rect class="cls-5" x="1707.9" y="1532.32" width="3.73" height="30.64"/><path class="cls-5" d="M1717.4,1532.43v30.42a9.23,9.23,0,0,1-1.4.1h-2.33v-30.63H1716A9.23,9.23,0,0,1,1717.4,1532.43Z"/><path class="cls-5" d="M1722.58,1535.26V1560a8,8,0,0,1-3.73,2.5v-29.74A7.93,7.93,0,0,1,1722.58,1535.26Z"/><path class="cls-6" d="M1706.87,1507.83v17.3a5.89,5.89,0,0,1-1.36,3.72,7.85,7.85,0,0,1-3.72,2.49,8.88,8.88,0,0,1-1.46.35,9.14,9.14,0,0,1-1.4.1H1370.77c-4.23,0-7.72-2.81-7.93-6.32,0-.11,0-.23,0-.34v-17.3c0-.12,0-.23,0-.35.21-3.51,3.7-6.32,7.93-6.32h328.16a9.13,9.13,0,0,1,1.4.11,8,8,0,0,1,1.46.34,7.85,7.85,0,0,1,3.72,2.49A5.92,5.92,0,0,1,1706.87,1507.83Z"/><path class="cls-5" d="M1545.73,1531.79H1369.92a6.93,6.93,0,0,1-7.08-6.32c0-.11,0-.23,0-.34v-17.3c0-.12,0-.23,0-.35a6.93,6.93,0,0,1,7.08-6.32h154.22A53.66,53.66,0,0,0,1545.73,1531.79Z"/><rect class="cls-5" x="1663.21" y="1501.16" width="3.73" height="30.64"/><rect class="cls-5" x="1650.59" y="1501.16" width="3.73" height="30.64"/><rect class="cls-5" x="1635.45" y="1501.16" width="3.73" height="30.64"/><rect class="cls-5" x="1612.24" y="1501.16" width="3.73" height="30.64"/><rect class="cls-5" x="1587.7" y="1501.16" width="3.73" height="30.64"/><rect class="cls-5" x="1550.08" y="1501.16" width="3.73" height="30.64"/><rect class="cls-5" x="1514.85" y="1501.16" width="3.73" height="30.64"/><rect class="cls-5" x="1483.4" y="1501.16" width="3.73" height="30.64"/><rect class="cls-5" x="1675.23" y="1501.16" width="3.73" height="30.64"/><rect class="cls-5" x="1683.17" y="1501.16" width="3.73" height="30.64"/><rect class="cls-5" x="1690.83" y="1501.16" width="3.73" height="30.64"/><path class="cls-5" d="M1700.33,1501.27v30.42a9.14,9.14,0,0,1-1.4.1h-2.33v-30.63h2.33A9.13,9.13,0,0,1,1700.33,1501.27Z"/><path class="cls-5" d="M1705.51,1504.1v24.75a7.85,7.85,0,0,1-3.72,2.49v-29.73A7.85,7.85,0,0,1,1705.51,1504.1Z"/><path class="cls-6" d="M1671.79,1477.19v17.3a5.82,5.82,0,0,1-1.37,3.72,7.94,7.94,0,0,1-3.72,2.5,8.74,8.74,0,0,1-1.45.34,9.33,9.33,0,0,1-1.4.11H1335.68c-4.23,0-7.71-2.82-7.93-6.33,0-.11,0-.22,0-.34v-17.3c0-.11,0-.23,0-.34.22-3.51,3.7-6.33,7.93-6.33h328.17l.62,0,.27,0,.3,0,.21,0a8.74,8.74,0,0,1,1.45.34l.21.07.2.08.4.16.22.1.21.1.37.2.41.26.31.21h0l.2.15a7.2,7.2,0,0,1,.58.5,1.21,1.21,0,0,1,.16.16l.15.16c.1.11.2.22.29.34A5.82,5.82,0,0,1,1671.79,1477.19Z"/><path class="cls-5" d="M1510.64,1501.16H1334.83a6.94,6.94,0,0,1-7.08-6.33c0-.11,0-.22,0-.34v-17.3c0-.11,0-.23,0-.34a6.94,6.94,0,0,1,7.08-6.33h154.22l.21.76A53.63,53.63,0,0,0,1510.64,1501.16Z"/><rect class="cls-5" x="1628.12" y="1470.52" width="3.73" height="30.64"/><rect class="cls-5" x="1615.5" y="1470.52" width="3.73" height="30.64"/><rect class="cls-5" x="1600.36" y="1470.52" width="3.73" height="30.64"/><rect class="cls-5" x="1577.15" y="1470.52" width="3.73" height="30.64"/><rect class="cls-5" x="1552.61" y="1470.52" width="3.73" height="30.64"/><rect class="cls-5" x="1514.99" y="1470.52" width="3.73" height="30.64"/><rect class="cls-5" x="1479.77" y="1470.52" width="3.73" height="30.64"/><rect class="cls-5" x="1448.31" y="1470.52" width="3.73" height="30.64"/><rect class="cls-5" x="1640.14" y="1470.52" width="3.73" height="30.64"/><rect class="cls-5" x="1648.08" y="1470.52" width="3.73" height="30.64"/><rect class="cls-5" x="1655.75" y="1470.52" width="3.73" height="30.64"/><path class="cls-5" d="M1665.25,1470.63v30.42a9.33,9.33,0,0,1-1.4.11h-2.34v-30.64h2.34A9.33,9.33,0,0,1,1665.25,1470.63Z"/><path class="cls-5" d="M1670.42,1473.47v24.74a7.94,7.94,0,0,1-3.72,2.5V1471A7.87,7.87,0,0,1,1670.42,1473.47Z"/><path class="cls-6" d="M1688.74,1447.31v17.3a5.87,5.87,0,0,1-1.36,3.72,7.92,7.92,0,0,1-3.73,2.5,8.51,8.51,0,0,1-1.45.34,9.23,9.23,0,0,1-1.4.11H1352.64a9.1,9.1,0,0,1-3.66-.76,6.81,6.81,0,0,1-4.25-5.27c0-.1,0-.2,0-.3s0-.23,0-.34v-17.3c0-.11,0-.23,0-.34.21-3.51,3.7-6.33,7.93-6.33H1680.8a9.23,9.23,0,0,1,1.4.11,8.51,8.51,0,0,1,1.45.34,7.85,7.85,0,0,1,3.73,2.5A5.87,5.87,0,0,1,1688.74,1447.31Z"/><path class="cls-5" d="M1527.59,1471.28h-175.8a7.42,7.42,0,0,1-3.27-.76,6.68,6.68,0,0,1-3.79-5.27c0-.1,0-.2,0-.3s0-.23,0-.34v-17.3c0-.11,0-.23,0-.34a6.94,6.94,0,0,1,7.08-6.33H1506a53.82,53.82,0,0,0,20.52,29.88C1526.87,1470.78,1527.23,1471,1527.59,1471.28Z"/><rect class="cls-5" x="1645.08" y="1440.64" width="3.73" height="30.64"/><rect class="cls-5" x="1632.45" y="1440.64" width="3.73" height="30.64"/><rect class="cls-5" x="1617.31" y="1440.64" width="3.73" height="30.64"/><rect class="cls-5" x="1594.11" y="1440.64" width="3.73" height="30.64"/><rect class="cls-5" x="1569.57" y="1440.64" width="3.73" height="30.64"/><rect class="cls-5" x="1531.95" y="1440.64" width="3.73" height="30.64"/><rect class="cls-5" x="1496.72" y="1440.64" width="3.73" height="30.64"/><rect class="cls-5" x="1465.27" y="1440.64" width="3.73" height="30.64"/><rect class="cls-5" x="1657.1" y="1440.64" width="3.73" height="30.64"/><rect class="cls-5" x="1665.04" y="1440.64" width="3.73" height="30.64"/><rect class="cls-5" x="1672.7" y="1440.64" width="3.73" height="30.64"/><path class="cls-5" d="M1682.2,1440.75v30.42a9.13,9.13,0,0,1-1.4.11h-2.33v-30.64h2.33A9.13,9.13,0,0,1,1682.2,1440.75Z"/><path class="cls-5" d="M1687.38,1443.59v24.74a7.92,7.92,0,0,1-3.73,2.5v-29.74A7.85,7.85,0,0,1,1687.38,1443.59Z"/><path class="cls-6" d="M1696.6,1416.67V1434a5.92,5.92,0,0,1-1.36,3.73,7.83,7.83,0,0,1-3.73,2.49,8.53,8.53,0,0,1-1.45.35,10.6,10.6,0,0,1-1.4.1H1360.5c-4.23,0-7.72-2.81-7.93-6.32,0-.12,0-.23,0-.35v-17.3c0-.11,0-.23,0-.34.19-3.25,3.19-5.9,7-6.28.31,0,.62,0,.94,0h328.16a9.14,9.14,0,0,1,1.4.1,9.58,9.58,0,0,1,1.45.34,7.92,7.92,0,0,1,3.73,2.5A5.89,5.89,0,0,1,1696.6,1416.67Z"/><path class="cls-5" d="M1535.46,1440.64H1359.65a6.93,6.93,0,0,1-7.08-6.32c0-.12,0-.23,0-.35v-17.3c0-.11,0-.23,0-.34a6.88,6.88,0,0,1,6.24-6.28,7.63,7.63,0,0,1,.84,0h154.22v0A53.68,53.68,0,0,0,1535.46,1440.64Z"/><rect class="cls-5" x="1652.94" y="1410" width="3.73" height="30.64"/><rect class="cls-5" x="1640.32" y="1410" width="3.73" height="30.64"/><rect class="cls-5" x="1625.17" y="1410" width="3.73" height="30.64"/><rect class="cls-5" x="1601.97" y="1410" width="3.73" height="30.64"/><rect class="cls-5" x="1577.43" y="1410" width="3.73" height="30.64"/><rect class="cls-5" x="1539.81" y="1410" width="3.73" height="30.64"/><rect class="cls-5" x="1504.58" y="1410" width="3.73" height="30.64"/><rect class="cls-5" x="1473.13" y="1410" width="3.73" height="30.64"/><rect class="cls-5" x="1664.96" y="1410" width="3.73" height="30.64"/><rect class="cls-5" x="1672.9" y="1410" width="3.73" height="30.64"/><rect class="cls-5" x="1680.56" y="1410" width="3.73" height="30.64"/><path class="cls-5" d="M1690.06,1410.11v30.42a9.13,9.13,0,0,1-1.4.11h-2.33V1410h2.33A9.13,9.13,0,0,1,1690.06,1410.11Z"/><path class="cls-5" d="M1695.24,1413v24.75a7.83,7.83,0,0,1-3.73,2.49v-29.74A7.92,7.92,0,0,1,1695.24,1413Z"/><path class="cls-6" d="M1672.47,1386.08v17.31a5.91,5.91,0,0,1-1.36,3.72,7.85,7.85,0,0,1-3.72,2.49,8.64,8.64,0,0,1-1.46.35l-.46.06-.26,0H1336.37c-4.23,0-7.72-2.81-7.93-6.32,0-.12,0-.23,0-.34v-17.31c0-.11,0-.22,0-.34a2.64,2.64,0,0,1,0-.28c.32-2.82,2.76-5.15,6-5.84l.24,0a8.88,8.88,0,0,1,1.72-.16h328.17l.71,0,.31,0h0l.36,0a8.64,8.64,0,0,1,1.46.35,7.85,7.85,0,0,1,3.72,2.49A5.91,5.91,0,0,1,1672.47,1386.08Z"/><path class="cls-5" d="M1511.33,1410.05H1335.52a6.93,6.93,0,0,1-7.08-6.32c0-.12,0-.23,0-.34v-17.31c0-.11,0-.22,0-.34a2.64,2.64,0,0,1,0-.28,6.87,6.87,0,0,1,5.5-5.88l.3-.06a7.48,7.48,0,0,1,1.26-.1h154.22l.06.21a53.69,53.69,0,0,0,21.46,30.38Z"/><rect class="cls-5" x="1628.81" y="1379.42" width="3.73" height="30.64"/><rect class="cls-5" x="1616.19" y="1379.42" width="3.73" height="30.64"/><rect class="cls-5" x="1601.05" y="1379.42" width="3.73" height="30.64"/><rect class="cls-5" x="1577.84" y="1379.42" width="3.73" height="30.64"/><rect class="cls-5" x="1553.3" y="1379.42" width="3.73" height="30.64"/><rect class="cls-5" x="1515.68" y="1379.42" width="3.73" height="30.64"/><rect class="cls-5" x="1480.46" y="1379.42" width="3.73" height="30.64"/><rect class="cls-5" x="1449" y="1379.42" width="3.73" height="30.64"/><rect class="cls-5" x="1640.83" y="1379.42" width="3.73" height="30.64"/><rect class="cls-5" x="1648.77" y="1379.42" width="3.73" height="30.64"/><rect class="cls-5" x="1656.44" y="1379.42" width="3.73" height="30.64"/><path class="cls-5" d="M1665.94,1379.52V1410a9.32,9.32,0,0,1-1.4.1h-2.34v-30.63h2.34A9.32,9.32,0,0,1,1665.94,1379.52Z"/><path class="cls-5" d="M1671.11,1382.36v24.75a7.85,7.85,0,0,1-3.72,2.49v-29.73A7.85,7.85,0,0,1,1671.11,1382.36Z"/><path class="cls-6" d="M1671.79,1355.67V1373a5.85,5.85,0,0,1-1.37,3.72,7.94,7.94,0,0,1-3.72,2.5,8.88,8.88,0,0,1-1.13.28h0l-.31.06a9.32,9.32,0,0,1-1.4.1H1335.68a8.88,8.88,0,0,1-1-.05l-.39-.06c-3.56-.54-6.32-3.1-6.51-6.21,0-.11,0-.23,0-.34v-17.3c0-.12,0-.23,0-.35.22-3.5,3.7-6.32,7.93-6.32h328.17l.62,0,.27,0,.3,0,.21,0a7.84,7.84,0,0,1,1.45.34l.21.07.2.07.4.16.43.21.37.2.41.25.31.21s0,0,0,0l.2.15a5.63,5.63,0,0,1,.58.5l.16.15.15.16.29.34A5.87,5.87,0,0,1,1671.79,1355.67Z"/><path class="cls-5" d="M1510.64,1379.63H1334.41a3.42,3.42,0,0,1-.45,0,6.87,6.87,0,0,1-6.21-6.27c0-.11,0-.23,0-.34v-17.3c0-.12,0-.23,0-.35a6.94,6.94,0,0,1,7.08-6.32h154.22l.21.75a53.64,53.64,0,0,0,21.06,29.67Z"/><rect class="cls-5" x="1628.12" y="1349" width="3.73" height="30.64"/><rect class="cls-5" x="1615.5" y="1349" width="3.73" height="30.64"/><rect class="cls-5" x="1600.36" y="1349" width="3.73" height="30.64"/><rect class="cls-5" x="1577.15" y="1349" width="3.73" height="30.64"/><rect class="cls-5" x="1552.61" y="1349" width="3.73" height="30.64"/><rect class="cls-5" x="1514.99" y="1349" width="3.73" height="30.64"/><rect class="cls-5" x="1479.77" y="1349" width="3.73" height="30.64"/><rect class="cls-5" x="1448.31" y="1349" width="3.73" height="30.64"/><rect class="cls-5" x="1640.14" y="1349" width="3.73" height="30.64"/><rect class="cls-5" x="1648.08" y="1349" width="3.73" height="30.64"/><rect class="cls-5" x="1655.75" y="1349" width="3.73" height="30.64"/><path class="cls-5" d="M1665.25,1349.11v30.42a9.33,9.33,0,0,1-1.4.11h-2.34V1349h2.34A9.33,9.33,0,0,1,1665.25,1349.11Z"/><path class="cls-5" d="M1670.42,1351.94v24.75a7.94,7.94,0,0,1-3.72,2.5v-29.74A7.85,7.85,0,0,1,1670.42,1351.94Z"/><path class="cls-6" d="M1688.74,1325.79v17.3a5.89,5.89,0,0,1-1.36,3.72,7.83,7.83,0,0,1-3.73,2.49,8.53,8.53,0,0,1-1.45.35,9.23,9.23,0,0,1-1.4.1H1352.64a9.1,9.1,0,0,1-3.66-.75,6.81,6.81,0,0,1-4.25-5.27c0-.1,0-.2,0-.3s0-.23,0-.34v-17.3c0-.12,0-.23,0-.35.21-3.51,3.7-6.32,7.93-6.32H1680.8a9.23,9.23,0,0,1,1.4.11,7.66,7.66,0,0,1,1.45.34,7.83,7.83,0,0,1,3.73,2.49A5.92,5.92,0,0,1,1688.74,1325.79Z"/><path class="cls-5" d="M1527.59,1349.75h-175.8a7.41,7.41,0,0,1-3.27-.75,6.68,6.68,0,0,1-3.79-5.27c0-.1,0-.2,0-.3s0-.23,0-.34v-17.3c0-.12,0-.23,0-.35a6.93,6.93,0,0,1,7.08-6.32H1506a53.82,53.82,0,0,0,20.52,29.88Z"/><rect class="cls-5" x="1645.08" y="1319.12" width="3.73" height="30.64"/><rect class="cls-5" x="1632.45" y="1319.12" width="3.73" height="30.64"/><rect class="cls-5" x="1617.31" y="1319.12" width="3.73" height="30.64"/><rect class="cls-5" x="1594.11" y="1319.12" width="3.73" height="30.64"/><rect class="cls-5" x="1569.57" y="1319.12" width="3.73" height="30.64"/><rect class="cls-5" x="1531.95" y="1319.12" width="3.73" height="30.64"/><rect class="cls-5" x="1496.72" y="1319.12" width="3.73" height="30.64"/><rect class="cls-5" x="1465.27" y="1319.12" width="3.73" height="30.64"/><rect class="cls-5" x="1657.1" y="1319.12" width="3.73" height="30.64"/><rect class="cls-5" x="1665.04" y="1319.12" width="3.73" height="30.64"/><rect class="cls-5" x="1672.7" y="1319.12" width="3.73" height="30.64"/><path class="cls-5" d="M1682.2,1319.23v30.42a9.14,9.14,0,0,1-1.4.1h-2.33v-30.63h2.33A9.13,9.13,0,0,1,1682.2,1319.23Z"/><path class="cls-5" d="M1687.38,1322.06v24.75a7.92,7.92,0,0,1-3.73,2.5v-29.74A7.83,7.83,0,0,1,1687.38,1322.06Z"/><path class="cls-6" d="M1715.56,1295.15v17.3a5.87,5.87,0,0,1-1.36,3.72,8,8,0,0,1-3.73,2.5,8.51,8.51,0,0,1-1.45.34,9.23,9.23,0,0,1-1.4.11H1379.45c-4.23,0-7.71-2.82-7.93-6.33,0-.11,0-.22,0-.34v-17.3c0-.11,0-.23,0-.34.2-3.25,3.2-5.9,7-6.28.3,0,.62,0,.93,0h328.17a9.23,9.23,0,0,1,1.4.11,8.51,8.51,0,0,1,1.45.34,8,8,0,0,1,3.73,2.5A5.87,5.87,0,0,1,1715.56,1295.15Z"/><path class="cls-5" d="M1554.41,1319.12H1378.6a7,7,0,0,1-7.08-6.33c0-.11,0-.22,0-.34v-17.3c0-.11,0-.23,0-.34a6.89,6.89,0,0,1,6.24-6.28,7.89,7.89,0,0,1,.84,0h154.22s0,0,0,0A53.7,53.7,0,0,0,1554.41,1319.12Z"/><rect class="cls-5" x="1671.9" y="1288.48" width="3.73" height="30.64"/><rect class="cls-5" x="1659.27" y="1288.48" width="3.73" height="30.64"/><rect class="cls-5" x="1644.13" y="1288.48" width="3.73" height="30.64"/><rect class="cls-5" x="1620.93" y="1288.48" width="3.73" height="30.64"/><rect class="cls-5" x="1596.39" y="1288.48" width="3.73" height="30.64"/><rect class="cls-5" x="1558.77" y="1288.48" width="3.73" height="30.64"/><rect class="cls-5" x="1523.54" y="1288.48" width="3.73" height="30.64"/><rect class="cls-5" x="1492.09" y="1288.48" width="3.73" height="30.64"/><rect class="cls-5" x="1683.92" y="1288.48" width="3.73" height="30.64"/><rect class="cls-5" x="1691.86" y="1288.48" width="3.73" height="30.64"/><rect class="cls-5" x="1699.52" y="1288.48" width="3.73" height="30.64"/><path class="cls-5" d="M1709,1288.59V1319a9.23,9.23,0,0,1-1.4.11h-2.33v-30.64h2.33A9.23,9.23,0,0,1,1709,1288.59Z"/><path class="cls-5" d="M1714.2,1291.43v24.74a8,8,0,0,1-3.73,2.5v-29.74A8,8,0,0,1,1714.2,1291.43Z"/><path class="cls-6" d="M2280.2,1841.84v17.3a5.89,5.89,0,0,1-1.37,3.73,7.85,7.85,0,0,1-3.72,2.49,8.76,8.76,0,0,1-1.45.35,9.36,9.36,0,0,1-1.41.1H1944.09c-4,0-7.28-2.47-7.86-5.67a4.81,4.81,0,0,1-.08-.65v-18a4.48,4.48,0,0,1,.08-.64c.58-3.2,3.9-5.67,7.86-5.67h328.16a10.89,10.89,0,0,1,1.41.09,9.89,9.89,0,0,1,1.45.35,7.79,7.79,0,0,1,3.72,2.5A5.87,5.87,0,0,1,2280.2,1841.84Z"/><path class="cls-5" d="M2119,1865.81h-175.8a7,7,0,0,1-6.82-4.94,4.61,4.61,0,0,1-.19-.73,4.81,4.81,0,0,1-.08-.65v-18a4.48,4.48,0,0,1,.08-.64,4.61,4.61,0,0,1,.19-.73,7,7,0,0,1,6.82-4.94h154.22A53.69,53.69,0,0,0,2119,1865.81Z"/><rect class="cls-5" x="2236.53" y="1835.18" width="3.73" height="30.64"/><rect class="cls-5" x="2223.91" y="1835.18" width="3.73" height="30.64"/><rect class="cls-5" x="2208.77" y="1835.18" width="3.73" height="30.64"/><rect class="cls-5" x="2185.56" y="1835.18" width="3.73" height="30.64"/><rect class="cls-5" x="2161.02" y="1835.18" width="3.73" height="30.64"/><rect class="cls-5" x="2123.4" y="1835.18" width="3.73" height="30.64"/><rect class="cls-5" x="2088.17" y="1835.18" width="3.73" height="30.64"/><rect class="cls-5" x="2056.72" y="1835.18" width="3.73" height="30.64"/><rect class="cls-5" x="2248.55" y="1835.18" width="3.73" height="30.64"/><rect class="cls-5" x="2256.49" y="1835.18" width="3.73" height="30.64"/><rect class="cls-5" x="2264.16" y="1835.18" width="3.73" height="30.64"/><path class="cls-5" d="M2273.65,1835.29v30.42a9.13,9.13,0,0,1-1.4.11h-2.33v-30.64h2.33A9.13,9.13,0,0,1,2273.65,1835.29Z"/><path class="cls-5" d="M2278.83,1838.13v24.74a7.94,7.94,0,0,1-3.72,2.5v-29.74A7.79,7.79,0,0,1,2278.83,1838.13Z"/><path class="cls-6" d="M2245.1,1811.21v17.31a5.85,5.85,0,0,1-1.35,3.71,7.82,7.82,0,0,1-3.73,2.5,9.72,9.72,0,0,1-1.46.35l-.69.07c-.23,0-.47,0-.7,0H1909c-4,0-7.28-2.49-7.86-5.69a4.64,4.64,0,0,1-.07-.64c0-.12,0-.24,0-.34v-17.31c0-.11,0-.23,0-.34a4.48,4.48,0,0,1,.07-.64c.58-3.21,3.9-5.68,7.86-5.68h328.17l.63,0,.22,0h0l.3,0,.2,0a8.64,8.64,0,0,1,1.46.35l.21.06.2.08.15.06.25.1.22.11.07,0,.14.06.37.21a7,7,0,0,1,.94.63,4.26,4.26,0,0,1,.38.32,7.81,7.81,0,0,1,.8.83A5.86,5.86,0,0,1,2245.1,1811.21Z"/><path class="cls-5" d="M2084,1835.19h-175.8a7,7,0,0,1-6.83-5,6,6,0,0,1-.19-.73,4.64,4.64,0,0,1-.07-.64c0-.12,0-.24,0-.34v-17.31c0-.11,0-.23,0-.34a4.48,4.48,0,0,1,.07-.64,6,6,0,0,1,.19-.73,7,7,0,0,1,6.83-5h154.2c.08.24.14.5.22.75a56,56,0,0,0,7.14,15.52A52.62,52.62,0,0,0,2084,1835.19Z"/><rect class="cls-5" x="2201.44" y="1804.54" width="3.73" height="30.64"/><rect class="cls-5" x="2188.82" y="1804.54" width="3.73" height="30.64"/><rect class="cls-5" x="2173.68" y="1804.54" width="3.73" height="30.64"/><rect class="cls-5" x="2150.47" y="1804.54" width="3.73" height="30.64"/><rect class="cls-5" x="2125.93" y="1804.54" width="3.73" height="30.64"/><rect class="cls-5" x="2088.31" y="1804.54" width="3.73" height="30.64"/><rect class="cls-5" x="2053.09" y="1804.54" width="3.73" height="30.64"/><rect class="cls-5" x="2021.63" y="1804.54" width="3.73" height="30.64"/><rect class="cls-5" x="2213.46" y="1804.54" width="3.73" height="30.64"/><rect class="cls-5" x="2221.4" y="1804.54" width="3.73" height="30.64"/><rect class="cls-5" x="2229.07" y="1804.54" width="3.73" height="30.64"/><path class="cls-5" d="M2238.57,1804.65v30.42a9.33,9.33,0,0,1-1.4.11h-2.33v-30.64h2.33A9.33,9.33,0,0,1,2238.57,1804.65Z"/><path class="cls-5" d="M2243.75,1807.49v24.74a7.87,7.87,0,0,1-3.73,2.5V1805A8,8,0,0,1,2243.75,1807.49Z"/><path class="cls-6" d="M2262.06,1781.33v17.3a5.91,5.91,0,0,1-1.35,3.73,8.18,8.18,0,0,1-3.73,2.49,9.66,9.66,0,0,1-2.86.45H1926a9.14,9.14,0,0,1-3.66-.75,6.81,6.81,0,0,1-4.24-5.28,1.39,1.39,0,0,1,0-.3c0-.1,0-.22,0-.34v-17.3c0-.11,0-.23,0-.35a4.64,4.64,0,0,1,.07-.64c.58-3.2,3.9-5.68,7.86-5.68h328.16a9.13,9.13,0,0,1,1.4.11,8.86,8.86,0,0,1,1.46.34,8,8,0,0,1,3.73,2.5A5.86,5.86,0,0,1,2262.06,1781.33Z"/><path class="cls-5" d="M2100.92,1805.3H1925.1a7.4,7.4,0,0,1-3.26-.75,6.69,6.69,0,0,1-3.78-5.28,1.39,1.39,0,0,1,0-.3c0-.1,0-.22,0-.34v-17.3c0-.11,0-.23,0-.35a4.64,4.64,0,0,1,.07-.64,6,6,0,0,1,.19-.73,7,7,0,0,1,6.81-4.95h154.23a56.5,56.5,0,0,0,4.76,12,52.5,52.5,0,0,0,15.74,17.93Z"/><rect class="cls-5" x="2218.4" y="1774.66" width="3.73" height="30.64"/><rect class="cls-5" x="2205.78" y="1774.66" width="3.73" height="30.64"/><rect class="cls-5" x="2190.64" y="1774.66" width="3.73" height="30.64"/><rect class="cls-5" x="2167.43" y="1774.66" width="3.73" height="30.64"/><rect class="cls-5" x="2142.89" y="1774.66" width="3.73" height="30.64"/><rect class="cls-5" x="2105.27" y="1774.66" width="3.73" height="30.64"/><rect class="cls-5" x="2070.04" y="1774.66" width="3.73" height="30.64"/><rect class="cls-5" x="2038.59" y="1774.66" width="3.73" height="30.64"/><rect class="cls-5" x="2230.42" y="1774.66" width="3.73" height="30.64"/><rect class="cls-5" x="2238.36" y="1774.66" width="3.73" height="30.64"/><rect class="cls-5" x="2246.02" y="1774.66" width="3.73" height="30.64"/><path class="cls-5" d="M2255.52,1774.77v30.42a9.13,9.13,0,0,1-1.4.11h-2.33v-30.64h2.33A9.13,9.13,0,0,1,2255.52,1774.77Z"/><path class="cls-5" d="M2260.7,1777.61v24.74a7.85,7.85,0,0,1-3.73,2.5v-29.74A7.92,7.92,0,0,1,2260.7,1777.61Z"/><path class="cls-6" d="M2269.92,1750.7V1768a5.84,5.84,0,0,1-1.36,3.72,7.06,7.06,0,0,1-.76.79,8,8,0,0,1-3,1.71,8.86,8.86,0,0,1-1.46.34l-.69.08-.71,0H1933.82c-4,0-7.28-2.47-7.86-5.67a4.62,4.62,0,0,1-.07-.65c0-.11,0-.23,0-.34v-17.3c0-.12,0-.24,0-.34a6,6,0,0,1,.06-.61c.51-3,3.37-5.31,6.93-5.68.31,0,.62,0,.94,0H2262a9.66,9.66,0,0,1,2.86.45,7.9,7.9,0,0,1,3.72,2.49A5.84,5.84,0,0,1,2269.92,1750.7Z"/><path class="cls-5" d="M2108.78,1774.66H1933a7,7,0,0,1-6.81-5,5.42,5.42,0,0,1-.19-.72,4.62,4.62,0,0,1-.07-.65c0-.11,0-.23,0-.34v-17.3c0-.12,0-.24,0-.34a6,6,0,0,1,.06-.61,7,7,0,0,1,6.18-5.68,7.81,7.81,0,0,1,.83,0h154.23a.06.06,0,0,0,0,0,57.38,57.38,0,0,0,3.89,10.24A52.57,52.57,0,0,0,2108.78,1774.66Z"/><rect class="cls-5" x="2226.26" y="1744.03" width="3.73" height="30.64"/><rect class="cls-5" x="2213.64" y="1744.03" width="3.73" height="30.64"/><rect class="cls-5" x="2198.5" y="1744.03" width="3.73" height="30.64"/><rect class="cls-5" x="2175.29" y="1744.03" width="3.73" height="30.64"/><rect class="cls-5" x="2150.75" y="1744.03" width="3.73" height="30.64"/><rect class="cls-5" x="2113.13" y="1744.03" width="3.73" height="30.64"/><rect class="cls-5" x="2077.9" y="1744.03" width="3.73" height="30.64"/><rect class="cls-5" x="2046.45" y="1744.03" width="3.73" height="30.64"/><rect class="cls-5" x="2238.28" y="1744.03" width="3.73" height="30.64"/><rect class="cls-5" x="2246.22" y="1744.03" width="3.73" height="30.64"/><rect class="cls-5" x="2253.88" y="1744.03" width="3.73" height="30.64"/><path class="cls-5" d="M2263.38,1744.13v30.43a9.14,9.14,0,0,1-1.4.1h-2.33V1744H2262A9.14,9.14,0,0,1,2263.38,1744.13Z"/><path class="cls-5" d="M2268.56,1747v24.75a7.85,7.85,0,0,1-3.72,2.49v-29.73A7.85,7.85,0,0,1,2268.56,1747Z"/><path class="cls-6" d="M2245.8,1720.1v17.3a5.93,5.93,0,0,1-1.36,3.73,7.93,7.93,0,0,1-3.73,2.49,8.76,8.76,0,0,1-1.45.35l-.46.06h-.07l-.45,0H1909.69c-4,0-7.28-2.47-7.86-5.67a4.78,4.78,0,0,1-.07-.65v-18a2.46,2.46,0,0,0,0-.28c.32-2.82,2.76-5.14,6-5.83a2,2,0,0,0,.23-.06,10.79,10.79,0,0,1,1.72-.15h328.16c.25,0,.49,0,.71,0a2.72,2.72,0,0,1,.31,0h0l.38,0a9.87,9.87,0,0,1,1.45.34,8,8,0,0,1,3.73,2.51A5.92,5.92,0,0,1,2245.8,1720.1Z"/><path class="cls-5" d="M2084.65,1744.07H1908.84a7,7,0,0,1-6.82-4.94,6,6,0,0,1-.19-.73,4.78,4.78,0,0,1-.07-.65v-18a2.46,2.46,0,0,0,0-.28,6.84,6.84,0,0,1,5.51-5.87l.3-.07a8.55,8.55,0,0,1,1.25-.1h154.22l.06.22a53.68,53.68,0,0,0,21.46,30.37Z"/><rect class="cls-5" x="2202.13" y="1713.44" width="3.73" height="30.64"/><rect class="cls-5" x="2189.51" y="1713.44" width="3.73" height="30.64"/><rect class="cls-5" x="2174.37" y="1713.44" width="3.73" height="30.64"/><rect class="cls-5" x="2151.16" y="1713.44" width="3.73" height="30.64"/><rect class="cls-5" x="2126.62" y="1713.44" width="3.73" height="30.64"/><rect class="cls-5" x="2089" y="1713.44" width="3.73" height="30.64"/><rect class="cls-5" x="2053.78" y="1713.44" width="3.73" height="30.64"/><rect class="cls-5" x="2022.33" y="1713.44" width="3.73" height="30.64"/><rect class="cls-5" x="2214.15" y="1713.44" width="3.73" height="30.64"/><rect class="cls-5" x="2222.09" y="1713.44" width="3.73" height="30.64"/><rect class="cls-5" x="2229.76" y="1713.44" width="3.73" height="30.64"/><path class="cls-5" d="M2239.26,1713.54V1744a9.32,9.32,0,0,1-1.4.1h-2.33v-30.63h2.33A10.85,10.85,0,0,1,2239.26,1713.54Z"/><path class="cls-5" d="M2244.44,1716.38v24.75a8,8,0,0,1-3.73,2.5v-29.74A7.93,7.93,0,0,1,2244.44,1716.38Z"/><path class="cls-6" d="M2245.1,1689.69V1707a5.93,5.93,0,0,1-1.35,3.73,8,8,0,0,1-3.73,2.49,10,10,0,0,1-1.14.29h0l-.31,0a9,9,0,0,1-1.39.11H1909a7.13,7.13,0,0,1-1-.07,2.47,2.47,0,0,1-.38,0c-3.34-.5-6-2.79-6.46-5.64a5.23,5.23,0,0,1-.06-.57c0-.11,0-.22,0-.34v-17.3c0-.12,0-.23,0-.34a4.62,4.62,0,0,1,.07-.65c.58-3.21,3.9-5.68,7.86-5.68h328.17l.63,0h.26l.3,0,.2,0a8.63,8.63,0,0,1,1.46.34l.21.07.2.07.15.06.25.1h0a.76.76,0,0,0,.18.09,8.44,8.44,0,0,1,1.54.94,4.29,4.29,0,0,1,.38.33,3.61,3.61,0,0,1,.35.33s.09.11.15.16.2.23.3.33A5.91,5.91,0,0,1,2245.1,1689.69Z"/><path class="cls-5" d="M2084,1713.66H1907.74l-.45,0a6.93,6.93,0,0,1-6.16-5.71,5.23,5.23,0,0,1-.06-.57c0-.11,0-.22,0-.34v-17.3c0-.12,0-.23,0-.34a4.62,4.62,0,0,1,.07-.65,6,6,0,0,1,.19-.73,7,7,0,0,1,6.83-5h154.2c.08.25.14.5.22.75a53.64,53.64,0,0,0,21.07,29.67Z"/><rect class="cls-5" x="2201.44" y="1683.02" width="3.73" height="30.64"/><rect class="cls-5" x="2188.82" y="1683.02" width="3.73" height="30.64"/><rect class="cls-5" x="2173.68" y="1683.02" width="3.73" height="30.64"/><rect class="cls-5" x="2150.47" y="1683.02" width="3.73" height="30.64"/><rect class="cls-5" x="2125.93" y="1683.02" width="3.73" height="30.64"/><rect class="cls-5" x="2088.31" y="1683.02" width="3.73" height="30.64"/><rect class="cls-5" x="2053.09" y="1683.02" width="3.73" height="30.64"/><rect class="cls-5" x="2021.63" y="1683.02" width="3.73" height="30.64"/><rect class="cls-5" x="2213.46" y="1683.02" width="3.73" height="30.64"/><rect class="cls-5" x="2221.4" y="1683.02" width="3.73" height="30.64"/><rect class="cls-5" x="2229.07" y="1683.02" width="3.73" height="30.64"/><path class="cls-5" d="M2238.57,1683.13v30.42a9.33,9.33,0,0,1-1.4.11h-2.33V1683h2.33A9.33,9.33,0,0,1,2238.57,1683.13Z"/><path class="cls-5" d="M2243.75,1686v24.74a8,8,0,0,1-3.73,2.5v-29.74A8,8,0,0,1,2243.75,1686Z"/><path class="cls-6" d="M2262.06,1659.81v17.3a5.86,5.86,0,0,1-1.35,3.72,8,8,0,0,1-3.73,2.5,8.86,8.86,0,0,1-1.46.34c-.23,0-.46.06-.69.08l-.71,0H1926a9.14,9.14,0,0,1-3.66-.75,6.81,6.81,0,0,1-4.24-5.27,1.53,1.53,0,0,1,0-.3c0-.11,0-.23,0-.34v-17.3c0-.12,0-.23,0-.34a4.62,4.62,0,0,1,.07-.65c.58-3.21,3.9-5.68,7.86-5.68h328.16a9.13,9.13,0,0,1,1.4.11,8.86,8.86,0,0,1,1.46.34,8.12,8.12,0,0,1,3.73,2.5A5.86,5.86,0,0,1,2262.06,1659.81Z"/><path class="cls-5" d="M2100.92,1683.77H1925.1a7.4,7.4,0,0,1-3.26-.75,6.69,6.69,0,0,1-3.78-5.27,1.53,1.53,0,0,1,0-.3c0-.11,0-.23,0-.34v-17.3c0-.12,0-.23,0-.34a4.62,4.62,0,0,1,.07-.65,5.86,5.86,0,0,1,.19-.72,7,7,0,0,1,6.81-5h154.23a53.66,53.66,0,0,0,20.5,29.88Z"/><rect class="cls-5" x="2218.4" y="1653.14" width="3.73" height="30.64"/><rect class="cls-5" x="2205.78" y="1653.14" width="3.73" height="30.64"/><rect class="cls-5" x="2190.64" y="1653.14" width="3.73" height="30.64"/><rect class="cls-5" x="2167.43" y="1653.14" width="3.73" height="30.64"/><rect class="cls-5" x="2142.89" y="1653.14" width="3.73" height="30.64"/><rect class="cls-5" x="2105.27" y="1653.14" width="3.73" height="30.64"/><rect class="cls-5" x="2070.04" y="1653.14" width="3.73" height="30.64"/><rect class="cls-5" x="2038.59" y="1653.14" width="3.73" height="30.64"/><rect class="cls-5" x="2230.42" y="1653.14" width="3.73" height="30.64"/><rect class="cls-5" x="2238.36" y="1653.14" width="3.73" height="30.64"/><rect class="cls-5" x="2246.02" y="1653.14" width="3.73" height="30.64"/><path class="cls-5" d="M2255.52,1653.25v30.42a9.13,9.13,0,0,1-1.4.11h-2.33v-30.64h2.33A9.13,9.13,0,0,1,2255.52,1653.25Z"/><path class="cls-5" d="M2260.7,1656.09v24.74a7.92,7.92,0,0,1-3.73,2.5v-29.74A7.85,7.85,0,0,1,2260.7,1656.09Z"/><path class="cls-6" d="M2288.87,1629.17v17.3a5.86,5.86,0,0,1-1.35,3.72c-.12.14-.23.28-.36.41a7.94,7.94,0,0,1-3.36,2.09,10.21,10.21,0,0,1-1.45.35,11,11,0,0,1-1.41.1H1952.78c-4,0-7.28-2.47-7.86-5.68a3.4,3.4,0,0,1-.08-.64c0-.12,0-.23,0-.35v-17.3c0-.11,0-.22,0-.34.21-3.24,3.2-5.9,7-6.28a7.46,7.46,0,0,1,1,0h328.16a9.46,9.46,0,0,1,1.41.11,9,9,0,0,1,1.45.34,8,8,0,0,1,3.36,2.09c.13.13.24.27.36.41A5.88,5.88,0,0,1,2288.87,1629.17Z"/><path class="cls-5" d="M2127.73,1653.14H1951.92a7,7,0,0,1-6.81-5,4.61,4.61,0,0,1-.19-.73,3.4,3.4,0,0,1-.08-.64c0-.12,0-.23,0-.35v-17.3c0-.11,0-.22,0-.34a5.32,5.32,0,0,1,.14-.89,7,7,0,0,1,6.1-5.39,5.92,5.92,0,0,1,.84,0h154.23v0A53.7,53.7,0,0,0,2127.73,1653.14Z"/><rect class="cls-5" x="2245.22" y="1622.5" width="3.73" height="30.64"/><rect class="cls-5" x="2232.59" y="1622.5" width="3.73" height="30.64"/><rect class="cls-5" x="2217.45" y="1622.5" width="3.73" height="30.64"/><rect class="cls-5" x="2194.25" y="1622.5" width="3.73" height="30.64"/><rect class="cls-5" x="2169.71" y="1622.5" width="3.73" height="30.64"/><rect class="cls-5" x="2132.09" y="1622.5" width="3.73" height="30.64"/><rect class="cls-5" x="2096.86" y="1622.5" width="3.73" height="30.64"/><rect class="cls-5" x="2065.41" y="1622.5" width="3.73" height="30.64"/><rect class="cls-5" x="2257.24" y="1622.5" width="3.73" height="30.64"/><rect class="cls-5" x="2265.18" y="1622.5" width="3.73" height="30.64"/><rect class="cls-5" x="2272.84" y="1622.5" width="3.73" height="30.64"/><path class="cls-5" d="M2282.34,1622.61V1653a9.23,9.23,0,0,1-1.4.11h-2.33V1622.5h2.33A9.23,9.23,0,0,1,2282.34,1622.61Z"/><path class="cls-5" d="M2287.52,1625.45v24.75a7.83,7.83,0,0,1-3.73,2.49V1623A7.92,7.92,0,0,1,2287.52,1625.45Z"/><path class="cls-6" d="M2245.8,1598.59v17.3a5.92,5.92,0,0,1-1.36,3.71,8,8,0,0,1-3.73,2.51,8.74,8.74,0,0,1-1.45.34l-.46,0h0l-.23,0H1909.69c-4,0-7.28-2.47-7.86-5.67a4.62,4.62,0,0,1-.07-.65v-18a4.78,4.78,0,0,1,.07-.65c.58-3.2,3.9-5.67,7.86-5.67h328.64l.36,0a3.7,3.7,0,0,1,.57.07,7.84,7.84,0,0,1,1.45.34l.56.2.12.06h0a7.77,7.77,0,0,1,3,2.23A5.93,5.93,0,0,1,2245.8,1598.59Z"/><path class="cls-5" d="M2084.65,1622.55H1908.84a7,7,0,0,1-6.82-5,5.86,5.86,0,0,1-.19-.72,4.62,4.62,0,0,1-.07-.65v-18a4.78,4.78,0,0,1,.07-.65,6,6,0,0,1,.19-.73,7,7,0,0,1,6.82-4.94h154.22l.2.71a53.61,53.61,0,0,0,21.32,29.87S2084.62,1622.54,2084.65,1622.55Z"/><rect class="cls-5" x="2202.13" y="1591.92" width="3.73" height="30.64"/><rect class="cls-5" x="2189.51" y="1591.92" width="3.73" height="30.64"/><rect class="cls-5" x="2174.37" y="1591.92" width="3.73" height="30.64"/><rect class="cls-5" x="2151.16" y="1591.92" width="3.73" height="30.64"/><rect class="cls-5" x="2126.62" y="1591.92" width="3.73" height="30.64"/><rect class="cls-5" x="2089" y="1591.92" width="3.73" height="30.64"/><rect class="cls-5" x="2053.78" y="1591.92" width="3.73" height="30.64"/><rect class="cls-5" x="2022.33" y="1591.92" width="3.73" height="30.64"/><rect class="cls-5" x="2214.15" y="1591.92" width="3.73" height="30.64"/><rect class="cls-5" x="2222.09" y="1591.92" width="3.73" height="30.64"/><rect class="cls-5" x="2229.76" y="1591.92" width="3.73" height="30.64"/><path class="cls-5" d="M2239.26,1592v30.43a9.32,9.32,0,0,1-1.4.1h-2.33v-30.63h2.33A9.32,9.32,0,0,1,2239.26,1592Z"/><path class="cls-5" d="M2244.44,1594.86v24.75a7.93,7.93,0,0,1-3.73,2.49v-29.73A7.93,7.93,0,0,1,2244.44,1594.86Z"/><path class="cls-6" d="M2269.92,1568.66V1586a5.81,5.81,0,0,1-1.36,3.71,7.93,7.93,0,0,1-3.72,2.51,10,10,0,0,1-1.46.34,10.58,10.58,0,0,1-1.4.11H1933.82a9.14,9.14,0,0,1-3.55-.71,7,7,0,0,1-4.3-4.92,3,3,0,0,1-.06-.43,2.45,2.45,0,0,1,0-.27c0-.12,0-.23,0-.34v-17.3c0-.12,0-.23,0-.35s0-.4.06-.6c.51-3,3.37-5.31,6.93-5.68.31,0,.62,0,.94,0H2262c.29,0,.59,0,.89,0a3,3,0,0,1,.51.07,8.35,8.35,0,0,1,5.18,2.83A5.82,5.82,0,0,1,2269.92,1568.66Z"/><path class="cls-5" d="M2108.78,1592.63H1933a7.32,7.32,0,0,1-3.15-.71A6.75,6.75,0,0,1,1926,1587a3,3,0,0,1-.06-.43,2.45,2.45,0,0,1,0-.27c0-.12,0-.23,0-.34v-17.3c0-.12,0-.23,0-.35s0-.4.06-.6a7,7,0,0,1,6.18-5.68,7.81,7.81,0,0,1,.83,0h154.23a.06.06,0,0,0,0,0,53.78,53.78,0,0,0,20.57,29.89Z"/><rect class="cls-5" x="2226.26" y="1561.99" width="3.73" height="30.64"/><rect class="cls-5" x="2213.64" y="1561.99" width="3.73" height="30.64"/><rect class="cls-5" x="2198.5" y="1561.99" width="3.73" height="30.64"/><rect class="cls-5" x="2175.29" y="1561.99" width="3.73" height="30.64"/><rect class="cls-5" x="2150.75" y="1561.99" width="3.73" height="30.64"/><rect class="cls-5" x="2113.13" y="1561.99" width="3.73" height="30.64"/><rect class="cls-5" x="2077.9" y="1561.99" width="3.73" height="30.64"/><rect class="cls-5" x="2046.45" y="1561.99" width="3.73" height="30.64"/><rect class="cls-5" x="2238.28" y="1561.99" width="3.73" height="30.64"/><rect class="cls-5" x="2246.22" y="1561.99" width="3.73" height="30.64"/><rect class="cls-5" x="2253.88" y="1561.99" width="3.73" height="30.64"/><path class="cls-5" d="M2263.38,1562.09v30.43a9.14,9.14,0,0,1-1.4.1h-2.33V1562H2262A9.14,9.14,0,0,1,2263.38,1562.09Z"/><path class="cls-5" d="M2268.56,1564.93v24.75a7.85,7.85,0,0,1-3.72,2.49v-29.73A7.85,7.85,0,0,1,2268.56,1564.93Z"/><path class="cls-6" d="M2280.2,1538.07v17.3a5.88,5.88,0,0,1-1.37,3.72,5.58,5.58,0,0,1-.75.79,8.07,8.07,0,0,1-3,1.71,7.83,7.83,0,0,1-1.45.33,2.57,2.57,0,0,1-.46.07h-.2q-.36,0-.75,0H1944.09a8.44,8.44,0,0,1-.87,0c-3.58-.33-6.45-2.66-7-5.64a4.48,4.48,0,0,1-.08-.64v-18a4.62,4.62,0,0,1,.08-.65c.58-3.21,3.9-5.68,7.86-5.68h328.16a8.21,8.21,0,0,1,1.41.11,8.34,8.34,0,0,1,5.17,2.84A5.88,5.88,0,0,1,2280.2,1538.07Z"/><path class="cls-5" d="M2119,1562h-175.8a6.51,6.51,0,0,1-.77,0,6.91,6.91,0,0,1-6.24-5.64,4.48,4.48,0,0,1-.08-.64v-18a4.62,4.62,0,0,1,.08-.65,4.91,4.91,0,0,1,.19-.73,7,7,0,0,1,6.82-4.95h154.22A53.72,53.72,0,0,0,2119,1562Z"/><rect class="cls-5" x="2236.53" y="1531.4" width="3.73" height="30.64"/><rect class="cls-5" x="2223.91" y="1531.4" width="3.73" height="30.64"/><rect class="cls-5" x="2208.77" y="1531.4" width="3.73" height="30.64"/><rect class="cls-5" x="2185.56" y="1531.4" width="3.73" height="30.64"/><rect class="cls-5" x="2161.02" y="1531.4" width="3.73" height="30.64"/><rect class="cls-5" x="2123.4" y="1531.4" width="3.73" height="30.64"/><rect class="cls-5" x="2088.18" y="1531.4" width="3.73" height="30.64"/><rect class="cls-5" x="2056.72" y="1531.4" width="3.73" height="30.64"/><rect class="cls-5" x="2248.55" y="1531.4" width="3.73" height="30.64"/><rect class="cls-5" x="2256.49" y="1531.4" width="3.73" height="30.64"/><rect class="cls-5" x="2264.16" y="1531.4" width="3.73" height="30.64"/><path class="cls-5" d="M2273.65,1531.51v30.42a9.13,9.13,0,0,1-1.4.11h-2.33V1531.4h2.33A9.13,9.13,0,0,1,2273.65,1531.51Z"/><path class="cls-5" d="M2278.83,1534.34v24.75a7.85,7.85,0,0,1-3.72,2.49v-29.73A7.85,7.85,0,0,1,2278.83,1534.34Z"/><path class="cls-6" d="M1245.64,1841.85v17.3a5.87,5.87,0,0,1-1.36,3.72,7.92,7.92,0,0,1-3.73,2.5,8.51,8.51,0,0,1-1.45.34,9.23,9.23,0,0,1-1.4.11H909.54c-4.24,0-7.72-2.82-7.93-6.33,0-.11,0-.23,0-.34v-17.3c0-.12,0-.23,0-.35.21-3.5,3.69-6.32,7.93-6.32H1237.7a9.23,9.23,0,0,1,1.4.11,8.51,8.51,0,0,1,1.45.34,7.78,7.78,0,0,1,3.73,2.5A5.87,5.87,0,0,1,1245.64,1841.85Z"/><path class="cls-5" d="M1084.49,1865.82H908.68a6.94,6.94,0,0,1-7.07-6.33c0-.11,0-.23,0-.34v-17.3c0-.12,0-.23,0-.35a6.93,6.93,0,0,1,7.07-6.32H1062.9A53.8,53.8,0,0,0,1084.49,1865.82Z"/><rect class="cls-5" x="1201.98" y="1835.18" width="3.73" height="30.64"/><rect class="cls-5" x="1189.35" y="1835.18" width="3.73" height="30.64"/><rect class="cls-5" x="1174.21" y="1835.18" width="3.73" height="30.64"/><rect class="cls-5" x="1151.01" y="1835.18" width="3.73" height="30.64"/><rect class="cls-5" x="1126.47" y="1835.18" width="3.73" height="30.64"/><rect class="cls-5" x="1088.85" y="1835.18" width="3.73" height="30.64"/><rect class="cls-5" x="1053.62" y="1835.18" width="3.73" height="30.64"/><rect class="cls-5" x="1022.17" y="1835.18" width="3.73" height="30.64"/><rect class="cls-5" x="1214" y="1835.18" width="3.73" height="30.64"/><rect class="cls-5" x="1221.94" y="1835.18" width="3.73" height="30.64"/><rect class="cls-5" x="1229.6" y="1835.18" width="3.73" height="30.64"/><path class="cls-5" d="M1239.1,1835.29v30.42a9.23,9.23,0,0,1-1.4.11h-2.33v-30.64h2.33A9.23,9.23,0,0,1,1239.1,1835.29Z"/><path class="cls-5" d="M1244.28,1838.13v24.74a7.92,7.92,0,0,1-3.73,2.5v-29.74A7.78,7.78,0,0,1,1244.28,1838.13Z"/><path class="cls-6" d="M1210.55,1811.21v17.3a5.92,5.92,0,0,1-1.36,3.73,7.85,7.85,0,0,1-3.72,2.49,8,8,0,0,1-1.46.34,9.13,9.13,0,0,1-1.4.11H874.45c-4.23,0-7.72-2.82-7.93-6.32,0-.12,0-.23,0-.35v-17.3c0-.11,0-.23,0-.34.21-3.51,3.7-6.33,7.93-6.33h328.16l.63,0,.27,0,.29,0,.21,0a8.86,8.86,0,0,1,1.46.34l.2.07.2.08.4.16.23.11.2.1.38.2.41.25.3.21h0a1.56,1.56,0,0,1,.2.16,6.82,6.82,0,0,1,.58.49l.16.16.15.16.29.34A5.87,5.87,0,0,1,1210.55,1811.21Z"/><path class="cls-5" d="M1049.41,1835.18H873.6a6.94,6.94,0,0,1-7.08-6.32c0-.12,0-.23,0-.35v-17.3c0-.11,0-.23,0-.34a6.94,6.94,0,0,1,7.08-6.33h154.21c.07.25.14.51.22.76A53.58,53.58,0,0,0,1049.41,1835.18Z"/><rect class="cls-5" x="1166.89" y="1804.54" width="3.73" height="30.64"/><rect class="cls-5" x="1154.27" y="1804.54" width="3.73" height="30.64"/><rect class="cls-5" x="1139.13" y="1804.54" width="3.73" height="30.64"/><rect class="cls-5" x="1115.92" y="1804.54" width="3.73" height="30.64"/><rect class="cls-5" x="1091.38" y="1804.54" width="3.73" height="30.64"/><rect class="cls-5" x="1053.76" y="1804.54" width="3.73" height="30.64"/><rect class="cls-5" x="1018.54" y="1804.54" width="3.73" height="30.64"/><rect class="cls-5" x="987.08" y="1804.54" width="3.73" height="30.64"/><rect class="cls-5" x="1178.91" y="1804.54" width="3.73" height="30.64"/><rect class="cls-5" x="1186.85" y="1804.54" width="3.73" height="30.64"/><rect class="cls-5" x="1194.51" y="1804.54" width="3.73" height="30.64"/><path class="cls-5" d="M1204,1804.65v30.42a9.13,9.13,0,0,1-1.4.11h-2.33v-30.64h2.33A9.13,9.13,0,0,1,1204,1804.65Z"/><path class="cls-5" d="M1209.19,1807.49v24.74a7.79,7.79,0,0,1-3.72,2.5V1805A7.94,7.94,0,0,1,1209.19,1807.49Z"/><path class="cls-6" d="M1227.51,1781.33v17.3a5.87,5.87,0,0,1-1.36,3.72,7.87,7.87,0,0,1-3.73,2.5,8.51,8.51,0,0,1-1.45.34,9.23,9.23,0,0,1-1.4.11H891.4a9,9,0,0,1-3.66-.76,6.8,6.8,0,0,1-4.24-5.27l0-.29c0-.12,0-.23,0-.35v-17.3c0-.11,0-.23,0-.34.22-3.51,3.7-6.33,7.93-6.33h328.17a9.23,9.23,0,0,1,1.4.11,8.51,8.51,0,0,1,1.45.34,8,8,0,0,1,3.73,2.5A5.87,5.87,0,0,1,1227.51,1781.33Z"/><path class="cls-5" d="M1066.36,1805.3H890.55a7.27,7.27,0,0,1-3.26-.76,6.68,6.68,0,0,1-3.79-5.27l0-.29c0-.12,0-.23,0-.35v-17.3c0-.11,0-.23,0-.34a7,7,0,0,1,7.08-6.33h154.22a53.73,53.73,0,0,0,20.51,29.88Z"/><rect class="cls-5" x="1183.85" y="1774.66" width="3.73" height="30.64"/><rect class="cls-5" x="1171.22" y="1774.66" width="3.73" height="30.64"/><rect class="cls-5" x="1156.08" y="1774.66" width="3.73" height="30.64"/><rect class="cls-5" x="1132.88" y="1774.66" width="3.73" height="30.64"/><rect class="cls-5" x="1108.34" y="1774.66" width="3.73" height="30.64"/><rect class="cls-5" x="1070.72" y="1774.66" width="3.73" height="30.64"/><rect class="cls-5" x="1035.49" y="1774.66" width="3.73" height="30.64"/><rect class="cls-5" x="1004.04" y="1774.66" width="3.73" height="30.64"/><rect class="cls-5" x="1195.87" y="1774.66" width="3.73" height="30.64"/><rect class="cls-5" x="1203.8" y="1774.66" width="3.73" height="30.64"/><rect class="cls-5" x="1211.47" y="1774.66" width="3.73" height="30.64"/><path class="cls-5" d="M1221,1774.77v30.42a9.23,9.23,0,0,1-1.4.11h-2.33v-30.64h2.33A9.23,9.23,0,0,1,1221,1774.77Z"/><path class="cls-5" d="M1226.15,1777.61v24.74a8,8,0,0,1-3.73,2.5v-29.74A8,8,0,0,1,1226.15,1777.61Z"/><path class="cls-6" d="M1235.37,1750.7V1768a5.89,5.89,0,0,1-1.36,3.72,7.88,7.88,0,0,1-3.73,2.49,8.53,8.53,0,0,1-1.45.35,9.23,9.23,0,0,1-1.4.1H899.27c-4.24,0-7.72-2.81-7.94-6.32v-18c.2-3.24,3.2-5.89,7-6.27a7.12,7.12,0,0,1,.94,0h328.16a9.23,9.23,0,0,1,1.4.1,8.53,8.53,0,0,1,1.45.35A7.88,7.88,0,0,1,1234,1747,5.92,5.92,0,0,1,1235.37,1750.7Z"/><path class="cls-5" d="M1074.22,1774.66H898.41a6.94,6.94,0,0,1-7.08-6.32v-18a6.89,6.89,0,0,1,6.25-6.27,5.69,5.69,0,0,1,.83,0h154.22l0,0A53.71,53.71,0,0,0,1074.22,1774.66Z"/><rect class="cls-5" x="1191.71" y="1744.03" width="3.73" height="30.64"/><rect class="cls-5" x="1179.08" y="1744.03" width="3.73" height="30.64"/><rect class="cls-5" x="1163.94" y="1744.03" width="3.73" height="30.64"/><rect class="cls-5" x="1140.74" y="1744.03" width="3.73" height="30.64"/><rect class="cls-5" x="1116.2" y="1744.03" width="3.73" height="30.64"/><rect class="cls-5" x="1078.58" y="1744.03" width="3.73" height="30.64"/><rect class="cls-5" x="1043.35" y="1744.03" width="3.73" height="30.64"/><rect class="cls-5" x="1011.9" y="1744.03" width="3.73" height="30.64"/><rect class="cls-5" x="1203.73" y="1744.03" width="3.73" height="30.64"/><rect class="cls-5" x="1211.66" y="1744.03" width="3.73" height="30.64"/><rect class="cls-5" x="1219.33" y="1744.03" width="3.73" height="30.64"/><path class="cls-5" d="M1228.83,1744.13v30.43a9.23,9.23,0,0,1-1.4.1h-2.33V1744h2.33A9.23,9.23,0,0,1,1228.83,1744.13Z"/><path class="cls-5" d="M1234,1747v24.75a7.88,7.88,0,0,1-3.73,2.49v-29.73A7.88,7.88,0,0,1,1234,1747Z"/><path class="cls-6" d="M1211.24,1720.11v17.3a5.87,5.87,0,0,1-1.36,3.72,7.94,7.94,0,0,1-3.72,2.5,8.86,8.86,0,0,1-1.46.34l-.46.06-.26,0h-.26l-.42,0H875.14c-4.23,0-7.72-2.82-7.93-6.33,0-.11,0-.23,0-.34v-17.3c0-.12,0-.23,0-.35s0-.18,0-.28c.32-2.82,2.76-5.15,5.95-5.83l.24-.05a9.74,9.74,0,0,1,1.72-.16H1203.3c.24,0,.48,0,.71,0l.32,0h0l.37,0a8,8,0,0,1,1.46.34,7.85,7.85,0,0,1,3.72,2.49A5.92,5.92,0,0,1,1211.24,1720.11Z"/><path class="cls-5" d="M1050.1,1744.08H874.29a6.94,6.94,0,0,1-7.08-6.33c0-.11,0-.23,0-.34v-17.3c0-.12,0-.23,0-.35s0-.18,0-.28a6.83,6.83,0,0,1,5.5-5.87l.3-.06a7.47,7.47,0,0,1,1.26-.11h154.22c0,.07,0,.14.06.22A53.71,53.71,0,0,0,1050,1744Z"/><rect class="cls-5" x="1167.58" y="1713.44" width="3.73" height="30.64"/><rect class="cls-5" x="1154.96" y="1713.44" width="3.73" height="30.64"/><rect class="cls-5" x="1139.82" y="1713.44" width="3.73" height="30.64"/><rect class="cls-5" x="1116.61" y="1713.44" width="3.73" height="30.64"/><rect class="cls-5" x="1092.07" y="1713.44" width="3.73" height="30.64"/><rect class="cls-5" x="1054.45" y="1713.44" width="3.73" height="30.64"/><rect class="cls-5" x="1019.22" y="1713.44" width="3.73" height="30.64"/><rect class="cls-5" x="987.77" y="1713.44" width="3.73" height="30.64"/><rect class="cls-5" x="1179.6" y="1713.44" width="3.73" height="30.64"/><rect class="cls-5" x="1187.54" y="1713.44" width="3.73" height="30.64"/><rect class="cls-5" x="1195.2" y="1713.44" width="3.73" height="30.64"/><path class="cls-5" d="M1204.7,1713.54V1744a9.14,9.14,0,0,1-1.4.1H1201v-30.63h2.33A10.6,10.6,0,0,1,1204.7,1713.54Z"/><path class="cls-5" d="M1209.88,1716.38v24.75a7.94,7.94,0,0,1-3.72,2.5v-29.74A7.85,7.85,0,0,1,1209.88,1716.38Z"/><path class="cls-6" d="M1210.55,1689.69V1707a5.87,5.87,0,0,1-1.36,3.72,7.94,7.94,0,0,1-3.72,2.5,10.56,10.56,0,0,1-1.14.29h0l-.32,0a9.13,9.13,0,0,1-1.4.11H874.45a8.77,8.77,0,0,1-1-.06l-.39,0c-3.57-.55-6.32-3.11-6.51-6.22,0-.11,0-.23,0-.34v-17.3c0-.12,0-.23,0-.34.21-3.51,3.7-6.33,7.93-6.33h328.16l.63,0,.27,0a1.36,1.36,0,0,1,.29,0l.21,0a8.86,8.86,0,0,1,1.46.34l.2.07.2.07.4.17.43.2.38.2.41.26a2.73,2.73,0,0,1,.3.21h0l.2.15c.2.16.4.33.58.5l.16.15.15.17c.1.11.2.22.29.34A5.87,5.87,0,0,1,1210.55,1689.69Z"/><path class="cls-5" d="M1049.41,1713.66H873.18l-.45,0a6.88,6.88,0,0,1-6.21-6.28c0-.11,0-.23,0-.34v-17.3c0-.12,0-.23,0-.34a6.94,6.94,0,0,1,7.08-6.33h154.21c.07.25.14.5.22.76a53.6,53.6,0,0,0,21.06,29.66Z"/><rect class="cls-5" x="1166.89" y="1683.02" width="3.73" height="30.64"/><rect class="cls-5" x="1154.27" y="1683.02" width="3.73" height="30.64"/><rect class="cls-5" x="1139.13" y="1683.02" width="3.73" height="30.64"/><rect class="cls-5" x="1115.92" y="1683.02" width="3.73" height="30.64"/><rect class="cls-5" x="1091.38" y="1683.02" width="3.73" height="30.64"/><rect class="cls-5" x="1053.76" y="1683.02" width="3.73" height="30.64"/><rect class="cls-5" x="1018.54" y="1683.02" width="3.73" height="30.64"/><rect class="cls-5" x="987.08" y="1683.02" width="3.73" height="30.64"/><rect class="cls-5" x="1178.91" y="1683.02" width="3.73" height="30.64"/><rect class="cls-5" x="1186.85" y="1683.02" width="3.73" height="30.64"/><rect class="cls-5" x="1194.51" y="1683.02" width="3.73" height="30.64"/><path class="cls-5" d="M1204,1683.13v30.42a9.13,9.13,0,0,1-1.4.11h-2.33V1683h2.33A9.13,9.13,0,0,1,1204,1683.13Z"/><path class="cls-5" d="M1209.19,1686v24.74a7.94,7.94,0,0,1-3.72,2.5v-29.74A7.87,7.87,0,0,1,1209.19,1686Z"/><path class="cls-6" d="M1227.51,1659.81v17.3a5.87,5.87,0,0,1-1.36,3.72,8,8,0,0,1-3.73,2.5,8.51,8.51,0,0,1-1.45.34,9.23,9.23,0,0,1-1.4.11H891.4a9.18,9.18,0,0,1-3.66-.76,6.8,6.8,0,0,1-4.24-5.27l0-.3c0-.11,0-.23,0-.34v-17.3c0-.12,0-.23,0-.35.22-3.5,3.7-6.32,7.93-6.32h328.17a9.23,9.23,0,0,1,1.4.11,8.51,8.51,0,0,1,1.45.34,7.93,7.93,0,0,1,3.73,2.49A5.92,5.92,0,0,1,1227.51,1659.81Z"/><path class="cls-5" d="M1066.36,1683.78H890.55a7.41,7.41,0,0,1-3.26-.76,6.68,6.68,0,0,1-3.79-5.27l0-.3c0-.11,0-.23,0-.34v-17.3c0-.12,0-.23,0-.35a7,7,0,0,1,7.08-6.32h154.22a53.8,53.8,0,0,0,20.51,29.88Z"/><rect class="cls-5" x="1183.85" y="1653.14" width="3.73" height="30.64"/><rect class="cls-5" x="1171.22" y="1653.14" width="3.73" height="30.64"/><rect class="cls-5" x="1156.08" y="1653.14" width="3.73" height="30.64"/><rect class="cls-5" x="1132.88" y="1653.14" width="3.73" height="30.64"/><rect class="cls-5" x="1108.34" y="1653.14" width="3.73" height="30.64"/><rect class="cls-5" x="1070.72" y="1653.14" width="3.73" height="30.64"/><rect class="cls-5" x="1035.49" y="1653.14" width="3.73" height="30.64"/><rect class="cls-5" x="1004.04" y="1653.14" width="3.73" height="30.64"/><rect class="cls-5" x="1195.87" y="1653.14" width="3.73" height="30.64"/><rect class="cls-5" x="1203.8" y="1653.14" width="3.73" height="30.64"/><rect class="cls-5" x="1211.47" y="1653.14" width="3.73" height="30.64"/><path class="cls-5" d="M1221,1653.25v30.42a9.23,9.23,0,0,1-1.4.11h-2.33v-30.64h2.33A9.23,9.23,0,0,1,1221,1653.25Z"/><path class="cls-5" d="M1226.15,1656.09v24.74a8,8,0,0,1-3.73,2.5v-29.74A8,8,0,0,1,1226.15,1656.09Z"/><path class="cls-6" d="M1254.33,1629.17v17.3a5.87,5.87,0,0,1-1.37,3.73,8.38,8.38,0,0,1-5.17,2.83,9.33,9.33,0,0,1-1.4.11H918.22c-4.23,0-7.71-2.82-7.93-6.32,0-.12,0-.23,0-.35v-17.3c0-.11,0-.23,0-.34.2-3.24,3.2-5.9,7-6.28.31,0,.63,0,.94,0h328.17a9.33,9.33,0,0,1,1.4.11,8.74,8.74,0,0,1,1.45.34,7.94,7.94,0,0,1,3.72,2.5A5.82,5.82,0,0,1,1254.33,1629.17Z"/><path class="cls-5" d="M1093.18,1653.14H917.37a6.94,6.94,0,0,1-7.08-6.32c0-.12,0-.23,0-.35v-17.3c0-.11,0-.23,0-.34a6.89,6.89,0,0,1,6.24-6.28,7.73,7.73,0,0,1,.84,0h154.22a.43.43,0,0,0,0,0A53.72,53.72,0,0,0,1093.18,1653.14Z"/><rect class="cls-5" x="1210.67" y="1622.5" width="3.73" height="30.64"/><rect class="cls-5" x="1198.04" y="1622.5" width="3.73" height="30.64"/><rect class="cls-5" x="1182.9" y="1622.5" width="3.73" height="30.64"/><rect class="cls-5" x="1159.69" y="1622.5" width="3.73" height="30.64"/><rect class="cls-5" x="1135.15" y="1622.5" width="3.73" height="30.64"/><rect class="cls-5" x="1097.53" y="1622.5" width="3.73" height="30.64"/><rect class="cls-5" x="1062.31" y="1622.5" width="3.73" height="30.64"/><rect class="cls-5" x="1030.86" y="1622.5" width="3.73" height="30.64"/><rect class="cls-5" x="1222.68" y="1622.5" width="3.73" height="30.64"/><rect class="cls-5" x="1230.62" y="1622.5" width="3.73" height="30.64"/><rect class="cls-5" x="1238.29" y="1622.5" width="3.73" height="30.64"/><path class="cls-5" d="M1247.79,1622.61V1653a9.23,9.23,0,0,1-1.4.11h-2.33V1622.5h2.33A9.23,9.23,0,0,1,1247.79,1622.61Z"/><path class="cls-5" d="M1253,1625.45v24.75a7.93,7.93,0,0,1-3.73,2.49V1623A8,8,0,0,1,1253,1625.45Z"/><path class="cls-6" d="M1211.24,1598.58v17.3a5.92,5.92,0,0,1-1.36,3.73,7.85,7.85,0,0,1-3.72,2.49,8.88,8.88,0,0,1-1.46.35l-.46,0a2.22,2.22,0,0,1-.37,0H875.14c-4.23,0-7.72-2.81-7.93-6.32,0-.12,0-.23,0-.35v-17.3c0-.11,0-.22,0-.34.21-3.51,3.7-6.32,7.93-6.32h328.58c.34,0,.66,0,1,.09a8.88,8.88,0,0,1,1.46.35c.23.07.46.16.68.25l.41.19,0,0,.4.21.06,0,.36.21a7.64,7.64,0,0,1,.79.58l.22.2,0,0,.14.12,0,0a2.72,2.72,0,0,1,.24.24l.31.36A5.89,5.89,0,0,1,1211.24,1598.58Z"/><path class="cls-5" d="M1050.1,1622.55H874.29a6.93,6.93,0,0,1-7.08-6.32c0-.12,0-.23,0-.35v-17.3c0-.11,0-.22,0-.34a6.93,6.93,0,0,1,7.08-6.32h154.22c.06.23.12.46.2.7A53.55,53.55,0,0,0,1050,1622.5.18.18,0,0,0,1050.1,1622.55Z"/><rect class="cls-5" x="1167.58" y="1591.92" width="3.73" height="30.64"/><rect class="cls-5" x="1154.96" y="1591.92" width="3.73" height="30.64"/><rect class="cls-5" x="1139.82" y="1591.92" width="3.73" height="30.64"/><rect class="cls-5" x="1116.61" y="1591.92" width="3.73" height="30.64"/><rect class="cls-5" x="1092.07" y="1591.92" width="3.73" height="30.64"/><rect class="cls-5" x="1054.45" y="1591.92" width="3.73" height="30.64"/><rect class="cls-5" x="1019.22" y="1591.92" width="3.73" height="30.64"/><rect class="cls-5" x="987.77" y="1591.92" width="3.73" height="30.64"/><rect class="cls-5" x="1179.6" y="1591.92" width="3.73" height="30.64"/><rect class="cls-5" x="1187.54" y="1591.92" width="3.73" height="30.64"/><rect class="cls-5" x="1195.2" y="1591.92" width="3.73" height="30.64"/><path class="cls-5" d="M1204.7,1592v30.43a9.14,9.14,0,0,1-1.4.1H1201v-30.63h2.33A9.14,9.14,0,0,1,1204.7,1592Z"/><path class="cls-5" d="M1209.88,1594.86v24.75a7.85,7.85,0,0,1-3.72,2.49v-29.73A7.85,7.85,0,0,1,1209.88,1594.86Z"/><path class="cls-6" d="M1235.37,1568.66V1586a5.91,5.91,0,0,1-1.36,3.72,7.88,7.88,0,0,1-3.73,2.49,8.53,8.53,0,0,1-1.45.35,9.23,9.23,0,0,1-1.4.1H899.27a9.14,9.14,0,0,1-3.55-.7,6.83,6.83,0,0,1-4.36-5.35l0-.27v-18c.2-3.24,3.2-5.9,7-6.27a7.12,7.12,0,0,1,.94,0h328.16a9.23,9.23,0,0,1,1.4.1,8.53,8.53,0,0,1,1.45.35,7.88,7.88,0,0,1,3.73,2.49A5.92,5.92,0,0,1,1235.37,1568.66Z"/><path class="cls-5" d="M1074.22,1592.62H898.41a7.39,7.39,0,0,1-3.16-.7,6.7,6.7,0,0,1-3.89-5.35l0-.27v-18a6.88,6.88,0,0,1,6.25-6.27,5.69,5.69,0,0,1,.83,0h154.22l0,0a53.75,53.75,0,0,0,20.56,29.88C1073.54,1592.16,1073.88,1592.39,1074.22,1592.62Z"/><rect class="cls-5" x="1191.71" y="1561.99" width="3.73" height="30.64"/><rect class="cls-5" x="1179.08" y="1561.99" width="3.73" height="30.64"/><rect class="cls-5" x="1163.94" y="1561.99" width="3.73" height="30.64"/><rect class="cls-5" x="1140.74" y="1561.99" width="3.73" height="30.64"/><rect class="cls-5" x="1116.2" y="1561.99" width="3.73" height="30.64"/><rect class="cls-5" x="1078.58" y="1561.99" width="3.73" height="30.64"/><rect class="cls-5" x="1043.35" y="1561.99" width="3.73" height="30.64"/><rect class="cls-5" x="1011.9" y="1561.99" width="3.73" height="30.64"/><rect class="cls-5" x="1203.73" y="1561.99" width="3.73" height="30.64"/><rect class="cls-5" x="1211.66" y="1561.99" width="3.73" height="30.64"/><rect class="cls-5" x="1219.33" y="1561.99" width="3.73" height="30.64"/><path class="cls-5" d="M1228.83,1562.09v30.43a9.23,9.23,0,0,1-1.4.1h-2.33V1562h2.33A9.23,9.23,0,0,1,1228.83,1562.09Z"/><path class="cls-5" d="M1234,1564.93v24.75a7.88,7.88,0,0,1-3.73,2.49v-29.73A7.88,7.88,0,0,1,1234,1564.93Z"/><path class="cls-6" d="M1245.64,1538.07v17.3a5.87,5.87,0,0,1-1.36,3.72,7.92,7.92,0,0,1-3.73,2.5,9.58,9.58,0,0,1-1.45.34l-.46.06-.26,0h-.26l-.42,0H909.54c-4.24,0-7.72-2.82-7.94-6.33v-18c.22-3.5,3.7-6.32,7.94-6.32H1237.7a9.23,9.23,0,0,1,1.4.11,7.66,7.66,0,0,1,1.45.34,7.83,7.83,0,0,1,3.73,2.49A5.92,5.92,0,0,1,1245.64,1538.07Z"/><path class="cls-5" d="M1084.49,1562H908.68a7,7,0,0,1-7.08-6.33v-18a7,7,0,0,1,7.08-6.32H1062.9a53.77,53.77,0,0,0,21.52,30.59A.18.18,0,0,1,1084.49,1562Z"/><rect class="cls-5" x="1201.98" y="1531.4" width="3.73" height="30.64"/><rect class="cls-5" x="1189.35" y="1531.4" width="3.73" height="30.64"/><rect class="cls-5" x="1174.21" y="1531.4" width="3.73" height="30.64"/><rect class="cls-5" x="1151.01" y="1531.4" width="3.73" height="30.64"/><rect class="cls-5" x="1126.47" y="1531.4" width="3.73" height="30.64"/><rect class="cls-5" x="1088.85" y="1531.4" width="3.73" height="30.64"/><rect class="cls-5" x="1053.62" y="1531.4" width="3.73" height="30.64"/><rect class="cls-5" x="1022.17" y="1531.4" width="3.73" height="30.64"/><rect class="cls-5" x="1214" y="1531.4" width="3.73" height="30.64"/><rect class="cls-5" x="1221.94" y="1531.4" width="3.73" height="30.64"/><rect class="cls-5" x="1229.6" y="1531.4" width="3.73" height="30.64"/><path class="cls-5" d="M1239.1,1531.51v30.42a9.23,9.23,0,0,1-1.4.11h-2.33V1531.4h2.33A9.23,9.23,0,0,1,1239.1,1531.51Z"/><path class="cls-5" d="M1244.28,1534.34v24.75a7.83,7.83,0,0,1-3.73,2.49v-29.73A7.83,7.83,0,0,1,1244.28,1534.34Z"/><circle class="cls-7" cx="1900.79" cy="1703.12" r="163.69"/><path class="cls-8" d="M2092.73,1728.76q0,7.71-.58,15.27v0q-.41,5.16-1.06,10.24a191.14,191.14,0,0,1-3.74,20.35c-.95,4-2,8-3.26,12a188.32,188.32,0,0,1-6.54,17.93c-.1.24-.21.5-.33.75-2.26,5.31-4.77,10.5-7.5,15.52s-5.58,9.74-8.67,14.37c-.19.3-.4.59-.6.89-1.2,1.79-2.45,3.55-3.73,5.29a172.76,172.76,0,0,1-21.59,24.44h-91.89a7,7,0,0,1-6.82-4.94,4.61,4.61,0,0,1-.19-.73,4.81,4.81,0,0,1-.08-.65v-18a4.48,4.48,0,0,1,.08-.64,4.61,4.61,0,0,1,.19-.73,7,7,0,0,1,6.82-4.94h-35.08a7,7,0,0,1-6.83-5,6,6,0,0,1-.19-.73,4.64,4.64,0,0,1-.07-.64c0-.12,0-.24,0-.34v-17.31c0-.11,0-.23,0-.34a4.48,4.48,0,0,1,.07-.64,6,6,0,0,1,.19-.73,7,7,0,0,1,6.83-5h13.68a6.69,6.69,0,0,1-3.78-5.28,1.39,1.39,0,0,1,0-.3c0-.1,0-.22,0-.34v-17.3c0-.11,0-.23,0-.35a4.64,4.64,0,0,1,.07-.64,6,6,0,0,1,.19-.73,7,7,0,0,1,6.81-4.95H1933a7,7,0,0,1-6.81-5,5.42,5.42,0,0,1-.19-.72,4.62,4.62,0,0,1-.07-.65c0-.11,0-.23,0-.34v-17.3c0-.12,0-.24,0-.34a6,6,0,0,1,.06-.61,7,7,0,0,1,6.18-5.68h-23.29a7,7,0,0,1-6.82-4.94,6,6,0,0,1-.19-.73,4.78,4.78,0,0,1-.07-.65v-18a2.46,2.46,0,0,0,0-.28,6.84,6.84,0,0,1,5.51-5.87,6.93,6.93,0,0,1-6.16-5.71,5.23,5.23,0,0,1-.06-.57c0-.11,0-.22,0-.34v-17.3c0-.12,0-.23,0-.34a4.62,4.62,0,0,1,.07-.65,6,6,0,0,1,.19-.73,7,7,0,0,1,6.83-5h13.68a6.69,6.69,0,0,1-3.78-5.27,1.53,1.53,0,0,1,0-.3c0-.11,0-.23,0-.34v-17.3c0-.12,0-.23,0-.34a4.62,4.62,0,0,1,.07-.65,5.86,5.86,0,0,1,.19-.72,7,7,0,0,1,6.81-5h26.82a7,7,0,0,1-6.81-5,4.61,4.61,0,0,1-.19-.73,3.4,3.4,0,0,1-.08-.64c0-.12,0-.23,0-.35v-17.3c0-.11,0-.22,0-.34a5.32,5.32,0,0,1,.14-.89,7,7,0,0,1,6.1-5.39h-42.24a7,7,0,0,1-6.82-5,5.86,5.86,0,0,1-.19-.72,4.62,4.62,0,0,1-.07-.65v-18a4.78,4.78,0,0,1,.07-.65,6,6,0,0,1,.19-.73,7,7,0,0,1,6.82-4.94h21A6.75,6.75,0,0,1,1926,1587a3,3,0,0,1-.06-.43,2.45,2.45,0,0,1,0-.27c0-.12,0-.23,0-.34v-17.3c0-.12,0-.23,0-.35s0-.4.06-.6a7,7,0,0,1,6.18-5.68,7.81,7.81,0,0,1,.83,0h9.51a6.91,6.91,0,0,1-6.24-5.64,4.48,4.48,0,0,1-.08-.64V1549a150.45,150.45,0,0,1,54.5,13l.09,0a161.28,161.28,0,0,1,44.61,29.89l.77.71a173.55,173.55,0,0,1,17.66,19.6c1.28,1.64,2.51,3.3,3.73,5s2.47,3.5,3.66,5.28l0,0c1.44,2.17,2.85,4.38,4.21,6.63s2.53,4.27,3.73,6.46a183.44,183.44,0,0,1,8.48,17.5,189.24,189.24,0,0,1,9.78,29.88c.06.25.11.5.18.75.26,1.09.49,2.17.73,3.27a194.62,194.62,0,0,1,3.74,25.12c0,.43.07.85.1,1.28,0,.08,0,.14,0,.22Q2092.73,1721.13,2092.73,1728.76Z"/><circle class="cls-6" cx="1886.51" cy="1703.12" r="163.69"/><path class="cls-5" d="M1886.51,1854.2A149.17,149.17,0,1,1,1992,1810.51,148.14,148.14,0,0,1,1886.51,1854.2Zm0-289.39c-77.33,0-140.24,62.92-140.24,140.25s62.91,140.24,140.24,140.24,140.25-62.91,140.25-140.24S1963.84,1564.81,1886.51,1564.81Z"/><path class="cls-5" d="M1907.05,1748.34a24.53,24.53,0,0,0-.36-8.66,17.83,17.83,0,0,0-3.66-7.19,33.56,33.56,0,0,0-7.32-6.46,89.19,89.19,0,0,0-11.35-6.35,237.19,237.19,0,0,1-20.95-11.52,74.06,74.06,0,0,1-15.67-12.75,43.67,43.67,0,0,1-9.25-15.54q-2.92-8.62-1.59-19.88a44.84,44.84,0,0,1,5.57-17.39,41.29,41.29,0,0,1,11.56-12.84,51.6,51.6,0,0,1,16.54-7.88,68.77,68.77,0,0,1,20.67-2.38l2.91-24.59,19.79,2.35-3,24.93a61.91,61.91,0,0,1,18.62,7.91,46.78,46.78,0,0,1,20.84,29.91,62,62,0,0,1,.82,21.12l-35.74-4.24q1.63-13.79-3.67-21.34t-15.57-8.78a27,27,0,0,0-9.77.41,18.1,18.1,0,0,0-7.12,3.47,16.68,16.68,0,0,0-4.59,5.92,24.79,24.79,0,0,0-2.18,7.78,22.76,22.76,0,0,0,.32,7.84,16.84,16.84,0,0,0,3.51,6.88,34.13,34.13,0,0,0,7.39,6.47,115.33,115.33,0,0,0,11.79,6.82q11.46,5.9,20.74,11.77A75.17,75.17,0,0,1,1932,1717a44.56,44.56,0,0,1,9.25,15.6q2.93,8.63,1.6,19.76a45,45,0,0,1-5.68,17.73,40.73,40.73,0,0,1-11.6,12.72,49.88,49.88,0,0,1-16.64,7.58,74.33,74.33,0,0,1-20.76,2.2l-2.71,22.85-19.67-2.33,2.7-22.74a83.21,83.21,0,0,1-19.31-6.84,52.82,52.82,0,0,1-15.83-12,47.46,47.46,0,0,1-9.93-17.78q-3.27-10.41-1.64-24.19l35.74,4.24a35.34,35.34,0,0,0,.67,13.88,23,23,0,0,0,5.08,9.46,22.3,22.3,0,0,0,8.18,5.63,38,38,0,0,0,9.8,2.5,31.8,31.8,0,0,0,10.37-.28,21.36,21.36,0,0,0,7.85-3.26,17,17,0,0,0,5.2-5.74A20.78,20.78,0,0,0,1907.05,1748.34Z"/><circle class="cls-7" cx="1082.75" cy="1346.4" r="185" transform="translate(-634.92 1159.97) rotate(-45)"/><circle class="cls-6" cx="1066.61" cy="1346.4" r="185" transform="translate(-639.64 1148.56) rotate(-45)"/><path class="cls-5" d="M1066.61,1517.14a168.56,168.56,0,1,1,119.19-49.37A167.46,167.46,0,0,1,1066.61,1517.14Zm0-327.06c-87.4,0-158.5,71.1-158.5,158.5s71.1,158.5,158.5,158.5,158.51-71.1,158.51-158.5S1154,1190.08,1066.61,1190.08Z"/><path class="cls-5" d="M1089.82,1397.5a27.93,27.93,0,0,0-.4-9.78,20.36,20.36,0,0,0-4.14-8.13,38.23,38.23,0,0,0-8.27-7.3,100.53,100.53,0,0,0-12.83-7.18,266.79,266.79,0,0,1-23.68-13,83.93,83.93,0,0,1-17.71-14.41,49.5,49.5,0,0,1-10.46-17.57q-3.3-9.73-1.8-22.46a50.85,50.85,0,0,1,6.31-19.66,46.84,46.84,0,0,1,13.06-14.51,58.47,58.47,0,0,1,18.7-8.91,77.9,77.9,0,0,1,23.35-2.69l3.29-27.78,22.37,2.65-3.35,28.17a70,70,0,0,1,21,8.95,53,53,0,0,1,23.56,33.8,70.29,70.29,0,0,1,.92,23.87l-40.39-4.79q1.85-15.57-4.15-24.12t-17.61-9.92a30.4,30.4,0,0,0-11,.46,20.55,20.55,0,0,0-8,3.92,19.06,19.06,0,0,0-5.19,6.69,28.12,28.12,0,0,0-2.46,8.8,25.87,25.87,0,0,0,.36,8.86,19.23,19.23,0,0,0,4,7.78,38.41,38.41,0,0,0,8.35,7.3,128.37,128.37,0,0,0,13.33,7.71q12.94,6.68,23.43,13.31a84.69,84.69,0,0,1,17.62,14.53,50,50,0,0,1,10.45,17.63q3.32,9.75,1.82,22.34a51,51,0,0,1-6.42,20,46.37,46.37,0,0,1-13.11,14.37,56.52,56.52,0,0,1-18.81,8.57,84.4,84.4,0,0,1-23.46,2.48l-3.07,25.83-22.22-2.63,3-25.71a94.75,94.75,0,0,1-21.83-7.72,60.21,60.21,0,0,1-17.89-13.51,53.57,53.57,0,0,1-11.22-20.1q-3.71-11.76-1.86-27.34l40.4,4.8q-1.1,9.21.76,15.69a25.93,25.93,0,0,0,5.74,10.68,25.29,25.29,0,0,0,9.24,6.37,43.09,43.09,0,0,0,11.07,2.82,35.84,35.84,0,0,0,11.73-.32,24.1,24.1,0,0,0,8.87-3.68,19.29,19.29,0,0,0,5.88-6.48A23.42,23.42,0,0,0,1089.82,1397.5Z"/><path class="cls-9" d="M2195.53,1354.86s-17.39,24.48-33.33,24.82-40.2-11.34-40.2-11.34-14.63-32.63-4.7-45.39c0,0,9.95-4.37,20.36,3.35a30.62,30.62,0,0,1,5.39,5.16,17,17,0,0,0,8.37,5.67c11.38,3.46,24.88-4.68,29.93,3.18a53.16,53.16,0,0,0,8.79,10.41A40,40,0,0,0,2195.53,1354.86Z"/><path class="cls-9" d="M1968.83,1531.44s61.47-148.92,172.1-151.76c0,0,102.11,11.35,107.79,151.76Z"/><path class="cls-10" d="M2110.62,1384.23s44.34,9.86,58,4.07c0,0,2.07-18.55-16.6-15.94-12.79,1.77-21.11-4.37-26-6.86C2119.1,1362,2108.78,1376.47,2110.62,1384.23Z"/><path class="cls-11" d="M2149.21,1356.28c-2.84,2.13-11.55-30-11.55-30a30.62,30.62,0,0,1,5.39,5.16,17,17,0,0,0,8.37,5.67C2151.45,1338.07,2152,1354.21,2149.21,1356.28Z"/><path class="cls-11" d="M2190.14,1350.72c-.62.37-21.13,12.65-23.91,12.65s15.12-23.06,15.12-23.06A53.16,53.16,0,0,0,2190.14,1350.72Z"/><path class="cls-12" d="M2028.88,1489.84c-1.14-1,43.49-65.72,55.78-66.19s39.92,14.18,59.91,16.08,39.38-3.79,43.16,8,14.18,53.73,7.8,60.43S2053.42,1510.81,2028.88,1489.84Z"/><path class="cls-9" d="M1593.18,1148.33s-13.75,19.36-26.36,19.63-31.78-9-31.78-9-11.57-25.8-3.72-35.89a16.86,16.86,0,0,1,16.1,2.65,24.34,24.34,0,0,1,4.26,4.08,13.47,13.47,0,0,0,6.62,4.48c9,2.74,19.67-3.7,23.66,2.52a42.43,42.43,0,0,0,7,8.23A31.11,31.11,0,0,0,1593.18,1148.33Z"/><path class="cls-9" d="M1413.93,1288s48.59-117.76,136.07-120c0,0,80.75,9,85.23,120Z"/><path class="cls-10" d="M1526,1171.56s35.06,7.79,45.88,3.21c0,0,1.63-14.66-13.13-12.61-10.11,1.41-16.69-3.45-20.57-5.41C1532.75,1154,1524.58,1165.42,1526,1171.56Z"/><path class="cls-11" d="M1556.55,1149.45c-2.24,1.69-9.13-23.7-9.13-23.7a24.34,24.34,0,0,1,4.26,4.08,13.47,13.47,0,0,0,6.62,4.48C1558.32,1135.05,1558.73,1147.82,1556.55,1149.45Z"/><path class="cls-11" d="M1588.91,1145.06c-.49.29-16.7,10-18.9,10s12-18.23,12-18.23A42.43,42.43,0,0,0,1588.91,1145.06Z"/><path class="cls-12" d="M1461.4,1255.06c-.9-.77,34.39-52,44.11-52.33s31.56,11.21,47.37,12.71,31.14-3,34.13,6.35,11.21,42.48,6.17,47.78S1480.81,1271.64,1461.4,1255.06Z"/><path class="cls-9" d="M1289.71,1522.58s33.82,47.62,64.83,48.28,78.18-22.07,78.18-22.07,28.47-63.45,9.16-88.28c0,0-19.37-8.5-39.61,6.51a60.82,60.82,0,0,0-10.49,10,33.23,33.23,0,0,1-16.28,11c-22.12,6.74-48.38-9.1-58.2,6.18a103.71,103.71,0,0,1-17.11,20.25A78.3,78.3,0,0,1,1289.71,1522.58Z"/><path class="cls-9" d="M1730.65,1866s-119.55-289.66-334.73-295.18c0,0-198.63,22.07-209.67,295.18Z"/><path class="cls-10" d="M1454.87,1579.7s-86.25,19.18-112.86,7.91c0,0-4-36.06,32.3-31,24.86,3.47,41-8.48,50.58-13.33C1438.37,1536.41,1458.45,1564.62,1454.87,1579.7Z"/><path class="cls-11" d="M1379.81,1525.34c5.52,4.14,22.46-58.32,22.46-58.32a60.82,60.82,0,0,0-10.49,10,33.23,33.23,0,0,1-16.28,11C1375.45,1489.91,1374.46,1521.31,1379.81,1525.34Z"/><path class="cls-11" d="M1300.19,1514.52c1.22.72,41.11,24.61,46.51,24.61s-29.4-44.86-29.4-44.86A103.71,103.71,0,0,1,1300.19,1514.52Z"/><path class="cls-12" d="M1613.86,1785.12c2.21-1.89-84.6-127.82-108.51-128.74s-77.63,27.59-116.52,31.26-76.59-7.35-83.95,15.64-27.59,104.49-15.17,117.53S1566.13,1825.9,1613.86,1785.12Z"/><g id="man"><path class="cls-13" d="M1926.33,1046s2.72-13.46-28.25-54.87c-6.68-8.93-27.06-42.57-27.06-42.57-8-2-33.14,11.37-39.76,15.43-1.33.82-2.1,1.32-2.1,1.32s-10.73,46.53,12.08,41.26c.71-.17,1.42-.31,2.14-.42,22-3.44,43.34,18.45,53,32.35C1902.69,1047.5,1922.13,1046.33,1926.33,1046Z"/><path class="cls-13" d="M1762.84,955.53s2.73-13.46-28.24-54.87c-6.68-8.93-27.06-42.57-27.06-42.57-8.06-2-33.14,11.38-39.76,15.44l-2.1,1.31s-10.73,46.54,12.08,41.26c.71-.17,1.42-.3,2.13-.41,22.06-3.44,43.35,18.45,53,32.34C1739.21,957.06,1758.65,955.9,1762.84,955.53Z"/><path class="cls-14" d="M1413.9,725.18c6.34-27.22,76.79-112.1,112.88-92.44s17.37,126.42-20.25,252.33q-.87,2.88-1.75,5.73c75.81-12.45,166-16.23,166-16.23l9.5,43.85c-68.32,18.87-201,84.49-256.71,112.74-21.28,9.65-46.27,9.65-51.36-9.07C1355.22,959.4,1413.9,725.18,1413.9,725.18Z"/><path class="cls-15" d="M1548.44,1117.4s161.26-72.77,259.6-102.17c12.18-3.64,23.38-6.59,33.19-8.69l-10.34-42.17s-9.63-.17-25.27-.15c-61.22.17-214.54,3.59-241.93,33.65C1529.32,1035.6,1548.44,1117.4,1548.44,1117.4Z"/><path class="cls-15" d="M1426.57,119.9c-5.3,12.19-9.53,28.19-5.94,36.62,4.06,9.56,2.94,16.48,2.94,16.48l8.67,2.12,10.36,2.52s.55-.89,1.38-2.4,1.94-3.65,3-6.15a8.92,8.92,0,0,1,4.89-6.67c4.41-2.09,9-7.41,9.9-12.56s6.12-14.75,4.62-15.76c-3.62-2.45-9.07,12.49-12.27,13.16-2.9.6-3.82-1.45-4-1.85a.24.24,0,0,1,0-.08c-5-12.21,4.25-43-3.11-44.75C1444.31,100,1428.82,114.7,1426.57,119.9Z"/><path class="cls-15" d="M1984.63,366c-9,9.77-21.93,20.1-31.09,20.23-10.39.15-16.26,4-16.26,4l-5.44-7.08-6.5-8.45s.59-.86,1.64-2.23,8.39-7.55,8.52-12.44,3.12-11.26,7.49-14.12,11-11.57,12.54-10.6c3.71,2.32-7.76,13.34-7.07,16.54.61,2.89,2.86,2.91,3.29,2.88h.08c13.21-.33,37.65-21.29,42.19-15.25C1995.71,341.74,1988.47,361.87,1984.63,366Z"/><path class="cls-16" d="M1594.47,745.5c39.77,10.32,29.79,58.15,23.85,189.42-.67,14.86-2.06,29.2-4,42.89,58.29-11.71,147.92-13.47,191.31-13.59,0,0,7.21,16,6.9,28.83-.66,27.28-14.59,45.31-14.59,45.31-98.34,29.4-249.49,79-249.49,79l0-.11c-10.08,2.62-19.56-2.43-27.11-16.87-30.07-57.58-81.52-440.81-81.52-440.81C1439.32,631.67,1554.69,735.18,1594.47,745.5Z"/><path class="cls-15" d="M1659.4,451.31s-14-35.46,13.21-86l-38.67,8.59-26.26,5.83a251.56,251.56,0,0,0-10,25.6c-1.49,4.38-7,21.95-8.67,27.38-9.24.39,4.08,14.37,23,17.13C1633.1,452.87,1659.4,451.31,1659.4,451.31Z"/><path class="cls-17" d="M1607.68,379.7a251.56,251.56,0,0,0-10,25.6c22.57,6.73,62.81-15.2,62.81-15.2-9.07-8.31-18.08-13.45-26.52-16.23Z"/><path class="cls-15" d="M1590.31,366.47s44.8,49.54,75.22,21.17,56.69-41.08,29.37-73.91-44.57-28.06-57-21.06S1579.45,352.86,1590.31,366.47Z"/><path class="cls-18" d="M1668,384.58s-4.59-5.09,2-11.71,14.2-16.15,6.87-19.08-11.41,1.58-11.65-3.13,9-16.42-8-31.24-29-14.38-34.38-24.5S1627,272,1627,272s-1.18,6.29,1.22,10.49c0,0,1.18-29.59,27.22-29.84s35.52,21,44.26,28.82c19.23,17.26,31.32,28.84,27.38,47.36S1691.14,382.09,1668,384.58Z"/><path class="cls-19" d="M1618.3,356.15l-16.61-15.63s-6.76,10.36-2,14.87S1618.3,356.15,1618.3,356.15Z"/><path class="cls-18" d="M1395.22,262.46c7.11-44,28.5-92.3,28.5-92.3L1447,169.1s-2.58,59.56-2,101.21c.28,20,9,38.1,11.4,41.31,7.24,9.67,113.77,112.21,117.34,115.48l.08.08v0c11.34,1.92,10.07,20.55,21.72,23.67,19.42,5.21,51.68-4.28,68.94,2.12h0s138.32.15,159.38-9.93S1927,372.47,1927,372.47l15.21,17.7s-56.35,108.47-101,128c-24.32,10.62-77.72,23.41-121.34,32.85a48.91,48.91,0,0,0-36.3,33.38c-41,132.33-20.38,243.93-20.38,243.93s-39.33,4.4-88.29-9.2c-63.65-17.68-110.16-46.33-110.16-46.33-17.94-21.75-7.33-101.5-7.33-101.5S1445,684.66,1440.84,707c-3,16.1-4.6,25-5.59,30.66a7.27,7.27,0,0,1-11.48,4.59c-9.2-6.82-22.33-17.42-26.43-25.21-14.33-27.19,17.54-138,61.56-215.25a43.24,43.24,0,0,0-.83-44.3c-27.08-43.44-68.7-112.33-69.22-126.16C1388.58,323.84,1391.12,287.73,1395.22,262.46Z"/><path class="cls-16" d="M1598.57,460.86s-37.14,52.69-9.9,103.62,134.21,43.89,154,107.51l-12,39.61-44.72-24.22s-3.74-34.4-47.74-49.34c-85.94-29.18-106.63-79.57-88.59-124.66,15.24-38.11,37.31-56.47,37.31-56.47Z"/><path class="cls-16" d="M1655.94,431.87l-43.06,14.22-2.13,8.17,53.72-1.27S1661.61,440.64,1655.94,431.87Z"/><path class="cls-16" d="M1592.93,420l-1.43,22.26s-5.65,4.62-5.57,4-12.12-19.11-12.12-19.11A123.37,123.37,0,0,1,1592.93,420Z"/><path class="cls-14" d="M1612.88,446.09l-22-7.41a3.35,3.35,0,0,0-4.4,2.77l-1.81,14.76a3.35,3.35,0,0,0,2.26,3.58l9.66,3.28a3.38,3.38,0,0,0,3.09-.5l14.1-10.62A3.36,3.36,0,0,0,1612.88,446.09Z"/><path class="cls-13" d="M1448.1,166l1.93,18.49s-23.34.35-23.34,0-.7-9.17-.7-9.17l-3.89,10.23-8.67-2.83,9.92-16.72S1433.25,170.66,1448.1,166Z"/><polygon class="cls-13" points="1926.98 372.46 1942.19 390.17 1937.72 407.46 1931.54 403.21 1934.58 390.23 1923.93 398.97 1910.14 380.76 1926.98 372.46"/><path class="cls-1" d="M1930.3,388.71a1.42,1.42,0,1,0-1.42,1.42A1.42,1.42,0,0,0,1930.3,388.71Z"/><path class="cls-1" d="M1431,177.64a1.12,1.12,0,1,0-1.12,1.12A1.12,1.12,0,0,0,1431,177.64Z"/><path class="cls-1" d="M1467.72,608.16a3,3,0,1,0-3,3A3,3,0,0,0,1467.72,608.16Z"/><path class="cls-1" d="M1491.59,558.42a3,3,0,1,0-3,3A3,3,0,0,0,1491.59,558.42Z"/><path class="cls-1" d="M1524.48,520.79a3,3,0,1,0-3,3A3,3,0,0,0,1524.48,520.79Z"/></g></svg>