<svg id="Слой_1" data-name="Слой 1" xmlns="http://www.w3.org/2000/svg" xmlns:xlink="http://www.w3.org/1999/xlink" viewBox="0 0 3000.79 1587.25"><defs><style>.cls-1,.cls-10,.cls-14,.cls-15,.cls-29{fill:none;}.cls-2{fill:#e8f2fa;}.cls-3{fill:#f5c5b3;}.cls-4{fill:#a9c2ff;}.cls-5{fill:#fec4ad;}.cls-6{fill:#e8d4e5;}.cls-7{fill:#7b2b1a;}.cls-8{fill:#133a50;}.cls-9{fill:#fff;}.cls-10,.cls-15{stroke:#fff;}.cls-10,.cls-14,.cls-15,.cls-29{stroke-miterlimit:10;}.cls-10{stroke-width:2px;}.cls-11{fill:#c0d8fb;}.cls-12,.cls-16{opacity:0.5;}.cls-13,.cls-16{fill:#a8ccff;}.cls-14,.cls-29{stroke:#194459;}.cls-17{fill:#21295b;}.cls-18{fill:#ff912b;}.cls-19{fill:#cfcfcf;}.cls-20{fill:#b3b3b3;}.cls-21{fill:#fc7600;}.cls-22{clip-path:url(#clip-path);}.cls-23{fill:#fa0;}.cls-24{fill:#ffc459;}.cls-25{opacity:0.7;isolation:isolate;fill:url(#未命名漸層_3);}.cls-26{fill:url(#未命名漸層_2);}.cls-27{fill:#25468f;}.cls-28{fill:#471a16;}.cls-29{stroke-width:3px;}</style><clipPath id="clip-path"><path class="cls-1" d="M1290.17,1577.42H632.3a69.78,69.78,0,0,1-69.82-69.82v-387a69.78,69.78,0,0,1,69.82-69.82h658.36a69.77,69.77,0,0,1,69.82,69.82v387C1360.48,1546,1329,1577.42,1290.17,1577.42Z"/></clipPath><radialGradient id="未命名漸層_3" cx="107.53" cy="1398.47" r="330.32" gradientTransform="matrix(1, 0, 0, -1, 539, 2637.89)" gradientUnits="userSpaceOnUse"><stop offset="0" stop-color="#fff"/><stop offset="1" stop-color="#fff" stop-opacity="0"/></radialGradient><linearGradient id="未命名漸層_2" x1="421.99" y1="1587.56" x2="421.99" y2="1258.74" gradientTransform="matrix(1, 0, 0, -1, 539, 2637.89)" gradientUnits="userSpaceOnUse"><stop offset="0" stop-color="#ffd71d"/><stop offset="1" stop-color="#feb200"/></linearGradient></defs><path class="cls-2" d="M334.84,978.06C183.4,1073,104.24,1287.81,226.67,1573.48H2636.4c40.81-103.74,65.39-239.45,73.26-320.57,16.72-176.52-43.27-359.92-149-456.78-268-245.35-490.7,95.39-631.32-48.67-81.13-83.1-73.75-316.16-137.18-424.33-140.62-238.95-404.65-357-665.25-314.67-173.56,28-329.91,120-425.3,275.34-130.79,212.41-35.4,364.83-93.42,511.84C544.29,959.37,436.12,914.63,334.84,978.06Z"/><path class="cls-3" d="M549.21,603.39c-.49,1.48,22.12-12.29,22.12-12.29l9.35-14.75s9.34-5.9,15.73-9.34,18.68-23.11,18.68-23.11l-4.91-5.9s-6.89,8.36-9.34,9.83-6.89,0-6.89,0a82.11,82.11,0,0,1,5.41-14.75c3.93-8.85,14.75-23.11,14.75-23.11l-4.42-4.42s-6.89,6.39-9.35,9.83-7.37,9.84-7.37,9.84,4.91-11.8,7.87-16.23,6.39-10.32,6.39-10.32l-4.92-3.45s-5.9,6.89-8.85,12.3-8.36,14.25-8.36,14.25,3.93-13.27,6.39-17.2l3-5.9-5.9-2A46.75,46.75,0,0,0,581.66,509a71.44,71.44,0,0,1-4.43,10.33s1.48-11.31,3.45-14.75,2-4.92,2-4.92l-4.91-1s-8.85,16.71-13.77,27-8.36,24.09-11.31,32c-2.46,7.37-6.39,33.43-6.39,33.43Z"/><path class="cls-4" d="M688.35,702.22,573.79,682.55A422.07,422.07,0,0,1,572.32,624c2-34.41,6.39-43.76,6.39-43.76l-31-4.42s-5.9,27-10.32,46.22c-9.84,42.77-18.69,83.09-11.31,92.43,10.82,13.28,106.2,39.34,138.65,63.92C684.91,793.18,683.93,746,688.35,702.22Z"/><polygon class="cls-5" points="851.1 1027.71 845.2 1067.54 857 1094.58 865.85 1082.78 867.82 1060.66 881.09 1062.62 886.99 1054.76 886.5 1038.04 884.53 992.8 851.1 1027.71"/><path class="cls-4" d="M842.74,725.82c-8.85-3.44-37.86-1-37.86-1s-3,31,8.85,54.58S854.54,889.55,858,897.91s-7.86,130.3-7.86,130.3l42.28-8.85s20.16-94.41,20.16-118c0-24.09-22.62-113.58-38.35-142.09C859,730.74,864.38,733.69,842.74,725.82Z"/><path class="cls-5" d="M773.42,637.81s-9.35,40.81-2,50.15c4.42,5.41,22.12,25.08,22.12,25.08s-59.49,31.47-77.19,31.47-11.31-34.91-11.31-34.91S724.25,694.35,727.2,687c2.95-7.87,4.42-29.5,4.42-29.5Z"/><path class="cls-3" d="M780.79,639.29s-.49-14.75,11.8-14.26c7.87,0,8.36,7.37,2.46,16.71-2.46,3.94-2.95,12.79-5.9,15.74-3.93,3.44-7.38-2-8.36-4.43C778.33,649.12,780.79,639.29,780.79,639.29Z"/><path class="cls-3" d="M713.92,639.29s.49-14.75-11.8-14.26c-7.87,0-8.36,7.37-2.46,16.71,2.46,3.94,3,12.79,5.9,15.74,3.94,3.44,7.38-2,8.36-4.43C716.38,649.12,713.92,639.29,713.92,639.29Z"/><path class="cls-3" d="M793.08,602.9c-.49,4.92-1.47,7.87-2.46,15.24-.49,1.48-.49,3.45-1,5.9-2.46,17.7-5.9,41.8-7.37,45.24-2.46,5.9-14.75,15.73-21.15,19.17-5.9,3.45-21.14,2.95-27-.49S714.41,675.67,712,669.28c-1.48-3.44-4.92-28.52-7.38-46.71-.49-2-.49-3.93-1-5.41-1-6.88-2-9.83-2.46-14.75-1-14.75,15.73-36.88,45.72-36.88C782.76,566.52,794.07,588.15,793.08,602.9Z"/><path class="cls-6" d="M716.87,584.22s25.08-11.31,54.58,2l10.32-6.88s-15.24-7.87-37.36-7.87C722.28,571.93,716.87,584.22,716.87,584.22Z"/><path class="cls-7" d="M790.62,618.14c-.49,1.48-.49,3.45-1,5.9-2.46,17.7-5.9,41.8-7.37,45.24-2.46,5.9-14.75,15.73-21.15,19.17-5.9,3.45-21.14,2.95-27-.49S714.41,675.67,712,669.28c-1.48-3.44-4.92-28.52-7.38-46.71-.49-2-.49-3.93-1-5.41l2.46-3.44s4.42,25.57,11.3,33.92c6.89,7.87,7.87,8.36,7.87,8.36s7.38-2,13.77-3.44c.49,0,.49,0,1-.49a30.22,30.22,0,0,1,16.23,0h1l1,.49,10.33,3s2.46-.49,9.34-8.36,9.83-33.92,9.83-33.92Z"/><path class="cls-7" d="M795.54,593.56c0,.49-2.46,18.19-3.44,20.65l-2.46,7.38-2-3.94a63.42,63.42,0,0,1-5.4-23.11l-.5-15.24,4.92-4.42C796.52,576.84,797.51,582.25,795.54,593.56Z"/><path class="cls-7" d="M717.36,580.28h0L714.91,596a47.64,47.64,0,0,1-7.38,20.16v.49l-2.95,4.92s-1-3-2-6.4c-1-3-3-17.7-3.44-19.66,0-.5-.49-1.48-.49-2-2-10.82,0-15.73,9.83-17.21Z"/><path class="cls-7" d="M786.69,575.37l-4.92,4.42-9.34,3.44c-1-1-18.68-7.37-33.43-5.9-19.18,1.48-21.64,6.89-22.13,7.38h0l-2-.49-9.35-2-2-.49s2-8.36,3.93-10.82c7.38-11.31,28-18.68,46.71-16.71h2c17.21,2.45,25.07,10.32,25.07,10.32Z"/><path class="cls-8" d="M832.91,1538.08v37.37h-71.3s2.46-13.28,36.39-19.67l4.92-17.7Z"/><path class="cls-8" d="M724.25,1538.08v37.37H653s2.46-13.28,36.39-19.67l4.91-17.7Z"/><path class="cls-8" d="M821.11,984.94s9.83,120,10.32,217.32c.5,97.85,6.4,344.67,6.4,344.67H798.49s-40.81-237-55.56-299.92-53.1-261.09-53.1-261.09Z"/><path class="cls-8" d="M735.56,1113.27s-7.38,149-8.85,178c-1.48,29.5,0,255.18,0,255.18s-36.88,1-36.88,0S654.92,1306,650.49,1233.73s-2-157.83-7.86-167.66,16.22-81.13,16.22-81.13L711,998.71Z"/><path class="cls-9" d="M719.33,695.83s-16.23,37.37,8.36,41.3c39.33,6.39,51.13-43.76,51.13-43.76l43.27,22.13s-1,269,16.23,351.06c9.83,47.69-154.39,25.07-178.48-17.21-20.65-36.88,39.33-341.23,39.33-341.23Z"/><path class="cls-4" d="M788.66,698.29c-1,1.47-59,171.1-39.34,330.9,4.43,37.37,72.28,6.39,88.51,6.39,0,0,7.86-119,9.83-163.73,2-44.25-19.18-59-17.21-80.63S856,730.74,856,730.74Z"/><path class="cls-4" d="M691.8,1045.91c6.39-111.12,9.34-343.2,9.34-343.2l-39.34-3s-19.66,194.71-19.66,216.83c0,8.86,2.45,116-3.45,135.71C652,1054.76,691.3,1059.67,691.8,1045.91Z"/><path class="cls-10" d="M1118.58,637.81c-31,10.33-62.45,21.64-86.54,43.27-24.58,21.63-40.32,56-30,87s53.1,48.67,77.68,27.53c8.85-7.37,14.26-20.65,9.84-31-9.35-21.15-42.29-11.31-58,5.9-18.19,20.15-30,48.18-25.57,75.22s28,51.14,55.56,51.14,66.38-41.3,42.78-55.56c-30-18.19-67.85,25.07-82.61,56.54s-5.4,74.24,24.59,92,100.3-4.92,81.62-34.42c-19.67-31-76.7,13.76-84.57,49.66s20.65,75.22,57,79.65,99.82-37.37,74.25-63.92c-36.39-38.35-97.36,59.49-79.65,109.65s90,70.31,130.78,35.89c7.87-6.39,14.75-15.73,13.28-25.57-2.46-16.22-24.59-21.14-40.32-15.73-40.81,13.77-59.49,71.29-34.42,106.2s85.56,35.89,111.61,1c4.92-6.88,8.85-15.24,7.38-23.6-2.46-11.3-16.23-18.19-27.53-15.73-11.81,2-21.15,10.82-27.54,20.65-23.6,34.42-15.73,86.54,17.21,113.09,32.45,26.06,85.06,22.61,114.07-7.87,7.38-7.87,13.77-18.68,11.8-29-2.46-12.29-15.73-20.65-28-20.16-12.78.49-24.09,7.38-32.94,16.72-36.87,38.35-21.14,112.1,28,131.77s146.52-34.91,112.1-75.23c-23.11-27-68.34,31.47-62.44,65.89,5.9,34.91,45.72,58.51,80.14,49.66s79.16-58,52.61-81.62c-18.68-16.72-49.17,18.68-54.58,42.78-5.9,24.58,7.38,51.62,29.51,62.93,24.09,11.8,53.59,4.92,77.19-8.85,23.11-13.77,42.78-32.94,64.9-48.18,44.74-30,102.27-40.81,154.88-29"/><path class="cls-11" d="M2670.32,798.1c-49.66-32-493.64,342.7-477.42,638.2,0,0,86.54-116.53,161.76-173.56s82.61-116.53,82.61-175.53,112.59-34.42,125.38-99.81C2584.77,871.36,2715.07,826.62,2670.32,798.1Z"/><g class="cls-12"><path class="cls-13" d="M2699.33,1073.44c-71.78,43.27-50.64,101.29-92.93,135.21-31,24.59-82.11,11.8-107.67,45.24-29,37.86,3.93,89.48,6.39,135.21,3.44,62.94-52.61,110.14-109.65,128.82-66.37,22.13-151.93,15.24-187.82-50.64-42.78-77.69-10.82-194.71,64.41-231.09,18.19-8.85,41.3-11.31,56.05-29,25.08-30.49,8.85-73.75,20.65-112.1,11.31-37.37,48.19-63.92,82.61-75.72s68.83-14.26,102.27-27.54c45.23-18.68,85.06-59,122.92-86.53,33.92-24.59,152.42-70.31,171.59,9.83C2845.85,988.38,2759.32,1037.06,2699.33,1073.44Z"/></g><path class="cls-14" d="M2706.71,956.91s-293,147.51-527.08,622.47"/><path class="cls-15" d="M2883.71,1178.66s-377.12-4.42-690.32,355"/><path class="cls-11" d="M2696.87,1346.82c-35.89,14.26-45.72,74.73-84.56,82.6-28,5.41-58-19.18-85.56-6.39-31,14.75-25.57,58-38.35,88-17.7,40.81-69.33,52.61-113.09,46.22-50.64-7.38-105.71-39.83-109.15-93.42-3.93-63.43,54.09-127.35,115.05-125.87,14.75.49,31,6.39,46.71,0,26.06-10.82,29-43.76,49.17-64.41,19.18-20.16,52.12-24.59,78.67-21.15,26.55,3.94,50.15,13.77,76.7,15.74,35.9,2.95,75.23-9.84,108.67-14.75,30-4.43,152.91-2,110.62,62.44C2822.74,1360.09,2744.57,1327.64,2696.87,1346.82Z"/><path class="cls-14" d="M2774.07,1287.32s-262.07,22.13-566.42,247.81"/><path class="cls-16" d="M1921,1569.06s59.49-104.24,69.33-115.06c61.46-67.85,142.59-68.83,225.19-51.62,24.09,4.91,87.52,38.35,110.13,33.43,17.71-3.44,39.34-71.78,96.87-68.34s61,71.78,61,71.78,35.9-79.16,93.42-71.78,57.53,61,14.26,100.3c0,0,91.46-27.53,180,15.24,88.5,42.29,46.22,98.34,46.22,98.34Z"/><path class="cls-16" d="M326.48,798.1c49.66-32,493.65,342.7,477.42,638.2,0,0-86.54-116.53-161.76-173.56s-82.61-116.53-82.61-175.53-112.59-34.42-125.38-99.81C412,871.36,281.73,826.62,326.48,798.1Z"/><g class="cls-12"><path class="cls-13" d="M297.47,1073.44c71.78,43.27,50.64,101.29,92.93,135.21,31,24.59,82.11,11.8,107.67,45.24,29,37.86-3.93,89.48-6.39,135.21-3.44,62.94,52.61,110.14,109.65,128.82,66.37,22.13,151.93,15.24,187.82-50.64,42.78-77.69,10.82-194.71-64.41-231.09-18.19-8.85-41.3-11.31-56-29-25.08-30.49-8.85-73.75-20.65-112.1-11.31-37.37-48.19-63.92-82.61-75.72s-68.83-14.26-102.27-27.54c-45.23-18.68-85.06-59-122.92-86.53C306.32,880.7,187.82,835,168.65,915.12,151,988.38,237.48,1037.06,297.47,1073.44Z"/></g><path class="cls-14" d="M290.09,956.91s293,147.51,527.09,622.47"/><path class="cls-15" d="M113.09,1178.66s377.12-4.42,690.32,355"/><g class="cls-12"><path class="cls-13" d="M299.93,1346.82c35.89,14.26,45.72,74.73,84.57,82.6,28,5.41,58-19.18,85.55-6.39,31,14.75,25.57,58,38.35,88,17.7,40.81,69.33,52.61,113.09,46.22,50.64-7.38,105.71-39.83,109.15-93.42,3.93-63.43-54.09-127.35-115-125.87-14.75.49-31,6.39-46.71,0-26.06-10.82-29-43.76-49.17-64.41-19.18-20.16-52.12-24.59-78.67-21.15-26.55,3.94-50.15,13.77-76.7,15.74-35.9,2.95-75.23-9.84-108.67-14.75-30-4.43-152.91-2-110.62,62.44C174.06,1360.09,252.23,1327.64,299.93,1346.82Z"/></g><path class="cls-14" d="M222.73,1287.32s262.07,22.13,566.42,247.81"/><path class="cls-16" d="M1075.8,1569.06s-59.49-104.24-69.33-115.06c-61.46-67.85-142.59-68.83-225.19-51.62-24.09,4.91-87.52,38.35-110.13,33.43-17.7-3.44-39.34-71.78-96.87-68.34s-61,71.78-61,71.78-35.9-79.16-93.42-71.78-57.53,61-14.26,100.3c0,0-91.46-27.53-180,15.24-88.5,42.29-46.22,98.34-46.22,98.34Z"/><path class="cls-17" d="M1717.94,1578.4H1625a19.79,19.79,0,0,1-19.67-18.19l-5.9-73.26H1743.5l-5.9,73.26A19.79,19.79,0,0,1,1717.94,1578.4Z"/><path class="cls-17" d="M2265.18,1578.4h-92.93a19.8,19.8,0,0,1-19.67-18.19l-5.9-73.26h144.56l-5.9,73.26C2283.86,1570.53,2275.5,1578.4,2265.18,1578.4Z"/><path class="cls-18" d="M2281.4,1391.07H1608.78l47.7-346.64c3.93-27,27-47.2,54.08-47.2h469.07c27.53,0,50.15,20.16,54.08,47.2Z"/><path class="cls-18" d="M2190.44,1323.71h-490.7l34.91-348.11a50.62,50.62,0,0,1,50.15-45.73h320.58a50.26,50.26,0,0,1,50.15,45.73Z"/><polygon class="cls-19" points="1619.6 1312.4 1608.78 1391.07 2281.4 1391.07 2270.59 1312.4 1619.6 1312.4"/><polygon class="cls-18" points="2354.17 1525.3 1536.01 1525.3 1551.26 1347.8 2338.93 1347.8 2354.17 1525.3"/><circle class="cls-19" cx="1945.14" cy="1146.67" r="149.47" transform="translate(-241.1 1711.27) rotate(-45)"/><circle class="cls-9" cx="1945.05" cy="1146.67" r="129.31"/><path class="cls-20" d="M1981.48,1252.91a17.16,17.16,0,0,1-11.8-4.92,8.51,8.51,0,0,1-2-2.46l-1.47-3c-.5-1-.5-2-1-2.95,0-1-.49-2-.49-3.44a17.16,17.16,0,0,1,4.92-11.8,16,16,0,0,1,15.24-4.43,6.89,6.89,0,0,1,2.95,1l3,1.47a10.78,10.78,0,0,1,2.46,2,17.15,17.15,0,0,1,4.91,11.8,9.64,9.64,0,0,1-.49,3.44,7,7,0,0,1-1,2.95c-.49,1-1,2-1.48,3a10.77,10.77,0,0,1-2,2.46,9,9,0,0,1-2.46,2l-3,1.47a7,7,0,0,1-2.95,1A9.46,9.46,0,0,1,1981.48,1252.91Z"/><path class="cls-20" d="M1929.36,1258.81h0a16.75,16.75,0,0,1-14.26-19.18h0a16.75,16.75,0,0,1,19.18-14.26h0a16.73,16.73,0,0,1,14.25,19.18h0c-1,8.36-8.35,14.26-16.71,14.26h-2.46Zm-54.09-23.11h0a17.08,17.08,0,0,1-3-23.6h0a17.06,17.06,0,0,1,23.6-2.95h0a17.06,17.06,0,0,1,2.95,23.6h0a16.49,16.49,0,0,1-13.27,6.39h0C1882.16,1239.63,1878.22,1238.15,1875.27,1235.7Zm-35.4-46.71a16.47,16.47,0,0,1,9.35-21.64h0a17.18,17.18,0,0,1,22.12,9.34h0a17.18,17.18,0,0,1-9.34,22.13h0c-2,1-3.93,1-6.39,1h0A18.46,18.46,0,0,1,1839.87,1189Zm7.38-39.34a16.73,16.73,0,0,1-14.26-19.17h0a16.73,16.73,0,0,1,19.18-14.26h0a16.72,16.72,0,0,1,14.25,19.17h0c-1,8.36-8.35,14.26-16.71,14.26h-2.46Zm11.31-49.17c-7.38-5.9-8.85-16.22-3-23.6h0c5.9-7.37,16.22-8.85,23.6-3h0c7.37,5.9,8.85,16.23,3,23.6h0a16.49,16.49,0,0,1-13.28,6.4h0C1865.44,1103.93,1862,1102.45,1858.56,1100.48Zm135.7-16.71c-7.37-5.9-8.85-16.23-3-23.6h0c5.9-7.38,16.23-8.85,23.6-3h0c7.38,5.9,8.85,16.22,2.95,23.6h0a16.5,16.5,0,0,1-13.27,6.39h0A20,20,0,0,1,1994.26,1083.77Zm-100.79-20.65a16.46,16.46,0,0,1,9.34-21.64h0a17.17,17.17,0,0,1,22.12,9.34h0a17.17,17.17,0,0,1-9.34,22.13h0c-2,1-3.93,1-6.39,1h0A16.38,16.38,0,0,1,1893.47,1063.12Zm62.93,4.42a16.74,16.74,0,0,1-14.26-19.17h0a16.74,16.74,0,0,1,19.18-14.26h0a16.74,16.74,0,0,1,14.26,19.17h0c-1,8.36-8.36,14.26-16.72,14.26h-2.46Z"/><path class="cls-20" d="M2035.07,1127a9.62,9.62,0,0,1-3.44-.49,7,7,0,0,1-3-1l-3-1.48a10.77,10.77,0,0,1-2.46-2,17.18,17.18,0,0,1-4.92-11.8,9.41,9.41,0,0,1,.5-3.44,7,7,0,0,1,1-3l1.47-3a10.83,10.83,0,0,1,2-2.46,8.51,8.51,0,0,1,2.46-2l3-1.47c1-.5,2-.5,3-1a17.31,17.31,0,0,1,15.24,4.43,8.55,8.55,0,0,1,2,2.46l1.47,3a7,7,0,0,1,1,3c0,1,.49,2,.49,3.44a17.18,17.18,0,0,1-4.92,11.8A16,16,0,0,1,2035.07,1127Z"/><path class="cls-21" d="M1752.35,601.43s-17.7-38.35,14.26-75.23c0,0,121.45,78.67,257.64,56.54,0,0,14.75,40.81-27,79.16C1997.7,661.9,1851.67,689.44,1752.35,601.43Z"/><path class="cls-18" d="M1960.34,426.88c-87.52-73.75-253.22-84.08-463.17-50.64-180.45,29-364.34,97.35-425.8,193.72-28,43.76-8.85,165.7-8.85,165.7C1228.71,746,1289.68,602.9,1289.68,602.9s-11.31-40.81,26.06-58.51c130.3-62.93,332.38-84.08,407.6-65.88,40.32,9.83,43.27,47.2,43.27,47.2s102.76,116.53,257.15,54.57C2024.25,580.78,2000.16,460.31,1960.34,426.88Z"/><path class="cls-21" d="M1323.61,668.3s4.91-42.29-37.37-66.87c0,0-91,113.08-226.67,134.72,0,0-1.47,43.76,50.16,66.37C1109.73,803,1256.74,783.35,1323.61,668.3Z"/><g class="cls-22"><path class="cls-23" d="M1290.17,1577.42H632.3a69.78,69.78,0,0,1-69.82-69.82v-387a69.78,69.78,0,0,1,69.82-69.82h658.36a69.77,69.77,0,0,1,69.82,69.82v387C1360.48,1546,1329,1577.42,1290.17,1577.42Z"/></g><g class="cls-22"><path class="cls-24" d="M1360.48,1120.15a69.77,69.77,0,0,0-69.82-69.82H632.3a69.78,69.78,0,0,0-69.82,69.82l361.88,293.54a58.46,58.46,0,0,0,73.26,0Z"/></g><g class="cls-22"><path class="cls-25" d="M608.7,1522.84v-387a69.77,69.77,0,0,1,69.82-69.81h654.92c-11.8-9.35-27-15.74-43.27-15.74H632.3a69.78,69.78,0,0,0-69.82,69.82V1507.1a69.77,69.77,0,0,0,69.82,69.82h3A69,69,0,0,1,608.7,1522.84Z"/></g><g class="cls-22"><path class="cls-26" d="M917,1362.55,562,1050.33h798l-355,312.22C979.92,1384.68,942.55,1384.68,917,1362.55Z"/></g><g class="cls-22"><path class="cls-23" d="M917,1362.55,562,1050.33h798l-355,312.22C979.92,1384.68,942.55,1384.68,917,1362.55Z"/></g><path class="cls-5" d="M1599,731.72S1621.57,666.33,1623,659c9.34-42.77,11.8-134.72,11.31-154.38s-2.46-36.88-2.95-39.34-12.78-15.73-12.78-15.73l-3.94.49v2.46l-5.41-4.43h-4.42l-.49,2L1598,447h-5.9s3.93,12.29,5.9,20.16,0,8.36,0,8.36-4.92,2-6.89,1.47-8.36-.49-8.36-.49,18.2,24.09,19.18,26.06,11.31,13.27,7.37,34.42c-6.88,38.35-26,95.38-26,95.38.49-1.47-24.59,70.8-24.59,70.8Z"/><path class="cls-4" d="M1586.66,818.26c6.88-55.07,35.4-119.48,35.4-119.48s-43.27-8.36-54.09-24.09c0,0-14.75,36.38-23.6,54.57-9.34,20.16-22.61,41.8-5.9,53.6C1554.7,794.66,1584.2,837.43,1586.66,818.26Z"/><path class="cls-8" d="M1421.45,1542.51v35.4h68.35s-2.46-12.79-34.91-18.69l-4.92-16.71Z"/><path class="cls-8" d="M1525.2,1542.51v35.4h68.34s-2.46-12.79-34.91-18.69l-4.92-16.71Z"/><path class="cls-27" d="M1432.76,1014.44s-9.34,99.32-9.83,192.25-5.9,343.68-5.9,343.68h37.86S1493.73,1309,1508,1249s50.64-233.55,50.64-233.55Z"/><path class="cls-5" d="M1490.78,686s-2.46,19.17-4.43,28.51c-2,9.84-3.44,14.75-4.91,17.7-3.44,6.4-23.11,26.56-23.11,26.56s62.44,32.94,80.63,32.94,11.8-36.88,11.8-36.88-20.15-15.73-23.1-23.6-4.43-31-4.43-31Z"/><path class="cls-27" d="M1514.87,1122.12s6.89,156.84,8.36,184.87,0,243.38,0,243.38,35.4,1,35.4,0,33.44-244.36,37.37-313.2c4.42-68.83,2-150.45,7.37-159.8,5.9-9.34-15.24-61.95-15.24-61.95l-49.66-2Z"/><path class="cls-4" d="M1470.62,740.08s-52.61-21.14-61.46-3.93c-6.39,13.27-1,97.35,2,121,2.46,20.65,16.71,192.74,16.71,192.74s19.67,30.48,114.57,18.19c36.38-4.91,54.57-22.61,54.57-22.61s-10.32-205.53-13.27-226.18-12.79-52.61-12.79-52.61l-28-18.68s8.85,19.67-16.23,25.57C1475.54,785.32,1470.62,740.08,1470.62,740.08Z"/><path class="cls-5" d="M1540.44,614.21c5.9,2.46,16.22,7.87,17.7,12.78,1,4.92,5.41,19.67,5.9,28,.49,8.85,2,25.08,2,35.4s-6.4,31-8.36,33.44c-2.46,2-19.67,5.9-25.57,3.93-5.9-1.48-40.32-19.67-42.28-41.3,0,0-5.9,3.44-17.21-14.75-2.95-4.92,7.37-39.83,8.36-46.22,3.44-15.24,40.8-3.44,49.16-5.41C1538.47,617.65,1540.44,614.21,1540.44,614.21Z"/><path class="cls-8" d="M1558.14,627s-26.55,16.72-36.38,17.21c-10.33,1-25.57,14.75-25.08,19.18s-4.43,7.37-4.43,7.37-6.39-10.32-11.8-9.34c-10.32,2-4.42,14.75,1.48,17.7a69.21,69.21,0,0,0,11.31,4.43,48.72,48.72,0,0,1,.49,10.81c-.49,4.92-4.43,12.79-4.43,12.79s-12.29-25.57-23.11-34.91c-26-22.62-7.37-64.9,18.2-72.77,10.32-3.44,38.84-5.41,52.61,1A39.11,39.11,0,0,1,1558.14,627Z"/><path class="cls-17" d="M1503.07,662.89c.49,1,3,1,3.44,1.47,1,.49.49.49,5.41,7.87,3.44,5.41,9.34,6.88,20.16,3.44,8.36-2.95,7.38-9.83,7.87-13.27s1.47-3.94,2.46-4.43c1.47,0,2,0,3.93,2.95s2.46,10.82,11.31,9.34c5.9-1,7.37-2.46,8.36-7.37.49-4.43,1-8.36.49-11.31,0-3-.49-4.92-2-5.41a51.18,51.18,0,0,0-7.37,1c-5.41,1-8.85,1-11.8,3s-2.46,3.45-3.94,3.45c-1.47.49-2-1-4.91-2-3.45-1-17.21,1.47-22.62,2.46s-12.29,3-12.29,4.91A34.22,34.22,0,0,0,1503.07,662.89Zm45.24-7.38c.49-2.46.49-2.46,6.88-3.93s6.88-1,8.36,0,2.46,4.92,1.47,10.32c-.49,3-1,6.4-6.39,7.38-5.9,1-6.88-2-8.36-5.9S1547.81,656,1548.31,655.51Zm-37.86,3.94c1-1.48,9.83-2.46,16.22-3.45s8.85-1,9.84,1.48c.49,1,1,4.42,1,8.36,0,4.42-1,7.86-11.31,9.83-7.37,1.48-10.82-.49-13.77-5.9C1510,664.85,1509.46,660.92,1510.45,659.45Zm-21.64,6.39,14.26-3L1508,656s-5.41,1-14.75,3a30.94,30.94,0,0,0-8.85,3.94A14.71,14.71,0,0,1,1488.81,665.84Z"/><path class="cls-5" d="M1375.23,737.62s-12.29-79.16-12.78-86.53c-.49-43.76,21.63-102.27,26.06-121.45s7.37-16.22,8.36-18.68,32.45-7.38,32.45-7.38,8.36-3.44,10.32-3.93c2,0,10.33-2.46,10.33-2.46l-4.92,8.85s-19.66,15.24-21.14,17.21-13.77,10.32-14.26,32.45c-1,38.84-.49,81.13-.49,81.13-.49-1.48,18.68,80.63,18.68,80.63Z"/><path class="cls-4" d="M1411.13,857.1C1397.85,819.24,1366.88,717,1366.88,717s45.72-11.31,58.51-25.57c0,0,15.24,45.73,21.63,64.41,6.88,21.15,17.7,44.26,0,54.09C1429.81,819.73,1418,875.29,1411.13,857.1Z"/><path class="cls-27" d="M2292.71,921c11.8,10.82,20.16,7.38,37.86,68.34,11.31,38.85,52.61,235,52.61,235l-24.58,10.81c-33.44-93.91-33.44-93.41-72.28-169.63a362,362,0,0,1-27-73.26L2187,987.89c-45.23-18.69-29.5-84.57-29.5-84.57S2280.91,909.71,2292.71,921Z"/><path class="cls-27" d="M2019.34,862.51l65.39-41.79,62.94,49.17,78.66,25.56h-.49c31.47,10.82,67.86,27,78.67,37.37,11.8,10.82,35.4,26.55,16.23,87-11.8,38.84-64.41,234.53-64.41,234.53l-26.55-4.92s9.34-113.58,18.68-198.64c4.43-41.3,5.9-52.61,5.9-52.61s-175.53,19.18-232.07-10.81C1983.44,967.24,2019.34,894.47,2019.34,862.51Z"/><path class="cls-8" d="M2258.29,1240.12s-1,6.88-12.29,10.33-19.17-6.4-19.17-6.4l-2.46,23.11,36.38,25.57h30.49L2275,1274.54Z"/><path class="cls-8" d="M2379.74,1208.16s5.41,9.84-4.43,16.72c-9.83,6.39-20.15,0-20.15,0l4.91,23.11,86-27Z"/><path class="cls-5" d="M2280.42,628c0,1.47-14.26-17.21-14.26-17.21l-3.44-15.24a145,145,0,0,0-10.33-12.3c-4.42-4.91-8.35-24.58-8.35-24.58l5.9-3.44s2.95,9.34,4.42,10.82c1.48,2,5.9,2.45,5.9,2.45a102.2,102.2,0,0,0,0-13.76c-.49-8.36-5.41-23.6-5.41-23.6l4.92-2.46a109.23,109.23,0,0,1,4.42,10.81c1,3.45,2.95,10.33,2.95,10.33s-.49-11.31-1.47-15.73-2-10.82-2-10.82l4.92-1.48a115.29,115.29,0,0,1,3.44,12.79c1,5.41,2.46,14.26,2.46,14.26s.49-12.3,0-16.23a53.7,53.7,0,0,1-.49-5.9h5.41a40,40,0,0,1,2,12.29,76.14,76.14,0,0,0,.5,9.84s2-9.84,1.47-13.28,0-4.42,0-4.42l3.93.49s2.46,16.72,2.95,26.55c1,9.83-.49,22.62-.49,29.5s-.49,12.78-.49,12.78Z"/><path class="cls-5" d="M2170.28,647.15a659,659,0,0,0,67.36,48.19s12.3-31.47,18.69-53.6c6.88-26.55,9.34-38.84,9.34-38.84l25.57-2S2283.37,668.79,2273,715c-9.83,44.74-22.12,36.87-32.45,34.41-10.81-2-111.61-56.54-111.61-56.54l10.82-57.53C2138.82,635.35,2146.19,627.49,2170.28,647.15Z"/><path class="cls-28" d="M2063.59,483.91c5.41-3,31.47-5.4,47.69,4.92,31,19.18,16.23,71.79,14.26,84.08s9.34,33.93,8.85,48.68c0,14.25-3.44,19.66-14.26,33.92-3.44,3.94-3.93,11.31-3.93,11.31A107,107,0,0,1,2101.45,624c-2.46-25.07-7.87-19.17-20.16-46.71s-12.78-68.83-12.78-68.83Z"/><path class="cls-28" d="M2089.16,502.11l-26.06-17.7s-22.13-3-34.91,16.71S2011,549.31,2008,570.94s-10.33,61.95-9.84,77.69c.5,16.22,20.16,18.19,20.16,18.19l65.4-28s-7.87-34.41-.49-70.8A390.18,390.18,0,0,0,2089.16,502.11Z"/><path class="cls-5" d="M2111.28,507.52c1.48,8.35,7.87,32,8.36,47.2s-1,40.31-11.31,47.69c-10.32,6.88-29,1.48-43.27-4.42-13.76-5.91-17.21-15.74-20.16-24.59s-2-32.94,1.48-49.66c2.95-17.21,14.26-24.09,26.55-26.55C2085.71,494.73,2111.28,507.52,2111.28,507.52Z"/><path class="cls-5" d="M2054.25,564.55s3.44,37.86-4.43,56.05c-5.41,12.29-28,17.7-28,17.7s-1,34.42,21.63,67.36,92.44,45.24,92.44,45.24,13.76-27.54,21.14-58.51-12.29-54.58-12.29-54.58-19.18-6.39-28-9.83c-22.13-8.36-19.67-43.27-19.67-43.27Z"/><path class="cls-4" d="M2097,652.56s-45.23-11.31-59-20.16L1993.28,659S1966.73,684,2012,750.41c0,0,17.21,60.47-10.82,166.68,0,0,7.38,27.53,49.66,12.78,36.39-12.78,36.88-22.13,68.84-30.48,46.71-11.8,59-19.18,59-19.18-24.58-36.88-20.16-94.89-20.16-94.89s28-26.55,15.74-54.09c-17.21-39.33-23.11-95.39-23.11-95.39l-24.09-5.9s-12.79,15.74-19.18,20.66C2101.45,655,2097,652.56,2097,652.56Z"/><path class="cls-9" d="M2116.69,627.49s-5.41,20.65-19.67,25.07c0,0,5.41,28,18.69,23.11,18.68-6.88,11.31-45.73,11.31-45.73Z"/><path class="cls-9" d="M2032.61,628.47s8.85,42.78,32.45,46.71c23.6,3.44,32-22.62,32-22.62s-50.15-14.75-55.07-30Z"/><path class="cls-28" d="M2074.41,496.7c-4.43.49-7.38,21.14-7.87,32.45-.49,11.8-17.7,20.65-10.33,46.22,7.87,25.57,6.39,50.15,16.72,77.68,10.33,28-2.46,37.86-7.87,47.7,0,0-22.12-24.1-29.5-35.9-11.8-19.17-31.47-14.25-31.47-14.25s33.44-64.91,32.46-82.61-4.43-44.25,9.83-60.47C2060.15,491.78,2074.41,496.7,2074.41,496.7Z"/><path class="cls-5" d="M2056.7,548.33s-9.34-10.33-15.24-8.86-6.39,10.82-2,18.2c4.91,7.37,22.12,11.8,22.12,11.8Z"/><path class="cls-28" d="M2077.85,528.66c8.36,1,13.27-.49,26.55-2,16.72-2,24.09,2.46,24.09,2.46l-6.39-28s-19.67-10.81-33.44-10.81c-17.7,0-33.43,6.88-24.58,12.78S2077.85,528.66,2077.85,528.66Z"/><path class="cls-5" d="M2031.14,690.42c-3,35.4-13.28,135.71-13.28,135.71,32,28,77.2,74.73,77.2,74.73s-12.79,25.57-18.2,21.14c-44.25-34.41-94.4-55.06-98.33-78.67-5.9-39.33-7.87-138.65,6.39-171.1C1996.23,646.66,2034.09,653.05,2031.14,690.42Z"/><path class="cls-5" d="M2114.23,903.32c13.28,4.92,21.64,9.83,21.14,14.75-.49,3.44-11.8-3-18.68-2.46a39.32,39.32,0,0,0,16.23,16.23c8.85,4.42,13.76,10.32,8.85,15.73-4.92,4.92-13.28,12.29-19.18,9.83s-26.06-16.71-33.43-20.65c-7.87-3.93-10.82-13.27-14.75-16.22-3.94-2.46,7.37-22.62,7.37-22.62,2,.49,13.28,3,13.28,3s8.85,1.48,10.81,1C2108.33,900.86,2114.23,903.32,2114.23,903.32Z"/><line class="cls-29" y1="1577.42" x2="2996.8" y2="1577.42"/></svg>