<svg id="Слой_1" data-name="Слой 1" xmlns="http://www.w3.org/2000/svg" viewBox="0 0 383.28 383.25"><defs><style>.cls-1{fill:#fff;}</style></defs><path class="cls-1" d="M179.65,0H203.6c6.41.83,12.86,1.41,19.21,2.52,45.81,8,84.29,29.32,114.32,64.8,38,44.91,52.66,97,43.51,155-7.93,50.23-32.93,91-73.38,121.79-41.86,31.83-89.4,44.09-141.5,37.3-38.21-5-71.89-20.62-100.71-46.21C31.75,305.67,11,268.9,3,225c-1.29-7.09-2-14.28-3-21.42V179.65c.57-4.68,1.06-9.37,1.74-14,6-41.77,23.64-77.91,53.21-108C83.64,28.37,118.23,10.05,158.62,2.94,165.59,1.72,172.64,1,179.65,0Zm62.83,125.33V87.65a4.21,4.21,0,0,0-1.16-.4c-13.84.11-27.73-.5-41.49.57-14.23,1.1-25.43,8.17-32.22,21.26-4.54,8.76-5.84,18.17-5.77,27.89,0,7.22,0,14.43,0,22.08H140.21v39.43H162V309.24H208.2v-111h31.1c1.34-13.14,2.65-25.95,4-39.16H208.11c0-7.19,0-14,0-20.86,0-10,2.85-12.83,12.95-12.84Z"/></svg>