<svg id="Слой_1" data-name="Слой 1" xmlns="http://www.w3.org/2000/svg" viewBox="0 0 394.75 384.56"><defs><style>.cls-1{fill:#fff;}</style></defs><path class="cls-1" d="M394.75,156.82V173c-.21,1.37-.5,2.73-.62,4.11a153.25,153.25,0,0,1-18.31,60.7c-11.95,22-28.76,40-47.46,56.23-33.46,29-69.48,54.53-107.24,77.58A137.34,137.34,0,0,1,198,382.75c-12.31,4.63-23,.14-26.35-10.93a46.84,46.84,0,0,1-1.5-15.93c.34-5.71,2-11.34,3.17-17,1-4.92.15-6.58-4.75-7.75-5.11-1.21-10.28-2.22-15.44-3.2-33.71-6.41-64.64-19-91.49-40.8C35.3,265.8,16.28,239.41,6.44,206.81c-11.17-37-7.83-72.92,10.13-107.13,19.71-37.53,50.26-63.57,88.68-80.47C148.82,0,194.3-4.46,240.94,4.27,288.39,13.15,329,34.56,360.38,72c15.06,18,25.7,38.34,30.67,61.38C392.71,141.07,393.54,149,394.75,156.82Zm-202.54,3.12.79-.38c.77,1,1.57,2,2.3,3Q210,182.78,224.76,203c3.52,4.83,7,6.26,11.45,4.79s6.5-4.83,6.54-10.61c.05-6.68,0-13.37,0-20.05V129.76c0-4.67-1.23-8.73-5.95-10.67-6.48-2.66-12.58,2-12.67,9.81-.12,12.21,0,24.41,0,36.62,0,1.19-.12,2.38-.23,4.43-1.33-1.75-2.11-2.74-2.84-3.75-9.82-13.51-19.53-27.09-29.53-40.46a13.85,13.85,0,0,0-6.89-5c-5.76-1.51-10.88,2.83-10.93,9.26-.18,22.74-.08,45.48-.05,68.23a13.33,13.33,0,0,0,.59,3.4A8.93,8.93,0,0,0,184.94,208c4.82-1.15,7.22-4.42,7.25-10.33C192.26,185.07,192.21,172.51,192.21,159.94ZM274,135.38h4.4c9.89,0,19.78.06,29.67,0,6.24-.06,10.24-3.69,10.35-9.08.09-5.22-4.06-9.37-10.06-9.43q-21.58-.21-43.16,0c-6.2.07-9.93,3.83-10,9.92q-.15,35.07,0,70.13c0,6.15,3.74,9.92,9.88,10q22.35.23,44.71,0c6,0,10.19-4.16,10.06-9.43s-4.23-9-10.4-9.07c-10.41-.08-20.81,0-31.22,0H274v-17.1c5.5,0,10.75.06,16,0a137,137,0,0,0,14.2-.53,8.58,8.58,0,0,0,7.45-8.89,8.83,8.83,0,0,0-7.54-8.86,41.76,41.76,0,0,0-6.52-.41c-7.8,0-15.61,0-23.63,0ZM98.16,190v-4.6q0-27.53,0-55.06c0-3.57-.34-7-3.29-9.45a8.89,8.89,0,0,0-9.72-1.43c-4.13,1.78-5.6,5.43-5.63,9.7,0,8.34,0,16.68,0,25,0,14.38,0,28.75,0,43.13,0,7.17,3.37,11.12,9.82,11.21,11,.16,22.09.27,33.11-.13,2.62-.09,5.61-1.74,7.62-3.57,2.69-2.43,2.63-6.07,1.2-9.31-1.74-3.95-5.22-5.47-9.37-5.5C114.22,190,106.53,190,98.16,190Zm60.33-26.65c0-10.77,0-21.54,0-32.32a30.79,30.79,0,0,0-.44-5.34,8.72,8.72,0,0,0-7.57-7.14c-3.73-.54-7.07.66-8.81,4a17.79,17.79,0,0,0-1.82,7.66c-.13,22.06-.09,44.12-.05,66.18a22.3,22.3,0,0,0,.56,4.95A8.83,8.83,0,0,0,151.2,208c4.82-1.16,7.23-4.57,7.27-10.74C158.55,185.93,158.49,174.64,158.49,163.35Z"/></svg>