<svg id="曉_1" data-name="曉 1" xmlns="http://www.w3.org/2000/svg" xmlns:xlink="http://www.w3.org/1999/xlink" viewBox="0 0 595 262.81977"><defs><style>.cls-1{fill:#2f2827;}.cls-2,.cls-3,.cls-4,.cls-5,.cls-6{fill-rule:evenodd;}.cls-2{fill:url(#新增漸層色票_5);}.cls-3{fill:url(#新增漸層色票_7);}.cls-4{fill:url(#新增漸層色票_6);}.cls-5{fill:url(#新增漸層色票_6-2);}.cls-6{fill:url(#新增漸層色票_7-2);}</style><linearGradient id="新增漸層色票_5" x1="189.76034" y1="238.55956" x2="240.94213" y2="72.21872" gradientUnits="userSpaceOnUse"><stop offset="0" stop-color="#f9f7c2"/><stop offset="0.5471" stop-color="#fcfbe2"/><stop offset="1" stop-color="#f8cc7d"/></linearGradient><linearGradient id="新增漸層色票_7" x1="10.65617" y1="205.72422" x2="196.77179" y2="169.66432" gradientUnits="userSpaceOnUse"><stop offset="0" stop-color="#e6ae56"/><stop offset="0.26595" stop-color="#f4f2a1"/><stop offset="0.6094" stop-color="#cf9945"/><stop offset="1" stop-color="#f7c666"/></linearGradient><linearGradient id="新增漸層色票_6" x1="150.53761" y1="261.62198" x2="134.25249" y2="160.42161" gradientUnits="userSpaceOnUse"><stop offset="0" stop-color="#fffffe"/><stop offset="0.5471" stop-color="#f8f5b3"/><stop offset="1" stop-color="#edce83"/></linearGradient><linearGradient id="新增漸層色票_6-2" x1="108.418" y1="74.81992" x2="161.49445" y2="74.81992" xlink:href="#新增漸層色票_6"/><linearGradient id="新增漸層色票_7-2" x1="7.02807" y1="76.15288" x2="227.169" y2="76.15288" xlink:href="#新增漸層色票_7"/></defs><path class="cls-1" d="M451.2616,105.854a16.27546,16.27546,0,0,1,2.548,8.84334q0,5.44723,2.64794,7.4809a6.53934,6.53934,0,0,0,4.09727,1.21284,7.6148,7.6148,0,0,0,5.54566-2.3985,8.70919,8.70919,0,0,0,2.3985-6.44526,18.06342,18.06342,0,0,0-1.79886-7.19467q-2.39825-5.09615-9.29305-7.94391-.47425-.19528-.94952-.37236a26.72953,26.72953,0,0,0-9.39289-1.72627,7.20734,7.20734,0,0,0-2.24857.29978q-.59945.14951-.29945.59964Q447.81373,102.10655,451.2616,105.854Z"/><path class="cls-1" d="M456.45755,66.04477q2.0488,2.26592,4.09727,4.435a14.59929,14.59929,0,0,1,3.89707,9.74276,8.48933,8.48933,0,0,0,2.62294,6.59519,8.91027,8.91027,0,0,0,6.2204,2.3985,7.51941,7.51941,0,0,0,5.3213-2.02379,7.30266,7.30266,0,0,0,2.17331-5.62067,17.75957,17.75957,0,0,0-2.24823-8.09418q-2.09884-3.89728-9.21855-6.67011-7.11973-2.77291-11.76606-2.77288a7.674,7.674,0,0,0-1.09945.068,1.79408,1.79408,0,0,0-.99918.38173q-.1499.14976,0,.4498Q455.95808,65.492,456.45755,66.04477Z"/><path class="cls-1" d="M581.81547,153.81873a101.87428,101.87428,0,0,1-31.17725-32.67633,72.93992,72.93992,0,0,1-5.84561-11.24134q-.29928-.89947-1.1993-5.24647h35.82391q3.74739,0,3.74722-2.09821,0-1.79907-2.17347-4.57182a70.62809,70.62809,0,0,0-7.86907-7.86932,3.30013,3.30013,0,0,0-1.79886-.74916q-2.248,0-7.0449,5.246-4.796,5.24629-6.595,5.246H539.24686V69.88021q2.248-1.64854,4.19694-3.07273,1.9482-1.42379,1.34881-2.17331-1.49866-1.49878-8.99311-2.92272a68.10317,68.10317,0,0,0-12.14143-1.42415q-2.69778,0-2.69795.59964V99.85809H486.33567q1.7987-6.59493,2.62336-10.492.82421-3.89715.22436-4.49672-3.2971,6.74508-6.59511,13.49Q476.74305,113.348,471.047,128.33723q-7.34463,18.73621-10.19248,23.23284a5.42628,5.42628,0,0,1-2.99773,2.47351,11.14724,11.14724,0,0,1-1.39923.38123,15.32009,15.32009,0,0,1-3.09757.29292,36.52884,36.52884,0,0,1-4.04709-.29986q-2.54814-.29953-3.44744-.29936-1.79844,0-2.24824.74916,5.396,4.34682,10.79213,8.69374a22.05706,22.05706,0,0,1,2.04821,2.13476,13.11065,13.11065,0,0,1,3.34769,8.50743,14.57271,14.57271,0,0,1-1.19938,5.69576,31.24506,31.24506,0,0,0-2.14831,7.16641,19.31669,19.31669,0,0,0-.24977,3.026,16.85411,16.85411,0,0,0,.24977,2.98619,10.29051,10.29051,0,0,0,2.59811,5.40785,8.99892,8.99892,0,0,0,6.745,2.99782,9.22224,9.22224,0,0,0,7.19483-3.44745q2.99769-3.4476,2.99765-9.74285a36.77243,36.77243,0,0,0-1.72352-10.41725A59.38647,59.38647,0,0,0,468.64849,165.36q-.74907-1.34914,2.24866-12.89051,2.09821-8.09385,7.26975-25.25655,5.17118-17.16229,7.569-25.40615l2.39859,2.84779h25.63084q-1.64842,6.895-3.29734,12.29087a148.66065,148.66065,0,0,1-7.04507,17.98688,175.63777,175.63777,0,0,1-15.28843,26.3805q-7.64468,10.792-11.9915,16.93752,1.79906,1.34913,12.44113-6.44526a123.39553,123.39553,0,0,0,23.38269-22.933q2.54826-3.14745,4.94635-6.5951,1.79868-2.548,4.04692-5.99554v60.85527a5.18228,5.18228,0,0,0,1.94887,3.52236q1.94795,1.87332,5.84561,1.87336a10.95473,10.95473,0,0,0,8.09384-3.14749q2.39826-2.3985,2.39842-4.49655V104.65459h1.34881a142.54413,142.54413,0,0,0,2.69828,15.364,179.4401,179.4401,0,0,0,5.3959,19.71039,83.02585,83.02585,0,0,0,16.48788,28.32888q5.54559,4.94638,11.09183,9.89311a31.51446,31.51446,0,0,0,2.99781-6.22081,22.25217,22.25217,0,0,1,3.59738-6.52018q1.49865-1.49878,3.3726-3.44745,1.8732-1.94869,1.72343-3.44744Q587.96078,158.01558,581.81547,153.81873Z"/><path class="cls-1" d="M413.93878,127.28787a2.78958,2.78958,0,0,0-1.7986-.59923q-2.54777,0-7.64438,5.54583-5.096,5.54558-6.89489,5.54566H378.565V106.3036l.44971-.29978h32.526q4.19706,0,4.197-2.09864,0-1.94858-4.197-5.99562a64.5427,64.5427,0,0,0-6.5951-5.69568,2.78959,2.78959,0,0,0-1.79894-.59948q-2.39775,0-7.64413,4.79625-5.24643,4.7965-6.745,4.7965H329.70083V85.01921q6.26981,0,15.36385-.59454l.07509-.0051q9.14271-.59944,23.38269-1.94837,7.34464-.74983,13.78977-2.0238,6.44531-1.274,11.09166-2.47309a13.58983,13.58983,0,0,1,2.47343.97435,9.35725,9.35725,0,0,0,3.6723.9741,3.78294,3.78294,0,0,0,2.548-.89909q-3.44736-4.79662-6.89488-9.7431-8.09448-8.69341-10.04255-8.69349-2.09847.14976-9.29306,3.59746-12.74082,5.9955-18.51168,8.46855a82.40971,82.40971,0,0,1-12.29078,4.0016q-.84818.21336-1.72393.42019-2.39825.59945-13.63992,2.84788v-.89909q-2.39826-1.19937-4.8716-2.24857-2.47289-1.04912-4.42146-1.72351-1.94858-.6747-4.49688-1.34923-2.5479-.67444-4.047-.97435v65.05212H287.88154l4.197,4.79667h54.85964v46.46568H321.60656V160.26381q2.54877-1.64916,5.24647-3.29751v-1.79894a39.95757,39.95757,0,0,0-10.19257-3.14766,57.36351,57.36351,0,0,0-10.49226-1.34864q-1.49891,0-1.49907.29937v34.025q0,.44981-2.02346,2.32358-2.02359,1.87332-2.0233,3.07274,0,1.94858,5.396,5.69568,5.396,3.74739,7.49454,4.047,1.0491.14976,4.49638-2.39817,3.44736-2.54789,3.59729-3.89707H389.6565v3.74723a4.2741,4.2741,0,0,0,1.79885,3.59746,8.65119,8.65119,0,0,0,5.246,1.34863q5.39607,0,8.09418-2.02329a6.20377,6.20377,0,0,0,2.698-5.17137V160.114q0-.44968,3.74714-2.17357,3.74764-1.7238,2.99781-2.92288-1.0491-1.49878-8.54347-2.548a99.12929,99.12929,0,0,0-13.64-1.04936,12.9205,12.9205,0,0,0-2.39858.29978v37.32256H365.22487V144.52525l2.69794-1.94845h53.66044q3.74739,0,3.74722-2.09838,0-2.39826-4.49672-7.04474A60.07485,60.07485,0,0,0,413.93878,127.28787ZM360.4282,137.78013H329.70083V106.00382H360.4282Z"/><path class="cls-2" d="M181.17265,247.37446c11.46013-1.77616,32.891-18.68166,41.43246-26.8298,24.59991-23.46807,40.13275-62.51395,36.53959-98.70383a141.30948,141.30948,0,0,0-5.62721-28.2769c-1.77851-5.87864-7.148-19.39986-10.54243-23.47924-8.46331-.656-19.78309,5.46931-24.33254,8.98961-6.23679,4.82612-10.88838,10.60505-15.21768,18.84342-3.74487,7.12568-6.62913,15.80717-9.64,23.67329-2.8268,7.3846-4.01554,10.07011-9.48437,15.49924C159.51689,161.69128,168.0861,207.51744,181.17265,247.37446Z"/><path class="cls-3" d="M37.41072,146.52674c-10.76493,2.95345-22.52492,9.1802-23.86566,12.88489-1.24629,3.44473,4.1252,16.35112,5.57127,19.95442C30.77915,208.42913,54.27068,232.05,82.443,245.4019c4.64521,2.20145,7.29579,3.67916,10.42245,4.15054,19.23012-21.05838,21.82352-73.15814,61.75772-106.65773,2.88848-2.42282,7.81571-6.31349,10.94856-8.53729-8.19471-2.6993-16.66384-10.33251-26.99128-11.81-12.89531-1.84526-20.393,6.5943-25.19869,12.40271-5.79621,7.00541-11.4085,15.05217-18.06345,20.10511a20.98069,20.98069,0,0,1-14.1293,4.383C60.27521,158.68376,62.44521,139.65784,37.41072,146.52674Z"/><path class="cls-4" d="M180.14379,137.79605c-10.85966-.76486-9.38692-3.85669-23.96414,8.68966-12.88592,11.09183-22.758,25.77382-29.75922,41.14406-6.84337,15.0256-12.111,31.70033-18.42686,47.26932-2.31852,5.715-4.78462,11.37169-8.63755,16.47307,8.44941,4.08839,27.92644,5.50555,39.478,5.28624,17.20461-.32681,24.09774-3.52134,38.359-7.279-.68872-3.5788-4.07619-10.46686-5.43269-14.2767-8.32963-24.88175-14.662-54.171-4.36281-79.5597C170.48273,147.93639,174.66942,143.83006,180.14379,137.79605Z"/><path class="cls-5" d="M134.95634,48.2817a26.53823,26.53823,0,1,0,26.53811,26.53811A26.53844,26.53844,0,0,0,134.95634,48.2817Zm9.09749,34.28868,1.51871,2.86558-2.86586-1.51843a16.10874,16.10874,0,0,0-15.50063,0L124.34019,85.436l1.51871-2.86558a16.111,16.111,0,0,0,0-15.50091l-1.51871-2.86558,2.86586,1.51848a16.10909,16.10909,0,0,0,15.50063,0l2.86586-1.51848-1.51871,2.86558A16.10921,16.10921,0,0,0,144.05383,82.57038Z"/><path class="cls-6" d="M211.27767,25.753c-1.74768-.86353-6.55835-2.02755-8.731-.8005.43148-1.164,1.07234-3.2597.13993-3.98032-.80978-.6263-14.04867-4.89066-21.50574-6.83919a125.31392,125.31392,0,0,0-89.12095.39658,124.0664,124.0664,0,0,0-40.95213,25.753L38.57663,54.11623c-1.88338,2.5875-3.37653,4.79927-5.44866,7.6696C28.02512,68.855,23.29106,78.59465,19.579,89.22369c-.73621,1.29552-1.57716,2.59511-2.4749,3.90754C13.74335,98.04436,9.6753,103.13449,8.07648,108.836c-2.23045,7.95468-.69942,14.76637,2.682,22.703a52.847,52.847,0,0,0,4.43019,7.84156c.63306.91063,1.26246,1.86928,1.91547,2.81768a28.58309,28.58309,0,0,0,3.159,3.96794c-1.20579-5.27854.48482-10.7146,2.91159-15.29973,2.31-4.36469,2.79705-4.64971,4.63533-9.702a31.82819,31.82819,0,0,0,1.6332-8.85683c.70624-13.01736-3.09163-16.70567-6.52593-25.7721A150.0725,150.0725,0,0,1,39.15515,59.30773c11.765-16.185,32.29058-30.94722,50.7-38.10856A122.9651,122.9651,0,0,1,171.451,18.14593c7.04,2.472,21.08228,15.124,25.24648,16.34129,2.13826.29109,2.60675-.93894,3.36771-2.47707a8.28775,8.28775,0,0,0,.21649,2.3568,14.16862,14.16862,0,0,0,7.91731,9.27071c7.017,3.00712,15.7331,16.11048,16.20526,22.99374.47228,6.88383,2.67918-5.01558,2.71356-6.11679C227.98432,38.673,217.651,28.90344,211.27767,25.753ZM20.5316,104.21874c-.92369,2.00234-2.20031,3.80607-3.42747,6.0591a29.871,29.871,0,0,0-3.52873,11.32141c-.60837,5.05.47709,8.96834.41108,9.97672-2.73837-7.63488-2.37033-16.81614,1.44514-23.198a25.0837,25.0837,0,0,1,1.67251-2.42224c1.98795-2.58864,4.01773-4.66306,4.6516-8.64132C22.56528,98.55262,21.1916,102.78724,20.5316,104.21874Z"/></svg>