<svg id="曉_1" data-name="曉 1" xmlns="http://www.w3.org/2000/svg" viewBox="0 0 595 262.82"><defs><style>.cls-1,.cls-2{fill:#332b29;}.cls-2{fill-rule:evenodd;}</style></defs><path class="cls-1" d="M451.26,105.85a16.29,16.29,0,0,1,2.55,8.85q0,5.44,2.65,7.48a6.52,6.52,0,0,0,4.09,1.21,7.62,7.62,0,0,0,5.55-2.4,8.69,8.69,0,0,0,2.4-6.44,18.08,18.08,0,0,0-1.8-7.2q-2.4-5.09-9.29-7.94c-.32-.13-.64-.26-1-.37a26.75,26.75,0,0,0-9.4-1.73,7.18,7.18,0,0,0-2.24.3q-.6.15-.3.6Q447.8,102.11,451.26,105.85Z"/><path class="cls-1" d="M456.46,66c1.36,1.52,2.73,3,4.09,4.44a14.6,14.6,0,0,1,3.9,9.74,8.53,8.53,0,0,0,2.62,6.6,8.93,8.93,0,0,0,6.23,2.4,7.53,7.53,0,0,0,5.32-2,7.29,7.29,0,0,0,2.17-5.62,17.73,17.73,0,0,0-2.25-8.09q-2.1-3.9-9.22-6.67C464.58,65,460.65,64,457.56,64a8.35,8.35,0,0,0-1.1.07,1.78,1.78,0,0,0-1,.38q-.15.15,0,.45C455.79,65.31,456.12,65.68,456.46,66Z"/><path class="cls-1" d="M581.82,153.82a101.82,101.82,0,0,1-31.18-32.68,72.53,72.53,0,0,1-5.85-11.24q-.3-.9-1.2-5.25h35.83c2.5,0,3.74-.69,3.74-2.09q0-1.8-2.17-4.58a70.71,70.71,0,0,0-7.87-7.86,3.3,3.3,0,0,0-1.8-.75q-2.25,0-7,5.24t-6.6,5.25H539.25v-30l4.19-3.07c1.3-1,1.75-1.68,1.35-2.18-1-1-4-2-9-2.92a68,68,0,0,0-12.14-1.42q-2.7,0-2.7.6v39H486.34q1.79-6.6,2.62-10.49c.55-2.6.62-4.1.22-4.5q-3.29,6.75-6.59,13.49-5.85,15-11.54,30-7.35,18.74-10.2,23.23a5.37,5.37,0,0,1-3,2.47,10.27,10.27,0,0,1-1.4.38,15,15,0,0,1-3.1.3,36.59,36.59,0,0,1-4.05-.3c-1.7-.2-2.84-.3-3.44-.3q-1.8,0-2.25.75l10.79,8.69a21.49,21.49,0,0,1,2,2.14,13.1,13.1,0,0,1,3.35,8.5,14.59,14.59,0,0,1-1.2,5.7,30.87,30.87,0,0,0-2.15,7.17,18.82,18.82,0,0,0-.25,3,16.59,16.59,0,0,0,.25,3,10.23,10.23,0,0,0,2.6,5.41,9,9,0,0,0,6.74,3A9.25,9.25,0,0,0,473,198q3-3.45,3-9.75a36.69,36.69,0,0,0-1.72-10.41,59.36,59.36,0,0,0-5.62-12.52q-.75-1.35,2.25-12.89,2.1-8.1,7.27-25.26t7.57-25.4l2.39,2.84h25.64q-1.65,6.9-3.3,12.3a148.51,148.51,0,0,1-7.05,18,174.17,174.17,0,0,1-15.29,26.38l-12,16.94q1.8,1.35,12.44-6.44A123.38,123.38,0,0,0,512,148.87c1.7-2.1,3.34-4.29,4.94-6.59q1.8-2.55,4.05-6v60.86a5.18,5.18,0,0,0,1.95,3.52q2,1.88,5.84,1.87a11,11,0,0,0,8.1-3.15q2.4-2.38,2.4-4.49V104.65h1.35A142,142,0,0,0,543.29,120a179.89,179.89,0,0,0,5.4,19.71,83.07,83.07,0,0,0,16.49,28.33L576.27,178a31.49,31.49,0,0,0,3-6.22,22.47,22.47,0,0,1,3.59-6.52q1.5-1.5,3.38-3.45c1.25-1.3,1.82-2.45,1.72-3.44Q588,158,581.82,153.82Z"/><path class="cls-1" d="M413.94,127.29a2.79,2.79,0,0,0-1.8-.6q-2.55,0-7.64,5.54t-6.9,5.55h-19V106.3l.44-.3h32.53q4.2,0,4.2-2.09t-4.2-6a65.54,65.54,0,0,0-6.59-5.7,2.79,2.79,0,0,0-1.8-.6q-2.4,0-7.65,4.8c-3.5,3.2-5.74,4.8-6.74,4.8H329.7V85q6.27,0,15.36-.6h.08q9.14-.6,23.38-2,7.35-.75,13.79-2T393.4,78a13.83,13.83,0,0,1,2.48,1,9.32,9.32,0,0,0,3.67,1,3.78,3.78,0,0,0,2.55-.9q-3.45-4.78-6.9-9.74-8.08-8.7-10-8.69t-9.29,3.59q-12.75,6-18.51,8.47a81.28,81.28,0,0,1-12.3,4c-.56.15-1.14.29-1.72.42q-2.4.6-13.64,2.85V79q-2.4-1.2-4.87-2.24t-4.42-1.73q-1.95-.67-4.5-1.35c-1.7-.45-3.05-.77-4.05-1v65.05h-24l4.2,4.8h54.86V189H321.61V160.26c1.7-1.1,3.44-2.19,5.24-3.29v-1.8A39.87,39.87,0,0,0,316.66,152a57.33,57.33,0,0,0-10.49-1.35q-1.5,0-1.5.3v34c0,.3-.68,1.07-2,2.32s-2,2.27-2,3.07q0,2,5.4,5.7c3.6,2.5,6.09,3.84,7.49,4q1,.15,4.5-2.39t3.6-3.9h68.05v3.75a4.26,4.26,0,0,0,1.8,3.59,8.6,8.6,0,0,0,5.24,1.35q5.4,0,8.1-2a6.21,6.21,0,0,0,2.69-5.17V160.11c0-.3,1.25-1,3.75-2.17s3.5-2.12,3-2.92q-1-1.5-8.54-2.55a99.17,99.17,0,0,0-13.64-1.05,12.91,12.91,0,0,0-2.4.3V189H365.22V144.53l2.7-1.95h53.66q3.75,0,3.75-2.1,0-2.4-4.5-7A60,60,0,0,0,413.94,127.29Zm-53.51,10.49H329.7V106h30.73Z"/><path class="cls-2" d="M181.17,247.37c11.46-1.77,32.89-18.68,41.44-26.83,24.6-23.46,40.13-62.51,36.53-98.7a140.57,140.57,0,0,0-5.62-28.28c-1.78-5.87-7.15-19.4-10.54-23.48-8.47-.65-19.79,5.47-24.34,9-6.23,4.83-10.89,10.61-15.22,18.85-3.74,7.12-6.62,15.8-9.64,23.67-2.82,7.39-4,10.07-9.48,15.5C159.52,161.69,168.09,207.52,181.17,247.37Z"/><path class="cls-2" d="M37.41,146.53c-10.76,2.95-22.52,9.18-23.86,12.88-1.25,3.45,4.12,16.35,5.57,20,11.66,29.06,35.15,52.68,63.32,66,4.65,2.2,7.3,3.68,10.43,4.15,19.23-21.06,21.82-73.16,61.75-106.66,2.89-2.42,7.82-6.31,10.95-8.53-8.19-2.7-16.66-10.34-27-11.81-12.89-1.85-20.39,6.59-25.2,12.4C107.59,142,102,150,95.32,155.06a21,21,0,0,1-14.13,4.38C60.28,158.68,62.45,139.66,37.41,146.53Z"/><path class="cls-2" d="M180.14,137.8c-10.86-.77-9.38-3.86-24,8.69-12.89,11.09-22.76,25.77-29.76,41.14-6.84,15-12.11,31.7-18.43,47.27-2.31,5.71-4.78,11.37-8.63,16.47,8.45,4.09,27.92,5.51,39.47,5.29,17.21-.33,24.1-3.52,38.36-7.28-.69-3.58-4.07-10.47-5.43-14.28-8.33-24.88-14.66-54.17-4.36-79.56C170.48,147.94,174.67,143.83,180.14,137.8Z"/><path class="cls-2" d="M135,48.28a26.54,26.54,0,1,0,26.53,26.54A26.54,26.54,0,0,0,135,48.28Zm9.09,34.29,1.52,2.87-2.86-1.52a16.09,16.09,0,0,0-15.5,0l-2.87,1.52,1.52-2.87a16.1,16.1,0,0,0,0-15.5l-1.52-2.87,2.87,1.52a16.09,16.09,0,0,0,15.5,0l2.86-1.52-1.52,2.87A16.1,16.1,0,0,0,144.05,82.57Z"/><path class="cls-2" d="M211.28,25.75c-1.75-.86-6.56-2-8.73-.8.43-1.16,1.07-3.26.14-4s-14.05-4.89-21.51-6.84A125.51,125.51,0,0,0,51.11,40.28L38.58,54.12c-1.89,2.58-3.38,4.8-5.45,7.67-5.1,7.07-9.84,16.8-13.55,27.43-.74,1.3-1.58,2.6-2.48,3.91-3.36,4.91-7.42,10-9,15.71-2.23,8-.7,14.76,2.68,22.7a52.32,52.32,0,0,0,4.43,7.84c.63.91,1.26,1.87,1.91,2.82a29.45,29.45,0,0,0,3.16,4c-1.2-5.28.49-10.72,2.91-15.3,2.31-4.37,2.8-4.65,4.64-9.71a31.69,31.69,0,0,0,1.63-8.85c.71-13-3.09-16.71-6.52-25.77A149.29,149.29,0,0,1,39.16,59.31C50.92,43.12,71.45,28.36,89.86,21.2a122.93,122.93,0,0,1,81.59-3.05c7,2.47,21.08,15.12,25.25,16.34,2.14.29,2.6-.94,3.37-2.48a8.36,8.36,0,0,0,.21,2.36,14.21,14.21,0,0,0,7.92,9.27c7,3,15.73,16.11,16.2,23s2.68-5,2.72-6.12C228,38.67,217.65,28.9,211.28,25.75ZM20.53,104.22c-.92,2-2.2,3.8-3.43,6.06a29.9,29.9,0,0,0-3.52,11.32c-.61,5.05.47,9,.41,10-2.74-7.64-2.37-16.82,1.44-23.2A24.4,24.4,0,0,1,17.1,106c2-2.59,4-4.67,4.66-8.65C22.57,98.55,21.19,102.79,20.53,104.22Z"/></svg>