<svg id="Слой_1" data-name="Слой 1" xmlns="http://www.w3.org/2000/svg" viewBox="0 0 2729.02 1423.08"><defs><style>.cls-1{fill:#ebf3fa;}.cls-2{fill:#a8d29f;}.cls-3{fill:#82b378;}.cls-4{fill:#ed7d2b;}.cls-5{fill:#c7dcfb;}.cls-6{fill:#dfebfd;}.cls-7{fill:#78acea;}.cls-8{fill:#699dee;}.cls-9{fill:#5288d8;}.cls-10{fill:#d7e9ff;}.cls-11{fill:#f99746;}.cls-12{fill:#afcdfb;}.cls-13{fill:#fff;}.cls-14{fill:#c65447;}.cls-15{fill:#f5c5b3;}.cls-16{fill:#233862;}.cls-17{fill:#ffb27d;}.cls-18{fill:#2b478b;}.cls-19{fill:#ed985f;}.cls-20{fill:#2c3a64;}</style></defs><path class="cls-1" d="M218.76,1409.16S-91,1076.57,166.38,716.5C394.74,397,661,418.86,856.33,548.5c83.2,55.22,323.07,6.81,527.23-318.28C1662-213.1,2627.08,55.78,2451.11,737.85c-85.16,330.07,259.16,342.07,83.72,672Z"/><path class="cls-2" d="M813.63,766.19S660.39,548.06,600.5,576.34,813.63,766.19,813.63,766.19Z"/><path class="cls-2" d="M803.89,707.58s-23.41-164-60.31-157.58S803.89,707.58,803.89,707.58Z"/><path class="cls-3" d="M674.33,1218.77s14.73-73-42.47-82.15c0,0-38.8-1.35-61.64,13.28,0,0,64.87,37.46,57.16,49.1s-69.29-47-69.29-47-69.55,30.46-85.07,52.52c0,0,82.19,14.65,71.84,24s-96.57-1.88-96.57-1.88-55.57,44.75-31.36,80.38,51.82,35.38,60.56,29.19,51.54-57.35,57-50.39-13.39,50.15-35.67,64.13c0,0,70,23.55,91-6.3s11.33-53.07,24.69-71.28,28.68-26.75,25.94-14.25-30.66,38.74-30.78,62.62-2.49,41.25,24.78,20.14S698,1271,686.14,1244.9Z"/><path class="cls-3" d="M447.66,1291.26s163.19-99.61,226.67-72.49c0,0,21.78,19.85,59.25,28.06l9.86,8.46s-45.93-14.32-57.3-10.39C686.14,1244.9,669.3,1176.78,447.66,1291.26Z"/><path class="cls-3" d="M733.58,1246.83s50.59,6.47,79.51,52.39l-6.18,4.21s-38.76-42.53-70.11-50.11S733.58,1246.83,733.58,1246.83Z"/><path class="cls-2" d="M724.28,1005.82s118.5-66.36,63.2-156.42c0,0-44.24-55.3-91.64-69.52,0,0,25.28,134.3,0,137.46s-17.38-151.68-17.38-151.68-124.82-60-173.8-55.3c0,0,77.42,131.14,52.14,128S444.62,702.46,444.62,702.46s-128-23.7-148.52,52.14,12.64,113.76,31.6,118.5,140.62,3.16,137.46,19S379.84,933.14,334,918.92c0,0,50.56,124.82,116.92,118.5s86.9-47.4,128-50.56,71.1,7.9,50.56,19-90.06,3.63-123.24,31.84-60,45.58,1.58,58.22,172.22,4.74,194.34-42.66Z"/><path class="cls-3" d="M354.56,778.3s331.8,107.44,369.72,227.52c0,0-1.58,53.72,31.6,115.34v23.7s-34.76-80.58-53.72-91.64C702.16,1053.22,776.42,948.94,354.56,778.3Z"/><path class="cls-3" d="M755.88,1121.16s51.17,77.71,22,172.29l-13.16-3.53s12.78-104.18-14-156.58S755.88,1121.16,755.88,1121.16Z"/><path class="cls-4" d="M844.72,450.61l-177.3,916.62a30.22,30.22,0,0,0,29.67,36h93.5Z"/><path class="cls-5" d="M2023.28,713s-79.75-50.87-37.7-111.29c0,0,33-36.69,66.49-44.68,0,0-22.93,92.37-5.48,95.58s18.14-104.78,18.14-104.78,89.19-36.77,123.06-31.51c0,0-59.07,88.1-41.36,86.91s83.43-90,83.43-90,89.93-11.37,101.19,42.18-13.33,78.61-26.7,81.14-97.91-3.41-96.35,7.7,57.69,32,90.12,23.91c0,0-40.14,84.78-86,77.74s-58.54-36.43-87-40.27-49.75,2.66-35.91,11.17,62.48,6.11,84.43,27.05,39.93,34.1-3.43,40.43-119.94-3.58-133.43-37.42Z"/><path class="cls-5" d="M2289.45,569.55S2054.44,631,2023.28,713c0,0-1,37.42-26.58,78.94l-.94,16.48s27.38-54.64,41-61.57C2036.77,746.85,1989.29,671.37,2289.45,569.55Z"/><path class="cls-5" d="M1996.7,791.94s-38.68,52-22.17,118.93l9.29-1.93s-4.72-73,16-108.32S1996.7,791.94,1996.7,791.94Z"/><path class="cls-6" d="M1808.55,492.18S1686,465.27,1710.77,370.84c0,0,24.29-60.74,62.38-86,0,0,13.64,125.49,36.83,121.51S1784.7,267.6,1784.7,267.6s94.25-86.52,138.82-95.45c0,0-33.3,136.67-11.8,127.1s62.76-150.18,62.76-150.18,106.78-55.24,145.26,6.3,19.31,104,3.82,113.22-123.46,40.47-116.43,53.59,86.42,13.45,123.12-11.4c0,0-11.25,123.89-71.6,136.09s-89.52-18.62-126.68-10.4-60.74,26-39.62,30.3,80.59-20.92,117.48-4.88,65.28,24.21,14.2,51.9-151,50.33-183.22,14.36Z"/><path class="cls-6" d="M2074.41,192s-264.51,183.89-265.86,300.2c0,0,15.79,47.06,3,110.42l6.36,20.95s9.13-80.54,22.93-95.4C1840.81,528.15,1747.22,455.87,2074.41,192Z"/><path class="cls-6" d="M1811.52,602.6s-24.41,82.4,26.73,158.2l10.69-6.65s-39.22-88.67-29.59-142.17S1811.52,602.6,1811.52,602.6Z"/><path class="cls-7" d="M846.85,446.9l-117.52,900a49.85,49.85,0,0,0,49.43,56.3h172.4L854,443.65Z"/><path class="cls-8" d="M846.85,446.9l-52.61,894.24a58.6,58.6,0,0,0,58.5,62h257.12Z"/><path class="cls-9" d="M844.88,454.2l25.58,886.94a58.6,58.6,0,0,0,58.5,62h257.11Z"/><path class="cls-10" d="M2075.9,1403.18H1062.11a52.41,52.41,0,0,1-51.56-43L856.28,516.58A62.37,62.37,0,0,1,917.63,443H1919.49a52.43,52.43,0,0,1,51.57,43l156.41,855.36A52.42,52.42,0,0,1,2075.9,1403.18Z"/><path class="cls-11" d="M876.35,626.14h1121l-28.74-159.28A29,29,0,0,0,1940.08,443H854.23a9.5,9.5,0,0,0-9.35,11.21Z"/><path class="cls-7" d="M902.56,395.06A48.64,48.64,0,0,0,854,443.65h9.33a39.25,39.25,0,1,1,41.51,39.21v9.34A48.14,48.14,0,0,0,917.22,490a48.6,48.6,0,0,0-14.66-94.93Z"/><path class="cls-7" d="M917.59,487.19a10.75,10.75,0,0,1-.37,2.8,10.6,10.6,0,1,1,.37-2.8Z"/><path class="cls-7" d="M1076.82,395.06a48.65,48.65,0,0,0-48.61,48.59h9.33a39.27,39.27,0,1,1,78.54,0,38.69,38.69,0,0,1-2,12.43,39.28,39.28,0,0,1-35,26.78v9.34a48.06,48.06,0,0,0,12.42-2.21,48.59,48.59,0,0,0-14.64-94.93Z"/><path class="cls-7" d="M1091.84,487.19a10.75,10.75,0,0,1-.38,2.8,10.55,10.55,0,1,1,.38-2.8Z"/><path class="cls-7" d="M1251.07,395.06a48.64,48.64,0,0,0-48.6,48.59h9.33a39.26,39.26,0,1,1,41.5,39.21v9.34a48.21,48.21,0,0,0,12.42-2.21,48.59,48.59,0,0,0-14.65-94.93Z"/><path class="cls-7" d="M1266.09,487.19a10.75,10.75,0,0,1-.37,2.8,10.63,10.63,0,1,1,.37-2.8Z"/><path class="cls-7" d="M1425.32,395.06a48.64,48.64,0,0,0-48.59,48.59h9.32a39.28,39.28,0,0,1,78.55,0,38.7,38.7,0,0,1-2,12.43,39.3,39.3,0,0,1-35,26.78v9.34A48.14,48.14,0,0,0,1440,490a48.59,48.59,0,0,0-14.65-94.93Z"/><path class="cls-7" d="M1440.35,487.19a10.75,10.75,0,0,1-.38,2.8,10.53,10.53,0,1,1,.38-2.8Z"/><path class="cls-7" d="M1599.57,395.06a48.64,48.64,0,0,0-48.6,48.59h9.33a39.25,39.25,0,1,1,41.5,39.21v9.34a48.14,48.14,0,0,0,12.42-2.21,48.59,48.59,0,0,0-14.65-94.93Z"/><path class="cls-7" d="M1614.6,487.19a10.75,10.75,0,0,1-.38,2.8,10.5,10.5,0,1,1,.38-2.8Z"/><path class="cls-7" d="M1773.83,395.06a48.64,48.64,0,0,0-48.6,48.59h9.32a39.25,39.25,0,1,1,41.51,39.21v9.34a48.14,48.14,0,0,0,12.42-2.21,48.6,48.6,0,0,0-14.65-94.93Z"/><path class="cls-7" d="M1788.85,487.19a11.19,11.19,0,0,1-.37,2.8,10.6,10.6,0,1,1,.37-2.8Z"/><path class="cls-7" d="M1948.07,395.06a48.64,48.64,0,0,0-48.59,48.59h9.33a39.27,39.27,0,1,1,78.54,0,38.69,38.69,0,0,1-2,12.43,39.3,39.3,0,0,1-35,26.78v9.34a48.06,48.06,0,0,0,12.42-2.21,48.59,48.59,0,0,0-14.66-94.93Z"/><path class="cls-7" d="M1963.11,487.19a10.75,10.75,0,0,1-.38,2.8,10.53,10.53,0,1,1,.38-2.8Z"/><path class="cls-12" d="M1524.64,925.36H1468c-6.55,0-13-5.36-14.21-11.91l-10.93-56.67c-1.27-6.55,3.06-11.91,9.61-11.91h56.67c6.55,0,13,5.36,14.21,11.91l10.93,56.67C1535.51,920,1531.19,925.36,1524.64,925.36Z"/><path class="cls-12" d="M1667.64,925.36H1611c-6.55,0-13-5.36-14.21-11.91l-10.93-56.67c-1.27-6.55,3.06-11.91,9.61-11.91h56.67c6.55,0,13,5.36,14.21,11.91l10.93,56.67C1678.52,920,1674.19,925.36,1667.64,925.36Z"/><path class="cls-7" d="M1810.64,925.36H1754c-6.55,0-13-5.36-14.21-11.91l-10.93-56.67c-1.26-6.55,3.06-11.91,9.61-11.91h56.67c6.55,0,13,5.36,14.21,11.91l10.93,56.67C1821.52,920,1817.19,925.36,1810.64,925.36Z"/><path class="cls-12" d="M1095.63,925.36H1039c-6.55,0-12.94-5.36-14.21-11.91l-10.93-56.67c-1.26-6.55,3.06-11.91,9.61-11.91h56.68c6.55,0,12.94,5.36,14.2,11.91l10.94,56.67C1106.51,920,1102.18,925.36,1095.63,925.36Z"/><path class="cls-11" d="M1033.52,755.22h-24.35a6.53,6.53,0,0,1-6.11-5.11l-4.7-24.36a4.12,4.12,0,0,1,4.14-5.12h24.35a6.53,6.53,0,0,1,6.1,5.12l4.7,24.36A4.1,4.1,0,0,1,1033.52,755.22Z"/><path class="cls-12" d="M1238.63,925.36H1182c-6.55,0-12.94-5.36-14.21-11.91l-10.93-56.67c-1.26-6.55,3.07-11.91,9.62-11.91h56.67c6.55,0,12.94,5.36,14.21,11.91l10.93,56.67C1249.51,920,1245.18,925.36,1238.63,925.36Z"/><path class="cls-12" d="M1381.64,925.36H1325c-6.55,0-12.94-5.36-14.2-11.91l-10.94-56.67c-1.26-6.55,3.07-11.91,9.62-11.91h56.67c6.55,0,12.94,5.36,14.21,11.91l10.93,56.67C1392.51,920,1388.19,925.36,1381.64,925.36Z"/><path class="cls-7" d="M1953.64,925.36H1897c-6.55,0-12.94-5.36-14.21-11.91l-10.93-56.67c-1.26-6.55,3.06-11.91,9.61-11.91h56.67c6.56,0,13,5.36,14.21,11.91l10.94,56.67C1964.52,920,1960.19,925.36,1953.64,925.36Z"/><path class="cls-12" d="M1500.89,802.28h-56.67c-6.55,0-12.94-5.36-14.2-11.91l-10.94-56.67c-1.26-6.55,3.07-11.92,9.62-11.92h56.67c6.55,0,12.94,5.37,14.21,11.92l10.93,56.67C1511.77,796.92,1507.45,802.28,1500.89,802.28Z"/><path class="cls-12" d="M1643.9,802.28h-56.67c-6.56,0-13-5.36-14.21-11.91l-10.93-56.67c-1.27-6.55,3.06-11.92,9.61-11.92h56.67c6.55,0,12.94,5.37,14.21,11.92l10.93,56.67C1654.77,796.92,1650.45,802.28,1643.9,802.28Z"/><path class="cls-7" d="M1786.9,802.28h-56.67c-6.55,0-13-5.36-14.21-11.91l-10.93-56.67c-1.27-6.55,3.06-11.92,9.61-11.92h56.67c6.55,0,13,5.37,14.21,11.92l10.93,56.67C1797.77,796.92,1793.45,802.28,1786.9,802.28Z"/><path class="cls-7" d="M1929.9,802.28h-56.67c-6.55,0-13-5.36-14.21-11.91l-10.93-56.67c-1.27-6.55,3.06-11.92,9.61-11.92h56.67c6.55,0,13,5.37,14.21,11.92l10.93,56.67C1940.78,796.92,1936.45,802.28,1929.9,802.28Z"/><path class="cls-12" d="M1549.8,1055.82h-56.67c-6.55,0-12.94-5.36-14.21-11.92L1468,987.23c-1.26-6.55,3.06-11.91,9.61-11.91h56.67c6.56,0,13,5.36,14.21,11.91l10.93,56.67C1560.68,1050.46,1556.35,1055.82,1549.8,1055.82Z"/><path class="cls-12" d="M1692.8,1055.82h-56.67c-6.55,0-12.94-5.36-14.21-11.92L1611,987.23c-1.26-6.55,3.06-11.91,9.62-11.91h56.67c6.55,0,12.94,5.36,14.2,11.91l10.94,56.67C1703.68,1050.46,1699.35,1055.82,1692.8,1055.82Z"/><path class="cls-7" d="M1835.8,1055.82h-56.67c-6.55,0-12.94-5.36-14.2-11.92L1754,987.23c-1.26-6.55,3.07-11.91,9.62-11.91h56.67c6.55,0,12.94,5.36,14.21,11.91l10.93,56.67C1846.68,1050.46,1842.36,1055.82,1835.8,1055.82Z"/><path class="cls-12" d="M1120.8,1055.82h-56.67c-6.56,0-13-5.36-14.21-11.92L1039,987.23c-1.26-6.55,3.07-11.91,9.62-11.91h56.67c6.55,0,12.94,5.36,14.21,11.91l10.93,56.67C1131.67,1050.46,1127.35,1055.82,1120.8,1055.82Z"/><path class="cls-12" d="M1263.8,1055.82h-56.67c-6.55,0-13-5.36-14.21-11.92L1182,987.23c-1.27-6.55,3.06-11.91,9.61-11.91h56.67c6.55,0,13,5.36,14.21,11.91l10.93,56.67C1274.68,1050.46,1270.35,1055.82,1263.8,1055.82Z"/><path class="cls-12" d="M1406.8,1055.82h-56.67c-6.55,0-13-5.36-14.21-11.92L1325,987.23c-1.26-6.55,3.06-11.91,9.61-11.91h56.67c6.55,0,13,5.36,14.21,11.91l10.93,56.67C1417.68,1050.46,1413.35,1055.82,1406.8,1055.82Z"/><path class="cls-7" d="M1978.81,1055.82h-56.67c-6.56,0-13-5.36-14.21-11.92L1897,987.23c-1.27-6.55,3.06-11.91,9.61-11.91h56.67c6.55,0,12.94,5.36,14.21,11.91l10.93,56.67C1989.68,1050.46,1985.36,1055.82,1978.81,1055.82Z"/><path class="cls-12" d="M1575,1186.27H1518.3c-6.56,0-13-5.36-14.21-11.91l-10.94-56.67c-1.26-6.55,3.07-11.91,9.62-11.91h56.67c6.55,0,12.94,5.36,14.21,11.91l10.93,56.67C1585.84,1180.91,1581.52,1186.27,1575,1186.27Z"/><path class="cls-12" d="M1718,1186.27H1661.3c-6.55,0-13-5.36-14.21-11.91l-10.93-56.67c-1.27-6.55,3.06-11.91,9.61-11.91h56.67c6.55,0,13,5.36,14.21,11.91l10.93,56.67C1728.84,1180.91,1724.52,1186.27,1718,1186.27Z"/><path class="cls-7" d="M1861,1186.27H1804.3c-6.55,0-13-5.36-14.21-11.91l-10.93-56.67c-1.27-6.55,3.06-11.91,9.61-11.91h56.67c6.55,0,13,5.36,14.21,11.91l10.93,56.67C1871.85,1180.91,1867.52,1186.27,1861,1186.27Z"/><path class="cls-12" d="M1146,1186.27h-56.67c-6.55,0-13-5.36-14.21-11.91l-10.93-56.67c-1.26-6.55,3.06-11.91,9.61-11.91h56.67c6.55,0,13,5.36,14.21,11.91l10.93,56.67C1156.84,1180.91,1152.51,1186.27,1146,1186.27Z"/><path class="cls-11" d="M1289,1186.27h-56.67c-6.55,0-12.94-5.36-14.21-11.91l-10.93-56.67c-1.26-6.55,3.06-11.91,9.61-11.91h56.68c6.55,0,12.94,5.36,14.2,11.91l10.94,56.67C1299.84,1180.91,1295.51,1186.27,1289,1186.27Z"/><path class="cls-12" d="M1432,1186.27h-56.67c-6.55,0-12.94-5.36-14.21-11.91l-10.93-56.67c-1.26-6.55,3.07-11.91,9.62-11.91h56.67c6.55,0,12.94,5.36,14.21,11.91l10.93,56.67C1442.84,1180.91,1438.52,1186.27,1432,1186.27Z"/><path class="cls-7" d="M2004,1186.27H1947.3c-6.55,0-12.94-5.36-14.21-11.91l-10.93-56.67c-1.26-6.55,3.06-11.91,9.61-11.91h56.67c6.56,0,13,5.36,14.21,11.91l10.93,56.67C2014.85,1180.91,2010.52,1186.27,2004,1186.27Z"/><path class="cls-12" d="M1598.71,1309.35H1542c-6.55,0-13-5.36-14.21-11.91l-10.93-56.67c-1.27-6.55,3.06-11.91,9.61-11.91h56.67c6.55,0,13,5.36,14.21,11.91l10.93,56.67C1609.59,1304,1605.26,1309.35,1598.71,1309.35Z"/><path class="cls-12" d="M1741.71,1309.35H1685c-6.55,0-13-5.36-14.21-11.91l-10.93-56.67c-1.26-6.55,3.06-11.91,9.61-11.91h56.67c6.55,0,13,5.36,14.21,11.91l10.93,56.67C1752.59,1304,1748.26,1309.35,1741.71,1309.35Z"/><path class="cls-7" d="M1884.71,1309.35H1828c-6.55,0-12.94-5.36-14.21-11.91l-10.93-56.67c-1.26-6.55,3.06-11.91,9.61-11.91h56.67c6.56,0,13,5.36,14.21,11.91l10.93,56.67C1895.59,1304,1891.26,1309.35,1884.71,1309.35Z"/><path class="cls-12" d="M1169.7,1309.35H1113c-6.55,0-12.94-5.36-14.21-11.91l-10.93-56.67c-1.26-6.55,3.06-11.91,9.62-11.91h56.67c6.55,0,12.94,5.36,14.2,11.91l10.94,56.67C1180.58,1304,1176.25,1309.35,1169.7,1309.35Z"/><path class="cls-12" d="M1312.7,1309.35H1256c-6.55,0-12.94-5.36-14.2-11.91l-10.94-56.67c-1.26-6.55,3.07-11.91,9.62-11.91h56.67c6.55,0,12.94,5.36,14.21,11.91l10.93,56.67C1323.58,1304,1319.26,1309.35,1312.7,1309.35Z"/><path class="cls-12" d="M1455.71,1309.35H1399c-6.56,0-13-5.36-14.21-11.91l-10.93-56.67c-1.27-6.55,3.06-11.91,9.61-11.91h56.67c6.55,0,12.94,5.36,14.21,11.91l10.93,56.67C1466.58,1304,1462.26,1309.35,1455.71,1309.35Z"/><path class="cls-12" d="M1205.28,732.86H1055.15a4,4,0,0,1-4-4h0a4,4,0,0,1,4-4h150.13a4,4,0,0,1,4,4h0A4,4,0,0,1,1205.28,732.86Z"/><path class="cls-12" d="M1209.85,751H1059.72a4,4,0,0,1-4-4h0a4,4,0,0,1,4-4h150.13a4,4,0,0,1,4,4h0A4,4,0,0,1,1209.85,751Z"/><path class="cls-13" d="M1044.26,597.46H992.74a7.69,7.69,0,0,1-7.67-7.67h0a7.69,7.69,0,0,1,7.67-7.67h51.52a7.7,7.7,0,0,1,7.68,7.67h0A7.7,7.7,0,0,1,1044.26,597.46Z"/><path class="cls-13" d="M1185.63,597.46h-51.52a7.69,7.69,0,0,1-7.67-7.67h0a7.69,7.69,0,0,1,7.67-7.67h51.52a7.69,7.69,0,0,1,7.67,7.67h0A7.69,7.69,0,0,1,1185.63,597.46Z"/><path class="cls-13" d="M1327,597.46h-51.52a7.69,7.69,0,0,1-7.67-7.67h0a7.69,7.69,0,0,1,7.67-7.67H1327a7.69,7.69,0,0,1,7.67,7.67h0A7.69,7.69,0,0,1,1327,597.46Z"/><path class="cls-13" d="M1468.37,597.46h-51.52a7.7,7.7,0,0,1-7.68-7.67h0a7.7,7.7,0,0,1,7.68-7.67h51.52a7.69,7.69,0,0,1,7.67,7.67h0A7.69,7.69,0,0,1,1468.37,597.46Z"/><path class="cls-13" d="M1609.73,597.46h-51.52a7.69,7.69,0,0,1-7.67-7.67h0a7.69,7.69,0,0,1,7.67-7.67h51.52a7.7,7.7,0,0,1,7.68,7.67h0A7.7,7.7,0,0,1,1609.73,597.46Z"/><path class="cls-13" d="M1751.1,597.46h-51.52a7.69,7.69,0,0,1-7.67-7.67h0a7.69,7.69,0,0,1,7.67-7.67h51.52a7.69,7.69,0,0,1,7.67,7.67h0A7.69,7.69,0,0,1,1751.1,597.46Z"/><path class="cls-13" d="M1892.47,597.46H1841a7.69,7.69,0,0,1-7.67-7.67h0a7.69,7.69,0,0,1,7.67-7.67h51.52a7.69,7.69,0,0,1,7.67,7.67h0A7.69,7.69,0,0,1,1892.47,597.46Z"/><path class="cls-14" d="M1566.63,803.39c-11.38,0-19.66-3.61-24.18-10.61-8.66-13.44-2-32.28,19.87-56a276.3,276.3,0,0,1,34.76-31.17,1.64,1.64,0,0,1,1.94,2.65c-.73.53-72.52,53.69-53.8,82.73,5.92,9.2,18.61,9.81,28.23,8.7,17.78-2.05,41-11.63,62-25.62,21.8-14.48,37.15-30.8,42.13-44.77,3.26-9.17,2.25-15.66-3-19.3-6.79-4.7-21-4.7-37.95,0-16.26,4.5-32.62,12.59-42.7,21.12a1.64,1.64,0,1,1-2.12-2.51c10.42-8.82,27.26-17.16,43.94-21.78,18.17-5,33-4.85,40.7.48,4.56,3.15,9,9.73,4.23,23.1-5.21,14.63-21,31.55-43.4,46.41-21.48,14.26-45.21,24-63.48,26.15A63.16,63.16,0,0,1,1566.63,803.39Z"/><path class="cls-15" d="M1864.1,710l-5.85-11s2.91-19.66-21.73-32.1c0,0-9-3.66-14.09,3.68-4.68,6.76,8.93,5.54,8.2,17.11s4.76,18.36,12.4,22.13l6.32,7.32Z"/><path class="cls-16" d="M2096.93,683.6s-21.16,103.84-137.59,137.77C1923,832,1840.44,712.31,1840.44,712.31s2.9-11,21.08-8.5c0,0,80.4,53.22,90.52,59,9,5.13,68-65.95,95-77.41S2096.93,683.6,2096.93,683.6Z"/><rect class="cls-14" x="1809.38" y="618.16" width="25.62" height="128.88" transform="translate(1482.86 2598.63) rotate(-100.49)"/><polygon class="cls-17" points="1729.37 699.79 1761.16 706.93 1756.49 681.74 1729.37 699.79"/><path class="cls-17" d="M1899.5,663.9l1.48,8a9,9,0,0,1-7.23,10.52l-5.86,1.08-4.67-25.19,6.38-1.18A8.49,8.49,0,0,1,1899.5,663.9Z"/><path class="cls-16" d="M2235.92,1336.37s14.45,13.18,11.63,22.55-15.85,15.61-17.61,27-8.81,17.69-15.15,17.69h-30.23s-4.67-8.05,6.6-10.48,15.53-15.88,14.82-28.37,1.06-29.13,1.06-29.13l23.95-5.55Z"/><path class="cls-16" d="M2058.73,1370.46s2.59,30-3.75,33.12l-81.15-.17s0-9.36,13-11.44,35.94-9.71,39.81-26.71S2058.73,1370.46,2058.73,1370.46Z"/><path class="cls-11" d="M1990.22,946.72s4.28,52.58,9.31,115.79c6.83,85.86,15.06,191.33,15.87,211.31,1.41,34.69,7,90.19,7,90.19s13.38,13.18,40.16,7.62c0,0,23.86-79.22,30.68-163,.1-1.37.21-2.76.32-4.14,6.34-85.33,16.2-265,16.2-265Z"/><path class="cls-4" d="M1990.22,946.72s4.28,52.58,9.31,115.79l93.76,146.08c.1-1.37.21-2.76.32-4.14,6.34-85.33,16.2-265,16.2-265Z"/><path class="cls-11" d="M2009.76,953s77.15,190.43,127.88,279.92,66.58,114.47,66.58,114.47,29.06-11.45,31.7-19.25c0,0-19.4-172.77-53.37-214.89-19.19-23.8-41.74-95.21-42.8-120.19s-6.87-74.4-6.87-74.4Z"/><path class="cls-15" d="M2111.27,659.5s-52.2,25.18-82.29,15.84a70.8,70.8,0,0,1,20.37-16.3c-1-6-1.86-11.28-2.32-15.73a145.51,145.51,0,0,1-1.27-16.07l20.14-15.84L2085,596.25C2083.49,638.87,2111.27,659.5,2111.27,659.5Z"/><path class="cls-18" d="M1986.92,951.07a4.7,4.7,0,0,0,3.13,1.24c11.34-.23,44.33,6,72.22,3.19,23.61-2.28,44.44-9.11,66.78-18.91,3-1.37,9.85-5,9.72-8.2-.12-3.65-.46-8.78-.92-15.4-.93-13-2.25-31.5-2.67-53.42-.31-16.25-.13-34.39,1.05-53.59.06-1.29.13-2.59.19-3.89.33-7,.5-14.14.5-21.07a364.92,364.92,0,0,0-4.74-62.67c-5.68-33.06-16.33-58.92-32.06-70.44-2.09-1.6-15,4.67-27.09,10.49-11,5.35-22,5.92-32.4,3.88l-10.41,9.11c-12.63,11.5-26.52,27.34-32.65,51.28-5.09,20.29-8.1,57-9.73,95.05-.8,17.32-1.38,34.64-1.61,51.17v.56c-.12,1.71-.12,3.44-.12,5.15C1985.54,916.87,1986.11,950.5,1986.92,951.07Z"/><path class="cls-19" d="M2085.34,612.54s-13.19,24.05-38.31,30.77a145.51,145.51,0,0,1-1.27-16.07l20.14-15.84Z"/><path class="cls-15" d="M2036.57,626.55s49.8,8.15,54.48-22.47,14.25-50.18-17.35-56.67-39.57,4.27-43.66,14.11S2023.74,623.64,2036.57,626.55Z"/><path class="cls-20" d="M2109.14,543.74c.46-.51,1.5-.93,3.82-1.06a9.38,9.38,0,0,0-4.34-1.22c-.48-3.23-2.2-8.94-7.75-10.33a7,7,0,0,1,3.37,5c-6.43-6.61-20.21-11.42-58.37-8.41-50.3,4-33.72,36.18-27.21,40s22.9-6.68,35-5.72,14.44,18.5,18.56,20.9,2.49-1.85,8.06-4.36,6.1,6.71,4.49,12.71,6,13.91,6,13.91l7.74-8.33c7.73-8.33,15-43.59,11.5-51.11Z"/><path class="cls-15" d="M1858.15,698.42s1.71-6.77-3-9.81-9-11.32-11-10.2c-4.1,2.33,2.25,9.54,1.09,18.55C1844.85,700.11,1852.19,708.37,1858.15,698.42Z"/><path class="cls-16" d="M2135.18,859.57c-.31-16.25-.13-34.39,1.05-53.59.06-1.29.13-2.59.19-3.89-4.74-23.45-11.9-44.26-22.44-44.94C2114,757.15,2082.58,806.49,2135.18,859.57Z"/><path class="cls-15" d="M2176.71,944.66s-2.61,25.44-5.48,30.26-15.1,20.19-20.31,23.21,3.18-20.27,2.12-24.8-4.29,8.27-6.58,8.57-1.71-11.22-1.79-15.41S2155.84,952,2159.81,943,2176.71,944.66,2176.71,944.66Z"/><path class="cls-18" d="M2100.1,647.66s31.5,14.92,46.61,37.85c23.43,35.58,50.59,165.25,51.1,177.25S2178,959.54,2178,959.54s-20.62-1.36-25.93-11.76c0,0,4.12-87.1,1.51-92.7S2067.61,738.25,2077,714.51,2100.1,647.66,2100.1,647.66Z"/><polygon class="cls-14" points="1745.66 688.95 1747.32 703.82 1729.37 699.79 1745.66 688.95"/><path class="cls-3" d="M2427.43,1403.18h-90.8c-4.86-4.12,3.37-13.5,12-14.13,3.74-.28,8.46.5,13.86,1.64,1.25-16.59,8.39-91.2,35.28-88.2,30.24,3.36,0,32.85-8.55,50.32-6.33,12.93-13,31.49-16.06,40.24,2.45.53,5,1,7.59,1.53,4-12.3,18.92-53.7,37.88-51.29,22.27,2.83,13.32,19.42-2.46,29.28-11.58,7.24-25.8,17.54-32.55,22.51a95.14,95.14,0,0,0,17.76,1.42C2416.9,1396.13,2424.49,1400.72,2427.43,1403.18Z"/><path class="cls-3" d="M354.73,1398.87c-4.81-7.56-19.29-27.18-38.58-24.58-21,2.83,23.21,16.68,36.75,24.64a22.41,22.41,0,0,1-7.49-.88c-9.05-3.23-24.55,3-29.51,5.13h86.18a13.7,13.7,0,0,0-6.16-7.88c-1.42-.86-4.26-1-7.94-.7,5.13-6,8.69-25.34-5.58-20.38-10.42,3.63-10.39,15.42-9.37,22.4-2.21.35-4.46.7-6.68,1-4.29-21.87-19.47-86-50.23-87.67-31.18-1.73,26.44,66.47,45.63,88.28C359.29,1398.54,356.93,1398.77,354.73,1398.87Z"/></svg>