<svg id="Слой_1" data-name="Слой 1" xmlns="http://www.w3.org/2000/svg" viewBox="0 0 1547.91 1215.89"><defs><style>.cls-1{fill:#73b471;}.cls-2{fill:#9bd399;}.cls-3{fill:#ffa412;}.cls-4{fill:#ffb93e;}.cls-5{fill:#f7cc7f;}.cls-6{fill:#f5c5b3;}.cls-7{fill:#0b0a08;}.cls-8{fill:#154276;}.cls-9{fill:#1e3865;}.cls-10{fill:#25468f;}.cls-11{fill:#a9c2ff;}.cls-12{fill:#ff912b;}.cls-13{fill:#f9af95;}.cls-14{fill:#f47458;}.cls-15{fill:#8aaff7;}.cls-16{fill:#fff;}</style></defs><path class="cls-1" d="M702.54,907.69C860.7,734.85,983.31,524.4,1063.7,287.22q140.39,80.34,280.65,160.56c-93,274.23-234.77,517.6-417.59,717.39Q814.77,1036.49,702.54,907.69Z"/><path class="cls-2" d="M1111.07,333.32q87.39,50.93,174.67,101.73c-8.6,24.89.69,55.05,21.45,67.78-84.3,225.48-202.43,428.6-350.15,601.55-17.32-18.69-44.27-18.69-60.78-.34q-70.54-79.83-141-159.65c15.14-16.86,13.08-46.11-4.24-64.92,129.71-151.84,233.51-330.19,307.48-528.26C1079.42,364.06,1103,356.15,1111.07,333.32Z"/><path class="cls-1" d="M977.69,839.45c-46.57-43.7-57.81-117.44-28.33-167.22s91.75-61.7,142-24.08,66.75,115.49,33.49,171.46S1024.13,883.14,977.69,839.45Z"/><path class="cls-2" d="M967.48,680.14c5.39,4.25,10.66,8.49,16,12.73a86.1,86.1,0,0,1,15.37-18.69c4.48-4,11.24-3.1,15.49,2.18.23.23.34.46.57.69,4.7,5.85,4.59,14.56-.46,18.92a64.41,64.41,0,0,0-14,17.2c-5.74,10.33-6.08,20.3.69,25.69,6.42,5.17,13.76,2.64,25.46-7.56,17-14.8,32.68-22,49.31-9.29,15,11.46,20.65,32.45,12.85,55.62,5.39,4.24,10.67,8.49,16.06,12.73-3.44,6.31-7,12.5-10.44,18.69-4.93-4-9.86-7.91-14.8-11.92a84,84,0,0,1-12,15.37c-4.7,4.58-11.93,3.67-16.17-2.07h0c-4.36-5.85-4-14.45.92-19a61.16,61.16,0,0,0,11.47-14.68c6.88-12.15,4.24-20-.46-23.62-5.62-4.48-12.73-.58-26.95,10.78-19.62,16.17-34,17.09-48.86,4.58s-20.76-34.06-12.5-57.11c-5.74-4.59-11.47-9.29-17.09-13.88C961.06,691.73,964.27,685.88,967.48,680.14Z"/><path class="cls-1" d="M855.43,990.38q53.49-62.79,101.38-131.09c7.92,7.45,15.83,14.91,23.63,22.36q-48.51,69.17-102.76,132.93C870.22,1006.55,862.77,998.41,855.43,990.38Z"/><path class="cls-1" d="M727.66,825c222.84-64.8,433.76-176.28,621.62-328.36L1511,754.35C1293.66,930.17,1049.83,1059,792.23,1134Q760.07,979.49,727.66,825Z"/><path class="cls-2" d="M1367.06,555.25q49.89,80.85,99.78,161.82c-19.84,15.83-26.84,44.16-15.37,64-185.34,141.07-388.8,248.42-602.7,318.26C843.27,1076.4,820,1064,796.59,1071q-20.82-96.18-41.75-192.45c21.56-6.43,34.41-30.74,28.79-53.68,187.75-61.36,366.43-155.63,529.18-279.5C1324.39,565.11,1348.82,569.81,1367.06,555.25Z"/><path class="cls-1" d="M999,897.48c-18.24-56.43,8.83-120.42,59.18-146.46s109.87-6.88,134.53,46.34-.23,123.06-56.89,152.3S1017.25,953.79,999,897.48Z"/><path class="cls-2" d="M1069.9,765.7c2.52,5.85,4.93,11.7,7.45,17.55a93.5,93.5,0,0,1,22.59-7.91c5.85-1.15,11.24,2.75,12.28,8.94,0,.23.11.46.11.8,1.15,6.77-3.32,13.77-9.86,14.91a64.38,64.38,0,0,0-20.65,7.34c-10.09,5.62-15.36,13.42-12.27,20.88,2.87,7.11,10.55,8.49,25.81,5.73,22-4,39.22-2.41,47.13,15.37,7.23,16.06,1.61,35.44-16.63,50.35q3.8,8.77,7.57,17.55c-6.07,3.44-12.27,6.76-18.35,10.09-2.29-5.39-4.58-10.9-6.76-16.29a83,83,0,0,1-18.12,6.66,10.45,10.45,0,0,1-13-9.06h0a13.62,13.62,0,0,1,10.32-14.8,62.24,62.24,0,0,0,17.2-6.42c12-6.54,13.65-13.88,11.36-19-2.64-6.08-10.67-6.31-28.68-3.9-25,3.9-37.84-2.06-44.5-18.92s-.91-36.7,17.78-51.38c-2.64-6.31-5.28-12.62-7.8-18.93C1058.54,772,1064.28,768.8,1069.9,765.7Z"/><path class="cls-1" d="M795.56,901.84c190,42.32,392.58,43.35,596.73,3.1l.69,268.71c-236.15,46.57-470.23,45.42-690-3.55Q749.29,1035.91,795.56,901.84Z"/><path class="cls-2" d="M1378.76,958q-.52,84-.92,168c-21.45,4-39.34,23.28-39.91,43.58-197.39,32.8-392.7,31.77-578.5-3,6.31-20.19-4.93-39.57-25-43.93Q762.65,1039,791,955.06c18.47,3.89,38.65-9.75,45-29.94,163.2,30.51,334.66,31.43,508.07,2.64C1343.43,947.94,1358.91,961.71,1378.76,958Z"/><path class="cls-1" d="M958.76,1071.69C971,1020,1019.32,981.32,1067.49,982s82.46,40.48,76.27,92.32c-6.2,51.61-55.63,96-109.65,95.19S946.6,1123.3,958.76,1071.69Z"/><path class="cls-2" d="M1069.32,998.41c-.8,5.62-1.72,11.24-2.52,16.86a73.39,73.39,0,0,1,19.84,3.32c4.7,1.49,6.88,6.77,4.82,12.05-.12.22-.12.45-.23.68-2.18,5.85-8.6,9.29-13.76,7.57a55.9,55.9,0,0,0-18.24-3c-9.75.12-17.09,4-18.24,11.13-1,6.76,3.79,11,16.06,15.25,17.66,6.08,29.36,14.45,27.18,31.65-2.06,15.6-14.79,28.33-34.75,32.35-.8,5.62-1.6,11.24-2.52,16.86-6,.11-11.93.11-17.78.23.8-5.17,1.61-10.44,2.41-15.6a70.57,70.57,0,0,1-16.06-2.3c-5.27-1.49-7.57-7.11-5.27-12.5h0c2.41-5.62,8.83-8.83,14.1-7.22a51,51,0,0,0,15.37,2.18c11.59-.12,16.06-5.16,16.86-10.1.92-5.85-4.81-9.4-18.92-15-19.84-7.34-26.38-17.32-23.63-33.26s15.94-29,36-32.69c.92-6.08,2-12,2.87-18.12C1058.31,998.52,1063.82,998.41,1069.32,998.41Z"/><path class="cls-1" d="M762.53,1046.12Q830,1058.68,899,1064.81c-2.07,8.83-4.25,17.55-6.31,26.38q-70-6.36-138.32-19C757,1063.55,759.77,1054.84,762.53,1046.12Z"/><path class="cls-1" d="M1192.84,1065.27c45.19-6.54,90.38-15.25,135.22-26,.81,8.94,1.61,18,2.41,27q-68.29,16.51-137.17,26.38C1193.19,1083.51,1193.07,1074.33,1192.84,1065.27Z"/><path class="cls-1" d="M1220.6,779.24c39.57-22.83,78.22-47.72,116-74.32,4.13,8,8.14,16.05,12.27,24.08q-57.28,40.61-117.56,75.47C1227.71,796.1,1224.15,787.72,1220.6,779.24Z"/><path class="cls-1" d="M1071.85,586.1q35.61-58.5,65.94-120.88c7.46,5,14.91,10.2,22.37,15.25q-30.79,63.13-66.87,122.6C1086.18,597.45,1079.07,591.83,1071.85,586.1Z"/><path class="cls-3" d="M426.3,1126.52v63.3c0,10.21,114.23,18.58,255.07,18.58s255.07-8.25,255.07-18.58v-63.3Z"/><path class="cls-4" d="M610.84,1207.6v-81.08H426.3v63.3C426.3,1198.2,504.29,1205.42,610.84,1207.6Z"/><path class="cls-4" d="M619.44,1207.72c19.84.34,40.6.57,61.93.57,31.77,0,62.28-.46,90.38-1.15v-80.62H619.44Z"/><path class="cls-4" d="M782,1206.8c90.84-2.87,154.49-9.41,154.49-17.09V1126.4H782Z"/><path class="cls-3" d="M936.44,1125.83c0,10.21-114.23,18.58-255.07,18.58s-255.07-8.26-255.07-18.58,114.23-18.58,255.07-18.58S936.44,1115.51,936.44,1125.83Z"/><path class="cls-5" d="M891.37,1125.83c0,7.11-94,12.84-210,12.84s-210-5.73-210-12.84,94-12.85,210-12.85S891.37,1118.72,891.37,1125.83Z"/><path class="cls-3" d="M382.72,1059.42v63.31c0,10.21,114.23,18.58,255.07,18.58s255.07-8.26,255.07-18.58v-63.31Z"/><path class="cls-4" d="M567.25,1140.62v-81.08H382.72v63.31C382.72,1131.22,460.71,1138.33,567.25,1140.62Z"/><path class="cls-4" d="M575.86,1140.74c19.84.34,40.6.57,61.93.57,31.77,0,62.28-.46,90.37-1.15v-80.62H575.86Z"/><path class="cls-4" d="M738.26,1139.82c90.83-2.87,154.48-9.4,154.48-17.09v-63.31H738.26Z"/><ellipse class="cls-3" cx="637.79" cy="1058.73" rx="255.07" ry="18.58"/><ellipse class="cls-5" cx="637.79" cy="1058.73" rx="210" ry="12.85"/><path class="cls-3" d="M411.74,990.72V1054c0,10.21,114.23,18.58,255.07,18.58s255.06-8.26,255.06-18.58V990.72Z"/><path class="cls-4" d="M596.39,1071.81V990.72H411.74V1054C411.74,1062.4,489.72,1069.63,596.39,1071.81Z"/><path class="cls-4" d="M604.87,1071.92c19.84.35,40.6.58,61.94.58,31.76,0,62.27-.46,90.37-1.15V990.72H604.87Z"/><path class="cls-4" d="M767.39,1071c90.83-2.87,154.48-9.41,154.48-17.09V990.61H767.39Z"/><ellipse class="cls-3" cx="666.81" cy="990.04" rx="255.07" ry="18.58"/><ellipse class="cls-5" cx="666.81" cy="990.04" rx="210" ry="12.85"/><path class="cls-3" d="M382.72,922.83v63.31c0,10.2,114.23,18.58,255.07,18.58s255.07-8.26,255.07-18.58V922.83Z"/><path class="cls-4" d="M567.25,1003.91V922.83H382.72v63.31C382.72,994.62,460.71,1001.73,567.25,1003.91Z"/><path class="cls-4" d="M575.86,1004.14c19.84.35,40.6.58,61.93.58,31.77,0,62.28-.46,90.37-1.15V922.94H575.86Z"/><path class="cls-4" d="M738.26,1003.22c90.83-2.86,154.48-9.4,154.48-17.08V922.83H738.26Z"/><ellipse class="cls-3" cx="637.79" cy="922.14" rx="255.07" ry="18.58"/><path class="cls-4" d="M847.79,922.14c0,7.11-94,12.84-210,12.84s-210-5.73-210-12.84,94.05-12.85,210-12.85S847.79,915,847.79,922.14Z"/><path class="cls-6" d="M601.66,218.86s-3,14.8-5.39,20.19c-1.26,2.86-6.77,13.87-6.77,13.87L587,282.86l-22.59-3s7.68-21.57,5-28c-2.06-5-3.32-15.82-3.21-18.46C566.57,224.25,601.66,218.86,601.66,218.86Z"/><path class="cls-6" d="M319.64,237.1s22.94,14.79,27.3,18.81c2.29,2.06,11.81,10,11.81,10l14.56,26.38,19.5-11.81S377,263.82,376.75,256.82c-.22-5.5-3.44-15.71-4.58-18.12C368,230.56,319.64,237.1,319.64,237.1Z"/><path class="cls-7" d="M502.57,328.62s-11.81-12.27-21.22,2.64c0,0-7.34-4-12.38,3.21,0,0-13.19-3.9-16.41,15.6,0,0-6.76-1.26-7.68,6.76a19.34,19.34,0,0,0,3.21,13.31s-3.78,2.86-2.06,10.2a9.32,9.32,0,0,0,6.65,7.23s1.38,10.55,6,13.65,10.9,1.6,10.9,1.6,1.72,5.74,7,5.17,12.05-5.62,18-3.33,21.68-.12,21.68-.12,17.54-7.68,12.27-25.46c0,0,9.17-8.25,1.15-18.12,0,0,5.85-15.48-5.74-24.66S502.57,328.62,502.57,328.62Z"/><path class="cls-6" d="M371.71,763.18s-20.3-2.29-23.63-3.9-20.41,14.45-17,22.59c1.95,4.59,7.91,4,7.91,4l4.82-4.7,25.8,5.27Z"/><path class="cls-6" d="M487.54,847.93s-10.66,17.21-13.64,19.62,4.58,24.43,13.42,24.88c4.93.23,7-5.39,7-5.39l-2.29-6.3,15.71-20.88Z"/><path class="cls-8" d="M474.59,866.86s6.19,7.8,9.51,10.89a115.22,115.22,0,0,0,9.87,7.92s6.31,11.24,8,15.25c3.78,8.72,8.14,18.58,7.45,23.4-.23,1.6-3.78,3.21-6.77,2.29-12.38-3.78-44-32.46-48.05-40.25C449.93,877.52,474.59,866.86,474.59,866.86Z"/><path class="cls-9" d="M565.08,604c-1.15-3.21-2.3-6.19-3.33-9-13.19,2.87-28.1,6-43.35,9.18l-1.84,55.62c0-4.24,11.47,88.77,11.47,88.77s-31.31,61.59-51.61,99.67c8.37,10.32,14.8,14.79,26.84,21.9,31.65-37.5,72-103.67,73.74-115.14C577.92,748.5,578.84,642.3,565.08,604Z"/><path class="cls-10" d="M447.4,620.05C451,658.58,456.92,717,458,736.57c-25.12,3.56-84.65,21.33-95.66,21.33-4.24,9.29-6.53,20.65-3.55,29.94.57,1.83,117.33,5.5,147.37-13.54C514,769.37,516.45,716,516.56,660l1.84-55.63C492.82,609.72,469.31,615,447.4,620.05Z"/><path class="cls-11" d="M531.24,422.55l-28.67,4.24s-21.56.35-27.3.35c-.46,0-22.93,108.61-28.44,149.44s-1.26,48-1.26,48,38.08,8.49,66.29,6c29.25-2.53,62.28-18.24,62.28-18.24s-27-79.59-31.89-104.14S531.24,422.55,531.24,422.55Z"/><path class="cls-12" d="M590.08,271.05s-2.53,100.58-5.62,106.77C580,386.88,548,451,548,451s24.08,99.9,34.17,134.42c1,3.44,5.51,25.92,5.51,28.1,0,4.82-21.33,11-23.86,10.67-2.29-.35-20.87-95.31-32.68-141.88a131.38,131.38,0,0,0-20.42-43.92l-8.26-11.59,49-58.72S562,275.17,562,269.44C562.09,267.83,587,265.31,590.08,271.05Z"/><path class="cls-12" d="M475.16,427.14l-49.09-73.29s-31.77-77-32.57-79.82-25.81.34-33.72-.35c-2.52-.23,33.38,80.86,37.05,94.28,4.47,15.94,28.44,78.45,28.44,78.45s16.51,37.38,14,66.29c-4.24,47.94-12.73,117.09-10.67,119.16,12.85,8,53.22,7.68,56.43,2.75C519.43,579.68,475.16,427.14,475.16,427.14Z"/><path class="cls-6" d="M500.62,412.11l2.18,15.72s4.82,22.59-1.38,26.95-26.15-27.53-26.15-27.53l2.07-39.68Z"/><path class="cls-13" d="M476.65,400.3c5.05,13.53,17.2,21.91,25.69,25.12l-1.84-13.31-23.28-24.65Z"/><path class="cls-7" d="M444.65,360.5c0,6.08,3.44,10.9,7.8,10.9s7.8-4.93,7.8-10.9-3.44-10.89-7.8-10.89S444.65,354.42,444.65,360.5Z"/><path class="cls-7" d="M467.82,336.88c0,3.44,4.24,6.31,9.4,6.31s9.41-2.87,9.41-6.31-4.25-6.31-9.41-6.31S467.82,333.44,467.82,336.88Z"/><path class="cls-6" d="M491.56,345.71a21.06,21.06,0,0,1,27.64,16.74,157.77,157.77,0,0,1,1.72,20.07c.34,18.35-9.18,36.13-17.66,36.13s-31.54-11.81-32.46-37.85C470.34,364.75,478.48,350.18,491.56,345.71Z"/><path class="cls-6" d="M477,382.87c0,4-2.75,7.34-6.08,7.34s-6.07-3.33-6.07-7.34,2.75-7.34,6.07-7.34S477,378.85,477,382.87Z"/><path class="cls-7" d="M527.92,336.65c8.71,6.76,11.69,17.09,6.76,23.05s-15.94,5.28-24.54-1.49-11.7-17.09-6.77-23S519.2,329.88,527.92,336.65Z"/><path class="cls-7" d="M505.21,342.15c0,3-3.56,5.39-8,5.39s-8-2.4-8-5.39,3.56-5.39,8-5.39S505.21,339.29,505.21,342.15Z"/><circle class="cls-7" cx="522.3" cy="364.98" r="6.88"/><path class="cls-8" d="M348.89,759.51s-4.48,8.83-5.85,13.07a103,103,0,0,0-3,12.16s-7.68,10.44-10.55,13.65c-6.42,7.11-14.22,15.6-19,17.09-1.49.46-5.85-.81-5.85-4.13.12-12.85,12.62-54.71,18-61.59C328.7,742,348.89,759.51,348.89,759.51Z"/><path class="cls-14" d="M338.91,245.81s6,6.66,13.07,7.69,13.42-6.31,13.42-6.31Z"/><path class="cls-14" d="M568.17,233.2l1.26,2s19.16.69,27.18-6.31Z"/><path class="cls-1" d="M222.38,41c154,19.27,311.73,7.91,464.84-33.49q19.6,97,39.11,194.17c-177,47.82-359.44,60.9-537.44,38.76Q205.59,140.64,222.38,41Z"/><path class="cls-2" d="M684.24,46.71q11.7,60.73,23.39,121.46c-16.17,4.24-27.29,19.15-24.77,33.83C534,237.44,381.8,248.45,232.25,234.46c2.06-15-9.52-28.33-25.69-30.28,6.65-41.4,13.3-83,19.95-124.55,14.91,1.72,28.67-9.29,30.74-24.32C388.68,67.59,522.18,58,652.93,26.87,655.34,41.55,669.44,50.61,684.24,46.71Z"/><path class="cls-1" d="M373.77,154C375.84,115.87,408,85,445.45,82.61s70,24.31,72.6,62.16-29.47,72.72-71.68,75.35S371.71,192,373.77,154Z"/><path class="cls-2" d="M449.35,94.31c.12,4.13.35,8.26.46,12.27a70.29,70.29,0,0,1,15.94,1.15,7.06,7.06,0,0,1,5.51,8.48c0,.12-.12.35-.12.46a8.25,8.25,0,0,1-9.63,6.31,46.31,46.31,0,0,0-14.57-1c-7.56.69-12.73,3.9-12.61,9.17.11,4.94,4.47,7.69,14.68,10.1,14.68,3.32,25,8.71,25.69,21.21.69,11.36-7.46,21.34-22.36,25.47.11,4.12.34,8.25.45,12.27-4.58.46-9.17.8-13.87,1.26-.12-3.79-.23-7.57-.35-11.47a61.22,61.22,0,0,1-12.84-.69,7,7,0,0,1-5.85-8.71h0a8.59,8.59,0,0,1,10-6.08,44.86,44.86,0,0,0,12.27.68c9.06-.8,11.81-4.7,11.58-8.37-.11-4.24-5.16-6.53-16.86-9.75-16.4-4.12-23.05-11-23.17-22.59s8.26-21.91,23.29-25.81c-.12-4.47-.23-8.83-.35-13.3Q442.82,95,449.35,94.31Z"/><path class="cls-1" d="M538.93,138.58c36.35-4.93,72.59-11.47,108.61-19.38,1,6.3,2,12.61,3,18.92q-54.88,12.21-110.22,19.73Q539.61,148.2,538.93,138.58Z"/><path class="cls-1" d="M246.12,145c36.13,3.33,72.49,5.16,108.84,5.39-.34,6.42-.8,13-1.14,19.38q-55.4-.33-110.45-5.5Q244.75,154.81,246.12,145Z"/><path class="cls-6" d="M361.62,251.78a18.92,18.92,0,0,0,5.84-12.27c0-.92-2.52-9.18.69-9.75,5.39-.92,7.69,23.74,7.69,23.74S368.38,251,361.62,251.78Z"/><path class="cls-6" d="M576.54,242.14s15-13.64,18.35-20.3c.46-.8,1.5-9.4,4.59-8.6,5.28,1.26-1.26,20-1.26,20S583.08,244.09,576.54,242.14Z"/><path class="cls-7" d="M736.88,642.07c-5.73-13.88-11.7-27.87-26.61-34.87-12.15-5.73-24.77-3.55-35.55,4.59-30.51,22.94-3.9,48.28-38.65,91.75-10.78,13.53-23.86,24.43-30.28,40.26-9.06,22.13,1.72,32.8,19,43.46,82.69,50.81,126-53.56,124.55-77.41C748,692.07,740.55,651,736.88,642.07Z"/><path class="cls-6" d="M822.67,912.62c-3.44-.57-11.93-6.65-14.91-7.11-2.3-.46-7.34-1.15-9.41-1.49-2.63-9.75-15.94-63-17.43-78.68-1.6-16.86-13.53-90-13.53-90l-31,5.62s12.85,56.31,16.4,83.61c3.1,23.39,28.79,76.15,32,81.66v.46c.46,8.25,4.47,5.5,4.47,5.5l6.43,1.61s22.93,2.18,24.43,2.75S826.22,913.08,822.67,912.62Z"/><path class="cls-15" d="M740.32,692.42c21.91,7.45,34.29,67,34.29,67S740.32,769,731.49,764c0,0-10-44.27-13.53-42.66Z"/><path class="cls-6" d="M909.72,1015.38c6.65,17.66,10.21,34.64,10.43,36.7.12,1-1.26,5.74-1.14,6.77,13.42,18.35,32.8,22.36,49.31,23.51-8.48-8.26-20.87-16.06-21.44-18.69a328.15,328.15,0,0,1-8.6-48.29C928.07,1020.31,921.07,1016.53,909.72,1015.38Z"/><path class="cls-9" d="M719.22,817.77,689.63,901s47.48,8.94,65.26,12.15S872,920.76,874.51,922.6c1.83,1.26,22.36,67.66,31.54,104.25,10.43,2.29,28.21-.46,37.62-3.67C938.5,970.88,920,888,914.19,878.9,904.56,864.22,719.22,817.77,719.22,817.77Z"/><path class="cls-6" d="M834.71,1051.85a237.93,237.93,0,0,1,3.44,38.08c0,1-2.29,5.51-2.41,6.54,9.75,20.53,28,28.1,44,32.34-6.76-9.63-17.43-19.73-17.54-22.36a323.07,323.07,0,0,1,.68-49.09C851.91,1060.11,845.72,1055.18,834.71,1051.85Z"/><path class="cls-10" d="M684.58,822.13l-11.47,19.61a56.18,56.18,0,0,0,28.1,80.74c.23.12.35.12.46.23,16.86,6.54,113.54,29.36,115.72,31.66,1.61,1.6,9.29,70.65,11.47,108.26,9.75,4.25,27.76,4.82,37.73,3.44,4.82-52.41,2.18-137.28-2-147.26C858,902.41,684.58,822.13,684.58,822.13Z"/><path class="cls-8" d="M839.64,1090.5c-2.52-2.86-12,12.85-14.33,16.17-2.64,3.79-1.95,6.54-1.61,7.23.8,1.61,50.69,30.85,62.85,32.92a7,7,0,0,0,3.67-.92c4.7-4.24-17.09-35.21-27-39.34C856.85,1103.92,851.23,1103.35,839.64,1090.5Z"/><path class="cls-8" d="M921.76,1052.66c-3.1-2.3-9.4,14.79-11.12,18.58-1.95,4.24-.69,6.88-.23,7.34,1.14,1.37,55.62,20.87,67.89,20.64a6.87,6.87,0,0,0,3.44-1.61c3.9-5-23.39-31.42-33.83-33.6C941.14,1062.52,935.52,1063.09,921.76,1052.66Z"/><path class="cls-11" d="M719.56,692.3h0a9.17,9.17,0,0,0,2.18-.46c4-.69,13-1.83,19.84,1.15,8.38,3.55,21.45,36.7,20.65,70.76-.35,5.16-.58,9.87-.92,13.08-2.18,25.69-9.52,74-9.86,74.2-10,6.42-70.54-18.58-74.78-24.08s-6.65-72.37-8.6-75.7l-4-58.15C671.16,691,708.78,692.19,719.56,692.3Z"/><path class="cls-6" d="M695,670.85s3.9,20.19,3.1,28.1,3,33.61,19.84,33.72,3.21-32.57,1.6-40.37-1.95-31.88-1.95-31.88Z"/><path class="cls-13" d="M718,672.46c-.23-6.65-.35-12.16-.35-12.16L695,670.85s.8,4.13,1.6,9.41C706.49,682.21,713.71,678.54,718,672.46Z"/><path class="cls-6" d="M686.76,615.23a28.05,28.05,0,0,0-11.93,15.25c-3.21,10.44.46,37.51,22.94,43.93S730,659.5,725.3,642.87C720.82,626.24,710.73,605,686.76,615.23Z"/><path class="cls-6" d="M728.16,636.45c-.45,4.47-2.86,7.91-5.5,7.68s-4.36-4.13-3.9-8.6,2.87-7.91,5.5-7.68S728.62,632,728.16,636.45Z"/><path class="cls-7" d="M689.4,613.85s-4.13,30-13.76,35.56S670,668.22,670,668.22s-8.83-31-1.15-41S689.4,613.85,689.4,613.85Z"/><path class="cls-6" d="M681.37,653.77c2.64,3.89,2.64,8.6,0,10.32s-7,0-9.63-3.9-2.64-8.6,0-10.32S678.73,649.75,681.37,653.77Z"/><path class="cls-16" d="M714.17,655.37l-15.83,4s1.95,6,8.95,4.48C715.78,662,714.17,655.37,714.17,655.37Z"/><path class="cls-6" d="M565.65,906.54c.23-.69.92-.69,1.6-.8a168.29,168.29,0,0,0,18.7-1.38,8.73,8.73,0,0,0,3-.8,8,8,0,0,1,5.16-.23,12.23,12.23,0,0,0,2.87.34c3.1,0,12.16-3.09,16.74-3.9a3,3,0,0,0,2.18-2.06c4.59-18,14.34-58.26,15.6-71.57,1.61-17,13.3-93.35,13.3-93.35l31.31,8.71s-12.84,56.43-16.4,83.73c-2.75,21.1-23.85,65.94-30.5,78.79-3.21,9.63-10.44,9.86-12.16,10.09a4,4,0,0,0-2.52,1.38,16.13,16.13,0,0,1-3.9,3.44,10.06,10.06,0,0,0-2.76,2.64c-1.37,1.95-2.52,4-3.67,6-.8,1.38-1.6,1.72-2.75,1.49s-1.83-1.26-1.83-2.75a13,13,0,0,1,1.83-6.2c1-1.83,1-2.86-.23-4.47a12.85,12.85,0,0,0-2.41-2.64,3.76,3.76,0,0,0-3.21-1.14,45.87,45.87,0,0,1-6.88,1.26l-2,.34c-.11,0-1,.23-1,.23s-3.44.46-4.59.46c-.92,0-2.41.12-3.67.12a27.45,27.45,0,0,1-3.67-.58,4.87,4.87,0,0,1-3-1.14c-.34-.35-.69-.69-.46-1.15a1.26,1.26,0,0,1,1-.8c.81-.12,4.59-.58,4.59-.81-1.15,0-4.82-.11-6-.11a5.42,5.42,0,0,1-4-1.72A1.56,1.56,0,0,1,565.65,906.54Z"/><path class="cls-11" d="M663.82,693c-15.48-2.87-28.21,66.29-28.21,66.29s34.29,9.63,43.12,4.59c0,0,10-44.27,13.54-42.67Z"/><path class="cls-16" d="M511.17,400.76l-16.28.34s.57,6.31,7.68,6.31C511.4,407.53,511.17,400.76,511.17,400.76Z"/><path class="cls-3" d="M799.78,280.16a7.61,7.61,0,0,1,1.2-1.9h0a6.79,6.79,0,0,1,1.2-1.2l1.7-1.8.5.3c8.9-4.4,27.3.3,45.8,12.4,22.5,14.7,36.9,34.8,32.7,45.6l.6.5-2.5,2.5-.4.4-.1.1h0a8.55,8.55,0,0,1-2.2,1.5h0c-8.8,4.6-27.3,0-46.1-12.2C809.38,311.46,794.78,290.76,799.78,280.16Z"/><path class="cls-4" d="M852.78,285.46c-22.9-14.9-45.4-18.5-50.4-7.9s9.6,31.2,32.5,46.2,45.4,18.5,50.4,7.9S875.68,300.36,852.78,285.46Z"/><path class="cls-3" d="M836.18,320.66c-9.6-6.3-17.8-13.8-23.2-21.3s-7.4-14.3-5.4-18.8a8.68,8.68,0,0,1,5.9-4.7c8.4-2.4,23.4,2.2,38.1,11.8h0c9.6,6.3,17.8,13.8,23.2,21.3s7.4,14.3,5.4,18.8a8.68,8.68,0,0,1-5.9,4.7,19.58,19.58,0,0,1-5,.6C860.58,333.16,848.28,328.66,836.18,320.66Zm-22.3-43.1a7.05,7.05,0,0,0-4.8,3.8c-1.8,3.9.1,10.1,5.2,17.1,5.3,7.3,13.4,14.7,22.8,20.9,11.7,7.7,23.9,12.2,32.2,12.2a15.32,15.32,0,0,0,4.5-.6,7.05,7.05,0,0,0,4.8-3.8c1.8-3.9-.1-10.1-5.2-17.1-5.3-7.3-13.4-14.7-22.8-20.9-11.7-7.7-23.9-12.2-32.2-12.2A15.81,15.81,0,0,0,813.88,277.56Z"/><path class="cls-3" d="M1330.28,139.66a5.67,5.67,0,0,1,.8-1.3h0a3,3,0,0,1,.8-.8l1.2-1.3.3.2c6.3-3.1,19.4.2,32.5,8.8,15.9,10.4,26.2,24.7,23.2,32.4l.4.3-1.8,1.8-.3.3-.1.1h0a8.28,8.28,0,0,1-1.5,1.1h0c-6.2,3.3-19.4,0-32.7-8.7C1337.08,161.86,1326.78,147.16,1330.28,139.66Z"/><path class="cls-4" d="M1368,143.36c-16.2-10.6-32.2-13.1-35.8-5.6s6.8,22.2,23,32.8,32.2,13.1,35.8,5.6S1384.18,154,1368,143.36Z"/><path class="cls-3" d="M1356.18,168.46c-6.8-4.5-12.7-9.8-16.5-15.1s-5.3-10.2-3.8-13.3a6.26,6.26,0,0,1,4.2-3.3c6-1.7,16.6,1.6,27,8.4h0c6.8,4.5,12.7,9.8,16.5,15.1s5.3,10.2,3.8,13.3a6.26,6.26,0,0,1-4.2,3.3,13.61,13.61,0,0,1-3.6.5C1373.48,177.26,1364.78,174.06,1356.18,168.46Zm-15.8-30.7a5,5,0,0,0-3.4,2.7c-1.3,2.7.1,7.2,3.7,12.2a63.31,63.31,0,0,0,16.2,14.8c8.3,5.5,17,8.7,22.9,8.7a10.38,10.38,0,0,0,3.2-.4,5,5,0,0,0,3.4-2.7c1.3-2.7-.1-7.2-3.7-12.2a63.31,63.31,0,0,0-16.2-14.8c-8.3-5.5-17-8.7-22.9-8.7A14.7,14.7,0,0,0,1340.38,137.76Z"/><path class="cls-3" d="M996.18,169a4.19,4.19,0,0,0-.9-1.4h0c-.3-.3-.5-.6-.8-.9l-1.3-1.3-.3.2c-6.5-3.2-19.9.2-33.5,9.1-16.4,10.7-26.9,25.5-23.9,33.3l-.5.3,1.8,1.8.3.3.1.1h0a9.06,9.06,0,0,0,1.6,1.1h0c6.4,3.4,20,0,33.7-8.9C989.18,191.76,999.78,176.66,996.18,169Z"/><path class="cls-4" d="M957.48,172.76c16.7-10.9,33.2-13.5,36.8-5.8s-7,22.8-23.7,33.7-33.2,13.5-36.8,5.8S940.78,183.66,957.48,172.76Z"/><path class="cls-3" d="M945.48,207.66a13.8,13.8,0,0,1-3.7-.5,6.58,6.58,0,0,1-4.3-3.4c-1.5-3.3-.1-8.2,3.9-13.7a64.39,64.39,0,0,1,17-15.5h0c10.7-7,21.7-10.4,27.8-8.7a6.58,6.58,0,0,1,4.3,3.4c1.5,3.3.1,8.2-3.9,13.7a64.39,64.39,0,0,1-17,15.5C960.78,204.36,951.78,207.66,945.48,207.66Zm37.1-41.1c-6.1,0-15,3.3-23.5,8.9a65.39,65.39,0,0,0-16.7,15.2c-3.7,5.1-5.1,9.7-3.8,12.5a5.33,5.33,0,0,0,3.5,2.8,11.49,11.49,0,0,0,3.3.4c6.1,0,15-3.3,23.5-8.9a65.39,65.39,0,0,0,16.7-15.2c3.7-5.1,5.1-9.7,3.8-12.5a5.33,5.33,0,0,0-3.5-2.8A16.56,16.56,0,0,0,982.58,166.56Z"/><path class="cls-3" d="M1199.28,265.46a2.18,2.18,0,0,1,.5-.8h0c.2-.2.3-.4.5-.5l.8-.8.2.1c4-1.9,12.1.1,20.4,5.5,10,6.5,16.4,15.5,14.5,20.3l.3.2-1.1,1.1-.2.2h0a3.59,3.59,0,0,1-1,.7h0c-3.9,2-12.2,0-20.5-5.4C1203.48,279.26,1197.08,270.16,1199.28,265.46Z"/><path class="cls-4" d="M1222.88,267.76c-10.2-6.6-20.2-8.2-22.4-3.5s4.3,13.9,14.4,20.5,20.2,8.2,22.4,3.5S1233,274.36,1222.88,267.76Z"/><path class="cls-3" d="M1215.48,283.46a38.07,38.07,0,0,1-10.3-9.5c-2.5-3.4-3.3-6.4-2.4-8.4a4,4,0,0,1,2.6-2.1c3.8-1.1,10.4,1,16.9,5.3h0a38.07,38.07,0,0,1,10.3,9.5c2.5,3.4,3.3,6.4,2.4,8.4a4,4,0,0,1-2.6,2.1,7.8,7.8,0,0,1-2.2.3C1226.28,289,1220.78,287,1215.48,283.46Zm-9.9-19.2a3.08,3.08,0,0,0-2.1,1.7c-.8,1.7.1,4.5,2.3,7.6a39.88,39.88,0,0,0,10.1,9.3c5.2,3.4,10.6,5.4,14.3,5.4a6.45,6.45,0,0,0,2-.3,3.08,3.08,0,0,0,2.1-1.7c.8-1.7-.1-4.5-2.3-7.6a41.66,41.66,0,0,0-10.1-9.3c-5.2-3.4-10.6-5.4-14.3-5.4A6,6,0,0,0,1205.58,264.26Z"/><path class="cls-3" d="M282.88,516.16a8.64,8.64,0,0,0-1-1.6h0a4.74,4.74,0,0,0-1-1l-1.5-1.5-.4.3c-7.5-3.7-22.9.2-38.5,10.4-18.9,12.3-31,29.3-27.5,38.3l-.5.4,2.1,2.1.3.3.1.1h0a8.32,8.32,0,0,0,1.8,1.3h0c7.4,3.9,23,0,38.8-10.3C274.88,542.36,287.08,525,282.88,516.16Z"/><path class="cls-4" d="M238.38,520.56c19.2-12.5,38.2-15.5,42.3-6.7s-8.1,26.2-27.3,38.8-38.2,15.5-42.3,6.7S219.08,533.06,238.38,520.56Z"/><path class="cls-3" d="M224.58,560.66a17.27,17.27,0,0,1-4.2-.5,7.1,7.1,0,0,1-4.9-3.9c-1.7-3.8-.1-9.4,4.5-15.8s11.5-12.6,19.5-17.9h0c12.4-8.1,24.9-12,32-10a7.1,7.1,0,0,1,4.9,3.9c1.7,3.8.1,9.4-4.5,15.8s-11.5,12.6-19.5,17.9C242.18,556.86,231.78,560.66,224.58,560.66Zm42.7-47.2c-7,0-17.2,3.8-27.1,10.3-7.9,5.2-14.7,11.4-19.2,17.5-4.3,5.9-5.9,11.1-4.4,14.4a6.23,6.23,0,0,0,4.1,3.2,14.57,14.57,0,0,0,3.8.5c7,0,17.2-3.8,27.1-10.3,7.9-5.2,14.7-11.4,19.2-17.5,4.3-5.9,5.9-11.1,4.4-14.4a6.23,6.23,0,0,0-4.1-3.2A11.65,11.65,0,0,0,267.28,513.46Z"/><path class="cls-3" d="M79.18,275.16l-.6-.9h0l-.6-.6-.9-.9-.2.2c-4.4-2.1-13.3.1-22.4,6.1-11,7.2-18,17-16,22.3l-.3.2,1.2,1.2.2.2h0a4.13,4.13,0,0,0,1.1.7h0c4.3,2.3,13.4,0,22.6-6C74.48,290.46,81.58,280.36,79.18,275.16Z"/><path class="cls-4" d="M53.28,277.76c11.2-7.3,22.2-9,24.6-3.9s-4.7,15.3-15.9,22.6-22.2,9-24.6,3.9S42.08,285.06,53.28,277.76Z"/><path class="cls-3" d="M45.18,301.16a10.07,10.07,0,0,1-2.5-.3,4.32,4.32,0,0,1-2.9-2.3c-1-2.2-.1-5.5,2.6-9.2A44.66,44.66,0,0,1,53.78,279h0c7.2-4.7,14.5-7,18.6-5.8a4.32,4.32,0,0,1,2.9,2.3c1,2.2.1,5.5-2.6,9.2a44.66,44.66,0,0,1-11.4,10.4C55.48,298.86,49.48,301.16,45.18,301.16Zm24.9-27.5c-4.1,0-10,2.2-15.8,6a42.94,42.94,0,0,0-11.2,10.2c-2.5,3.4-3.4,6.5-2.6,8.4a3.29,3.29,0,0,0,2.4,1.8,7.32,7.32,0,0,0,2.2.3c4.1,0,10-2.2,15.8-6a42.94,42.94,0,0,0,11.2-10.2c2.5-3.4,3.4-6.5,2.6-8.4a3.29,3.29,0,0,0-2.4-1.8A7.8,7.8,0,0,0,70.08,273.66Z"/><path class="cls-3" d="M263.08,345.06a7.46,7.46,0,0,1,.7-1.2h0a4.62,4.62,0,0,1,.7-.7l1.1-1.1.3.2c5.6-2.7,17,.2,28.6,7.7,14,9.2,23,21.8,20.4,28.5l.4.3-1.6,1.6-.2.2h0a3.81,3.81,0,0,1-1.3.9h0c-5.5,2.9-17.1,0-28.8-7.7C269.08,364.66,260,351.66,263.08,345.06Z"/><path class="cls-4" d="M296.18,348.36c-14.3-9.3-28.4-11.5-31.5-4.9s6,19.5,20.3,28.9,28.4,11.5,31.5,4.9S310.48,357.66,296.18,348.36Z"/><path class="cls-3" d="M285.78,370.36a55.27,55.27,0,0,1-14.5-13.3c-3.5-4.8-4.7-8.9-3.4-11.8a5.56,5.56,0,0,1,3.7-2.9c5.3-1.5,14.6,1.4,23.8,7.4h0a55.27,55.27,0,0,1,14.5,13.3c3.5,4.8,4.7,8.9,3.4,11.8a5.56,5.56,0,0,1-3.7,2.9,10.12,10.12,0,0,1-3.1.4C301.08,378.16,293.38,375.36,285.78,370.36Zm-13.9-26.9a4.16,4.16,0,0,0-3,2.4c-1.1,2.4.1,6.3,3.3,10.7a54.52,54.52,0,0,0,14.2,13c7.3,4.8,14.9,7.6,20.1,7.6a8.25,8.25,0,0,0,2.8-.4,4.16,4.16,0,0,0,3-2.4c1.1-2.4-.1-6.3-3.3-10.7a54.52,54.52,0,0,0-14.2-13c-7.3-4.8-14.9-7.6-20.1-7.6A8.63,8.63,0,0,0,271.88,343.46Z"/></svg>